<svg width="62" height="70" viewBox="0 0 62 70" fill="none" xmlns="http://www.w3.org/2000/svg">
<path d="M27.922 13.2391C28.2887 12.4225 28.8158 11.688 29.472 11.0791C30.0694 10.5421 30.7434 10.0972 31.472 9.75909C32.1783 9.40723 32.939 9.17732 33.722 9.07909C34.6165 8.94703 35.5292 9.01881 36.392 9.28909C37.2495 9.55798 37.9711 10.1455 38.4083 10.9306C38.8455 11.7157 38.965 12.6386 38.742 13.5091C38.742 13.6591 38.632 13.8191 38.572 13.9591C38.2119 14.77 37.6675 15.4857 36.982 16.0491C36.3861 16.5566 35.7103 16.9621 34.982 17.2491C34.2409 17.5375 33.4636 17.7226 32.672 17.7991C31.7624 17.881 30.8455 17.7859 29.972 17.5191C29.1828 17.2713 28.5197 16.7285 28.121 16.0037C27.7223 15.279 27.6188 14.4283 27.832 13.6291C27.822 13.4991 27.872 13.3591 27.922 13.2391Z" fill="#3C3C3B"/>
<path d="M50.842 3.88911C50.9126 3.18066 51.1416 2.49714 51.512 1.88911C51.8168 1.40854 52.2146 0.993752 52.682 0.669113C53.1442 0.34612 53.6746 0.133966 54.232 0.0491133C54.9319 -0.0595292 55.6479 0.0127646 56.312 0.259113C57.1934 0.573394 57.9447 1.17305 58.4465 1.96293C58.9483 2.7528 59.172 3.68765 59.082 4.61911C59.0227 5.31449 58.7775 5.98112 58.372 6.54911C58.0499 7.00724 57.6253 7.38389 57.132 7.64911C56.6286 7.92715 56.0741 8.10062 55.502 8.15911C54.7834 8.21976 54.0602 8.12424 53.382 7.87911C52.578 7.58705 51.8931 7.03748 51.4337 6.3159C50.9744 5.59431 50.7663 4.74115 50.842 3.88911Z" fill="#3C3C3B"/>
<path d="M50.472 16.6991C50.9162 15.9224 51.5112 15.2424 52.222 14.6991C52.8547 14.2074 53.5553 13.8099 54.302 13.5191C55.0306 13.2099 55.8034 13.0175 56.592 12.9491C57.5038 12.8864 58.4183 13.0229 59.272 13.3491C60.1055 13.671 60.7833 14.3012 61.1649 15.1091C61.5466 15.917 61.6028 16.8408 61.322 17.6891C61.2599 17.8492 61.1898 18.006 61.112 18.1591C60.6789 18.9527 60.07 19.6368 59.332 20.1591C58.6808 20.6056 57.9615 20.9433 57.202 21.1591C56.4268 21.3971 55.6227 21.5283 54.812 21.5491C53.8869 21.567 52.967 21.4075 52.102 21.0791C51.3348 20.7823 50.7125 20.1999 50.3657 19.454C50.0188 18.7082 49.9745 17.8569 50.242 17.0791C50.3092 16.9469 50.386 16.8199 50.472 16.6991Z" fill="#3C3C3B"/>
<path d="M13.142 42.0391C13.282 44.2591 13.352 46.4691 13.412 48.6791C13.472 50.8891 13.472 53.0991 13.502 55.3091C13.532 57.5191 13.472 59.7391 13.472 61.9491C13.472 64.1591 13.362 66.3691 13.222 68.5791C13.222 68.7197 13.1662 68.8545 13.0668 68.9539C12.9674 69.0533 12.8326 69.1091 12.692 69.1091C12.5514 69.1091 12.4166 69.0533 12.3172 68.9539C12.2178 68.8545 12.162 68.7197 12.162 68.5791C12.022 66.3691 11.962 64.1591 11.902 61.9491C11.842 59.7391 11.852 57.5291 11.842 55.3091C11.832 53.0891 11.842 50.8891 11.932 48.6791C12.022 46.4691 12.062 44.2591 12.202 42.0391C12.2122 41.9108 12.2725 41.7917 12.3698 41.7076C12.4671 41.6234 12.5936 41.5808 12.722 41.5891C12.8336 41.603 12.9369 41.6557 13.0136 41.7379C13.0904 41.8202 13.1358 41.9268 13.142 42.0391Z" fill="#3C3C3B"/>
<path d="M0.472004 53.6491C2.602 53.5091 4.732 53.4391 6.862 53.3791C8.992 53.3191 11.122 53.3191 13.252 53.2891C15.382 53.2591 17.502 53.2891 19.632 53.3491C21.762 53.4091 23.892 53.4591 26.022 53.5991C26.1635 53.6094 26.2953 53.6749 26.3889 53.7816C26.4824 53.8883 26.5303 54.0275 26.522 54.1691C26.5104 54.2969 26.4538 54.4163 26.3622 54.5061C26.2705 54.5959 26.15 54.6501 26.022 54.6591C23.892 54.7991 21.762 54.8591 19.632 54.9191C17.502 54.9791 15.382 54.9691 13.252 54.9791C11.122 54.9891 8.992 54.9791 6.862 54.8891C4.732 54.7991 2.602 54.7591 0.472004 54.6191C0.408019 54.6153 0.345439 54.5988 0.287954 54.5704C0.23047 54.5421 0.179245 54.5025 0.137303 54.454C0.0953602 54.4056 0.0635494 54.3492 0.0437468 54.2882C0.0239443 54.2273 0.0165512 54.163 0.0220036 54.0991C0.0269171 53.9813 0.0759049 53.8697 0.159255 53.7863C0.242605 53.703 0.354231 53.654 0.472004 53.6491Z" fill="#3C3C3B"/>
<path d="M22.032 44.0091C20.372 46.0091 18.652 48.0091 16.932 50.0091C15.212 52.0091 13.472 53.9491 11.702 55.8791C9.932 57.8091 8.162 59.7391 6.362 61.6391C4.562 63.5391 2.75201 65.4391 0.882005 67.2791C0.832781 67.3284 0.774325 67.3675 0.70998 67.3942C0.645634 67.4208 0.576661 67.4346 0.507005 67.4346C0.437349 67.4346 0.368376 67.4208 0.30403 67.3942C0.239685 67.3675 0.181229 67.3284 0.132005 67.2791C0.0469267 67.1824 0 67.0579 0 66.9291C0 66.8003 0.0469267 66.6758 0.132005 66.5791C1.79201 64.5791 3.522 62.5791 5.242 60.5791C6.962 58.5791 8.74201 56.6691 10.492 54.7291C12.242 52.7891 14.042 50.8691 15.862 48.9791C17.682 47.0891 19.482 45.1891 21.352 43.3491C21.4426 43.2738 21.5574 43.2336 21.6752 43.236C21.7931 43.2384 21.9061 43.2832 21.9936 43.3622C22.0811 43.4412 22.1371 43.5491 22.1515 43.666C22.166 43.783 22.1377 43.9013 22.072 43.9991L22.032 44.0091Z" fill="#3C3C3B"/>
<path d="M5.102 43.5891C6.552 45.5891 8.002 47.5891 9.482 49.5891C10.962 51.5891 12.482 53.5091 14.012 55.4091C15.542 57.3091 17.132 59.2091 18.742 61.0691C20.352 62.9291 21.982 64.7691 23.622 66.6191C23.7215 66.7185 23.7773 66.8534 23.7773 66.9941C23.7773 67.1347 23.7215 67.2696 23.622 67.3691C23.5225 67.4685 23.3876 67.5244 23.247 67.5244C23.1063 67.5244 22.9715 67.4685 22.872 67.3691C21.012 65.7091 19.262 63.9391 17.572 62.1191C15.882 60.2991 14.262 58.3991 12.702 56.4691C11.142 54.5391 9.652 52.5291 8.252 50.4691C6.852 48.4091 5.512 46.3191 4.252 44.1591C4.18304 44.0517 4.15958 43.9213 4.18677 43.7966C4.21396 43.6718 4.28958 43.563 4.397 43.4941C4.50441 43.4251 4.63482 43.4017 4.75953 43.4289C4.88424 43.4561 4.99304 43.5317 5.062 43.6391L5.102 43.5891Z" fill="#3C3C3B"/>
</svg>
