<svg width="364" height="154" viewBox="0 0 364 154" fill="none" xmlns="http://www.w3.org/2000/svg">
<path d="M4.50571 54.101C4.44571 54.211 4.58571 54.301 4.37571 54.181L3.97574 53.961C3.71574 53.811 3.45572 53.651 3.20572 53.481C2.69941 53.1403 2.22424 52.7555 1.78574 52.331C1.33568 51.904 0.927145 51.4353 0.565709 50.931C0.332396 50.6315 0.165426 50.2858 0.0757796 49.9169C-0.0138669 49.548 -0.0241024 49.1642 0.0457503 48.791C0.143258 48.3485 0.394871 47.9551 0.755711 47.681C1.10526 47.4532 1.50896 47.322 1.92569 47.301L3.70572 47.231L7.16575 47.111L6.46573 47.561C6.97243 46.4376 7.53995 45.3427 8.16575 44.281C8.47575 43.751 8.80575 43.221 9.16575 42.711C9.34426 42.4307 9.53783 42.1603 9.7457 41.901C10.0425 41.5275 10.4478 41.255 10.9057 41.121C11.3672 41.0279 11.8459 41.0731 12.2818 41.251C12.7176 41.4289 13.0913 41.7316 13.3557 42.121C13.7189 42.6745 14.0302 43.2604 14.2857 43.871C14.8079 45.0039 15.2457 46.1738 15.5957 47.371L14.6657 46.731C15.918 46.6192 17.1785 46.6426 18.4257 46.801C19.0708 46.871 19.7094 46.9914 20.3357 47.161C20.8056 47.2736 21.2309 47.5243 21.557 47.8807C21.8832 48.2372 22.0952 48.6831 22.1657 49.161C22.2054 49.6871 22.0446 50.2086 21.7157 50.621C21.4757 50.931 21.3057 51.131 21.0957 51.371C20.6857 51.841 20.2557 52.281 19.8157 52.721C18.921 53.5802 17.9615 54.3692 16.9457 55.081L17.2957 54.081L18.2057 57.801L18.4257 58.731C18.5218 59.0803 18.5789 59.4392 18.5957 59.801C18.6242 60.3367 18.4531 60.864 18.1157 61.281C17.7552 61.6756 17.2585 61.9186 16.7257 61.961C15.9382 62.015 15.1507 61.8561 14.4457 61.501C13.8389 61.1896 13.263 60.8212 12.7257 60.401C11.6821 59.6206 10.7175 58.7397 9.84574 57.771H10.9557C10.4076 58.1968 9.83314 58.5876 9.23575 58.941C8.98968 59.0965 8.75567 59.2704 8.53574 59.461C8.28574 59.671 8.0257 59.891 7.7457 60.111C7.18606 60.5713 6.56301 60.9485 5.89573 61.231C5.14096 61.5527 4.30183 61.6195 3.50571 61.421C3.02058 61.2814 2.60622 60.9635 2.34574 60.531C2.13091 60.1228 2.04381 59.6594 2.09574 59.201C2.16955 58.4768 2.35507 57.7684 2.64573 57.101C2.91744 56.4788 3.22805 55.8743 3.57572 55.291L4.06571 54.441L4.29575 54.021C4.41575 53.771 4.2957 54.021 4.4957 54.021L4.50571 54.101ZM5.5557 53.801C5.53429 54.085 5.45247 54.3612 5.31571 54.611L5.07572 55.061L4.6157 55.931C4.30613 56.4795 4.03228 57.0473 3.79575 57.631C3.57433 58.1733 3.43933 58.7469 3.39573 59.331C3.37215 59.5267 3.40692 59.725 3.4957 59.901C3.53935 59.9658 3.59545 60.0212 3.66068 60.0641C3.72591 60.107 3.79898 60.1366 3.87571 60.151C4.37133 60.2378 4.88169 60.1679 5.33573 59.951C5.86722 59.6884 6.35881 59.3517 6.79575 58.951L7.50571 58.321C7.77504 58.0793 8.06254 57.8587 8.3657 57.661C8.89052 57.3345 9.39791 56.9807 9.88572 56.601C9.95724 56.5294 10.0422 56.4725 10.1357 56.4337C10.2292 56.3949 10.3295 56.375 10.4307 56.375C10.5319 56.375 10.6322 56.3949 10.7257 56.4337C10.8193 56.4725 10.9042 56.5294 10.9757 56.601C11.7963 57.4772 12.7006 58.2709 13.6757 58.971C14.4511 59.6707 15.4429 60.0836 16.4858 60.141C16.6758 60.141 16.7557 60.051 16.7557 60.041C16.7997 59.9547 16.8171 59.8573 16.8057 59.761C16.7838 59.4972 16.7369 59.236 16.6657 58.981L16.4357 58.091L15.5357 54.521C15.4946 54.3383 15.5055 54.1477 15.5674 53.9709C15.6293 53.7941 15.7396 53.6382 15.8857 53.521C16.8148 52.8568 17.6908 52.1213 18.5057 51.321C18.9157 50.921 19.3057 50.501 19.6857 50.071C19.8657 49.871 20.0857 49.611 20.2057 49.451C20.3257 49.291 20.3157 49.241 20.3157 49.261C20.3 49.1853 20.2574 49.1178 20.1957 49.071C20.0701 48.9673 19.9233 48.8922 19.7657 48.851C19.243 48.7133 18.7119 48.6098 18.1757 48.541C17.0551 48.4231 15.9248 48.4298 14.8057 48.561C14.6009 48.5765 14.397 48.5214 14.2279 48.405C14.0587 48.2886 13.9345 48.1178 13.8757 47.921C13.5718 46.7956 13.1807 45.6956 12.7057 44.631C12.5032 44.1282 12.259 43.6432 11.9757 43.181C11.9148 43.0631 11.8232 42.9637 11.7105 42.8933C11.5979 42.8229 11.4685 42.7842 11.3357 42.781C11.2357 42.781 10.8857 43.131 10.5557 43.651C10.2257 44.171 9.8957 44.651 9.5557 45.121C8.93776 46.1202 8.37363 47.1517 7.8657 48.211C7.80244 48.3437 7.70347 48.4562 7.57981 48.5357C7.45614 48.6152 7.31274 48.6586 7.16575 48.661H3.70572H2.01572C1.53572 48.661 1.47574 48.751 1.34574 49.071C1.10574 49.681 1.89571 50.671 2.62571 51.441C3.00025 51.8515 3.41205 52.2265 3.85575 52.561C4.0737 52.7269 4.30071 52.8804 4.53574 53.021L4.88572 53.231C5.12625 53.3551 5.34025 53.525 5.51572 53.731L5.5557 53.801Z" fill="#3C3C3B"/>
<path d="M155.706 0.451052C155.846 2.18105 155.916 3.91105 155.976 5.64105C156.036 7.37105 156.036 9.10105 156.066 10.8311C156.096 12.5611 156.066 14.2911 156.006 16.0211C155.946 17.7511 155.896 19.4811 155.756 21.2111C155.743 21.3526 155.675 21.4835 155.566 21.5752C155.458 21.6669 155.317 21.7122 155.176 21.7011C155.051 21.6895 154.934 21.6339 154.846 21.5442C154.758 21.4544 154.705 21.3364 154.696 21.2111C154.556 19.4811 154.496 17.7511 154.436 16.0211C154.376 14.2911 154.436 12.5611 154.376 10.8311C154.316 9.10105 154.376 7.37105 154.466 5.64105C154.556 3.91105 154.596 2.18105 154.736 0.451052C154.748 0.321941 154.811 0.202822 154.91 0.118854C155.009 0.0348859 155.136 -0.00735542 155.266 0.0010518C155.38 0.0124549 155.487 0.0637942 155.568 0.146072C155.648 0.22835 155.697 0.336318 155.706 0.451052Z" fill="#3C3C3B"/>
<path d="M145.706 9.42102C147.376 9.28102 149.046 9.21102 150.706 9.15102C152.366 9.09102 154.036 9.09102 155.706 9.06102C157.376 9.03102 159.036 9.06102 160.706 9.12102C162.376 9.18102 164.036 9.24102 165.706 9.38102C165.845 9.39376 165.975 9.46038 166.066 9.56678C166.158 9.67317 166.204 9.81098 166.196 9.95102C166.183 10.0765 166.127 10.1937 166.038 10.2829C165.948 10.3721 165.831 10.4279 165.706 10.441C164.046 10.581 162.376 10.641 160.706 10.691C159.036 10.741 157.366 10.691 155.706 10.751C154.046 10.811 152.376 10.751 150.706 10.661C149.036 10.571 147.376 10.531 145.706 10.391C145.573 10.391 145.446 10.3383 145.352 10.2446C145.258 10.1508 145.206 10.0236 145.206 9.89102C145.206 9.75842 145.258 9.63124 145.352 9.53747C145.446 9.4437 145.573 9.39102 145.706 9.39102V9.42102Z" fill="#3C3C3B"/>
<path d="M162.706 2.06103C161.426 3.67103 160.096 5.23103 158.706 6.79103C157.316 8.35103 155.986 9.86103 154.636 11.391C153.286 12.921 151.856 14.391 150.446 15.901C149.036 17.411 147.596 18.851 146.116 20.271C146.066 20.3203 146.008 20.3594 145.944 20.3861C145.879 20.4128 145.81 20.4265 145.741 20.4265C145.671 20.4265 145.602 20.4128 145.538 20.3861C145.473 20.3594 145.415 20.3203 145.366 20.271C145.279 20.1769 145.231 20.0538 145.231 19.926C145.231 19.7983 145.279 19.6751 145.366 19.581C146.636 17.971 147.976 16.411 149.366 14.861C150.756 13.311 152.096 11.801 153.466 10.271C154.836 8.74103 156.246 7.27103 157.676 5.79103C159.106 4.31103 160.526 2.85103 162.016 1.43103C162.061 1.38476 162.114 1.34797 162.173 1.32284C162.233 1.29771 162.296 1.28476 162.361 1.28476C162.425 1.28476 162.489 1.29771 162.548 1.32284C162.607 1.34797 162.661 1.38476 162.706 1.43103C162.78 1.51928 162.82 1.63081 162.82 1.74603C162.82 1.86125 162.78 1.97278 162.706 2.06103Z" fill="#3C3C3B"/>
<path d="M149.426 1.56102L152.886 6.18102C154.066 7.70102 155.216 9.23102 156.446 10.711C157.676 12.191 158.876 13.711 160.126 15.141L163.896 19.561C163.945 19.6103 163.984 19.6687 164.011 19.7331C164.037 19.7974 164.051 19.8664 164.051 19.936C164.051 20.0057 164.037 20.0746 164.011 20.139C163.984 20.2033 163.945 20.2618 163.896 20.311C163.847 20.3603 163.788 20.3993 163.724 20.426C163.659 20.4526 163.59 20.4664 163.521 20.4664C163.451 20.4664 163.382 20.4526 163.318 20.426C163.253 20.3993 163.195 20.3603 163.146 20.311C161.676 19.031 160.296 17.661 158.956 16.241C157.616 14.821 156.356 13.331 155.126 11.821C153.896 10.311 152.706 8.72102 151.706 7.10102C150.706 5.48102 149.576 3.83102 148.646 2.10102C148.585 1.98686 148.573 1.85347 148.61 1.72988C148.647 1.60629 148.732 1.50248 148.846 1.44102C148.942 1.39499 149.051 1.38181 149.156 1.40347C149.261 1.42514 149.355 1.48047 149.426 1.56102Z" fill="#3C3C3B"/>
<path d="M363.126 142.891C363.008 143.418 362.783 143.915 362.466 144.351C362.182 144.73 361.845 145.067 361.466 145.351C361.098 145.644 360.681 145.87 360.236 146.021C359.724 146.205 359.177 146.274 358.636 146.221C358.099 146.168 357.604 145.909 357.253 145.499C356.903 145.089 356.725 144.559 356.756 144.021C356.746 143.928 356.746 143.834 356.756 143.741C356.873 143.223 357.106 142.737 357.436 142.321C357.715 141.955 358.053 141.638 358.436 141.381C358.834 141.117 359.269 140.912 359.726 140.771C360.251 140.616 360.801 140.562 361.346 140.611C361.833 140.664 362.281 140.9 362.601 141.271C362.92 141.643 363.086 142.122 363.066 142.611L363.126 142.891Z" fill="#3C3C3B"/>
<path d="M350.796 151.141C350.839 151.568 350.784 151.999 350.636 152.401C350.516 152.716 350.336 153.005 350.106 153.251C349.872 153.499 349.585 153.69 349.266 153.811C348.87 153.959 348.442 154 348.026 153.931C347.469 153.856 346.954 153.596 346.563 153.194C346.171 152.791 345.926 152.269 345.866 151.711C345.819 151.291 345.884 150.867 346.056 150.481C346.188 150.175 346.39 149.905 346.646 149.691C346.908 149.466 347.215 149.299 347.546 149.201C347.96 149.076 348.397 149.042 348.826 149.101C349.332 149.179 349.799 149.42 350.155 149.789C350.511 150.157 350.736 150.632 350.796 151.141Z" fill="#3C3C3B"/>
<path d="M349.496 143.561C349.334 144.079 349.069 144.559 348.716 144.971C348.402 145.334 348.038 145.65 347.636 145.911C347.236 146.175 346.798 146.375 346.336 146.501C345.805 146.646 345.248 146.673 344.706 146.581C344.178 146.497 343.704 146.211 343.383 145.784C343.062 145.357 342.919 144.821 342.986 144.291C342.998 144.186 343.022 144.082 343.056 143.981C343.219 143.471 343.492 143.004 343.856 142.611C344.184 142.263 344.565 141.969 344.986 141.741C345.409 141.507 345.863 141.335 346.336 141.231C346.877 141.107 347.438 141.09 347.986 141.181C348.472 141.26 348.909 141.526 349.202 141.922C349.495 142.318 349.622 142.813 349.556 143.301C349.546 143.39 349.526 143.477 349.496 143.561Z" fill="#3C3C3B"/>
<path d="M229.266 123.321C229.406 124.591 229.466 125.851 229.526 127.121C229.586 128.391 229.586 129.651 229.616 130.921C229.646 132.191 229.616 133.451 229.556 134.721C229.496 135.991 229.446 137.251 229.306 138.521C229.291 138.655 229.223 138.777 229.118 138.861C229.014 138.946 228.88 138.985 228.746 138.971C228.631 138.956 228.525 138.904 228.444 138.823C228.362 138.741 228.31 138.635 228.296 138.521C228.166 137.251 228.106 135.981 228.056 134.721C228.006 133.461 228.006 132.191 227.996 130.921C227.986 129.651 227.996 128.391 228.086 127.121C228.176 125.851 228.206 124.591 228.346 123.321C228.351 123.26 228.368 123.201 228.397 123.146C228.425 123.092 228.465 123.044 228.512 123.006C228.56 122.968 228.615 122.939 228.674 122.923C228.733 122.907 228.795 122.903 228.856 122.911C228.961 122.922 229.059 122.969 229.133 123.043C229.208 123.118 229.255 123.216 229.266 123.321Z" fill="#3C3C3B"/>
<path d="M221.826 129.781C224.266 129.521 226.706 129.451 229.146 129.431C231.586 129.405 234.026 129.508 236.456 129.741C236.589 129.756 236.712 129.823 236.796 129.928C236.88 130.033 236.92 130.167 236.906 130.301C236.895 130.417 236.844 130.525 236.762 130.607C236.679 130.689 236.571 130.74 236.456 130.751C234.026 130.981 231.586 131.081 229.146 131.051C226.706 131.051 224.266 130.961 221.826 130.711C221.764 130.705 221.705 130.686 221.65 130.657C221.596 130.627 221.549 130.587 221.51 130.538C221.472 130.49 221.444 130.434 221.428 130.374C221.411 130.315 221.407 130.252 221.416 130.191C221.427 130.086 221.473 129.988 221.548 129.913C221.623 129.839 221.721 129.792 221.826 129.781Z" fill="#3C3C3B"/>
<path d="M234.306 124.561C233.396 125.761 232.436 126.921 231.466 128.061C230.496 129.201 229.466 130.321 228.466 131.451C227.466 132.581 226.466 133.661 225.396 134.741C224.326 135.821 223.286 136.881 222.176 137.901C222.086 137.999 221.96 138.057 221.827 138.063C221.694 138.069 221.564 138.021 221.466 137.931C221.368 137.841 221.309 137.715 221.304 137.582C221.298 137.449 221.346 137.319 221.436 137.221C222.346 136.021 223.306 134.871 224.286 133.731C225.266 132.591 226.286 131.481 227.286 130.361C228.286 129.241 229.286 128.161 230.376 127.091C231.466 126.021 232.496 124.961 233.606 123.941C233.692 123.855 233.809 123.807 233.931 123.807C234.053 123.807 234.17 123.855 234.256 123.941C234.345 124.017 234.4 124.124 234.409 124.241C234.418 124.357 234.381 124.472 234.306 124.561Z" fill="#3C3C3B"/>
<path d="M224.636 124.101L227.216 127.451C228.086 128.551 228.936 129.671 229.836 130.741C230.736 131.811 231.606 132.911 232.506 133.991L235.226 137.221C235.312 137.318 235.358 137.445 235.354 137.575C235.35 137.705 235.297 137.828 235.205 137.92C235.113 138.012 234.99 138.066 234.86 138.07C234.73 138.073 234.603 138.027 234.506 137.941C233.411 137.021 232.369 136.039 231.386 135.001C230.386 134.001 229.476 132.871 228.576 131.761C227.676 130.651 226.836 129.491 226.046 128.301C225.249 127.112 224.517 125.88 223.856 124.611C223.828 124.557 223.811 124.498 223.806 124.438C223.801 124.378 223.809 124.317 223.827 124.26C223.846 124.202 223.875 124.149 223.915 124.103C223.954 124.056 224.002 124.019 224.056 123.991C224.15 123.938 224.26 123.921 224.366 123.941C224.472 123.961 224.567 124.018 224.636 124.101Z" fill="#3C3C3B"/>
</svg>
