<svg width="106" height="65" viewBox="0 0 106 65" fill="none" xmlns="http://www.w3.org/2000/svg">
<path d="M98.6263 11.2542C98.7363 11.1242 98.6263 11.0242 98.8663 11.1942L99.4463 11.5042C99.8263 11.7242 100.196 11.9542 100.556 12.1942C101.267 12.6929 101.935 13.248 102.556 13.8542C103.201 14.4646 103.787 15.1342 104.306 15.8542C104.593 16.2647 104.816 16.7166 104.966 17.1942C105.127 17.7301 105.147 18.2981 105.026 18.8442C104.89 19.4562 104.535 19.9971 104.026 20.3642C103.55 20.6884 102.992 20.8721 102.416 20.8942L99.8563 20.9842L94.8563 21.1442L95.7063 20.5942C94.9736 22.2162 94.1558 23.7984 93.2564 25.3342C92.7964 26.0942 92.3263 26.8542 91.8263 27.5942C91.5697 27.9948 91.2927 28.382 90.9963 28.7542C90.5924 29.2629 90.0403 29.6334 89.4164 29.8142C88.7781 29.9339 88.1186 29.8609 87.522 29.6045C86.9254 29.348 86.4187 28.9197 86.0664 28.3742C85.5527 27.5802 85.1077 26.7438 84.7363 25.8742C83.9964 24.2523 83.3683 22.5818 82.8563 20.8742L84.0064 21.6542C82.2045 21.8179 80.39 21.781 78.5963 21.5442C77.6748 21.4428 76.7623 21.2723 75.8663 21.0342C75.2302 20.8851 74.6524 20.551 74.2057 20.0741C73.759 19.5972 73.4635 18.9988 73.3563 18.3542C73.2938 17.6338 73.5123 16.9171 73.9663 16.3542C74.2963 15.9142 74.5563 15.6242 74.8563 15.2742C75.4363 14.6042 76.0563 13.9642 76.6963 13.3442C77.3363 12.7242 78.0063 12.1242 78.6963 11.5542C79.3863 10.9842 80.1263 10.4742 80.8363 9.93418L80.4164 11.1642C79.8764 9.39084 79.413 7.60418 79.0264 5.80418L78.7463 4.45418C78.6366 3.95379 78.5665 3.44556 78.5364 2.93418C78.4886 2.21215 78.7134 1.49846 79.1664 0.934176C79.6598 0.402735 80.3338 0.074645 81.0564 0.0141763C82.1621 -0.0609636 83.2676 0.163593 84.2564 0.664176C85.1303 1.09928 85.9579 1.62196 86.7263 2.22418C88.2259 3.35404 89.6154 4.62301 90.8763 6.01418L89.5264 5.94418C90.3092 5.33161 91.1309 4.77043 91.9863 4.26418C92.3391 4.03744 92.6734 3.78333 92.9863 3.50418C93.3463 3.18418 93.7263 2.87418 94.1163 2.56418C94.9138 1.90263 95.8031 1.36031 96.7564 0.954176C97.8124 0.495847 98.9906 0.400885 100.106 0.684176C100.779 0.865666 101.353 1.3037 101.706 1.90418C102.002 2.46948 102.124 3.10974 102.056 3.74418C101.953 4.7785 101.69 5.79053 101.276 6.74418C100.88 7.64235 100.433 8.51711 99.9364 9.36418L99.2363 10.5942L98.8964 11.2042C98.8364 11.3042 98.7764 11.4442 98.7864 11.3742C98.7668 11.3441 98.7401 11.3192 98.7087 11.3018C98.6774 11.2844 98.6422 11.2749 98.6063 11.2742L98.6263 11.2542ZM97.3363 11.6242C97.3794 11.2349 97.4984 10.8578 97.6864 10.5142L98.0264 9.87418L98.7063 8.62418C99.1514 7.82163 99.5488 6.99353 99.8964 6.14418C100.225 5.34371 100.428 4.49691 100.496 3.63418C100.529 3.3186 100.474 3.00006 100.336 2.71418C100.262 2.60557 100.168 2.51258 100.058 2.44051C99.9483 2.36845 99.8253 2.31872 99.6963 2.29418C98.9497 2.14558 98.1752 2.24021 97.4863 2.56418C96.7018 2.93255 95.9717 3.40699 95.3164 3.97418C94.9764 4.26418 94.6264 4.56418 94.3164 4.88418C93.9233 5.22339 93.5091 5.53735 93.0763 5.82418C92.303 6.29509 91.5614 6.81621 90.8563 7.38418C90.6652 7.542 90.4224 7.62325 90.1748 7.61216C89.9272 7.60108 89.6926 7.49845 89.5164 7.32418C88.3196 6.0453 87.0036 4.88338 85.5863 3.85418C84.9112 3.35272 84.1916 2.91422 83.4364 2.54418C82.7995 2.223 82.0882 2.07799 81.3763 2.12418C81.1826 2.12533 80.9966 2.20045 80.8563 2.33418C80.7552 2.4948 80.7161 2.68679 80.7463 2.87418C80.7814 3.26824 80.845 3.65926 80.9364 4.04418L81.2163 5.35418C81.6063 7.09418 82.0563 8.82418 82.5863 10.5242C82.6537 10.7366 82.6543 10.9645 82.5881 11.1773C82.522 11.39 82.3922 11.5774 82.2163 11.7142H82.1664C81.5164 12.2242 80.8364 12.7142 80.1664 13.2342C79.4964 13.7542 78.9064 14.3342 78.3164 14.9242C77.7264 15.5142 77.1463 16.1142 76.5963 16.7442C76.3363 17.0442 76.0163 17.4042 75.8263 17.6542C75.6363 17.9042 75.6263 18.0242 75.6263 18.0742C75.6598 18.2332 75.744 18.3771 75.8663 18.4842C76.0756 18.6541 76.3171 18.78 76.5763 18.8542C77.3456 19.053 78.1274 19.2 78.9164 19.2942C80.5497 19.5204 82.2028 19.5673 83.8463 19.4342C84.0959 19.413 84.3451 19.4792 84.5513 19.6215C84.7574 19.7638 84.9076 19.9733 84.9763 20.2142C85.4457 21.8391 86.0271 23.4296 86.7163 24.9742C87.0214 25.7189 87.386 26.4379 87.8064 27.1242C87.9612 27.3541 88.1663 27.5456 88.4064 27.6842C88.563 27.7763 88.7467 27.8117 88.9264 27.7842C89.1864 27.7842 89.6864 27.1842 90.1764 26.4442C90.6664 25.7042 91.1263 25.0242 91.5763 24.3042C92.4747 22.8502 93.2927 21.3479 94.0264 19.8042C94.1063 19.6452 94.2272 19.5103 94.3766 19.4137C94.526 19.317 94.6985 19.2619 94.8763 19.2542L99.8763 19.1942H102.336C103.056 19.1942 103.266 19.0042 103.446 18.4742C103.786 17.4742 102.596 16.0342 101.536 14.9042C100.979 14.3335 100.377 13.8085 99.7363 13.3342C99.4163 13.0942 99.0763 12.8742 98.7363 12.6642L98.2163 12.3642C97.8861 12.2076 97.593 11.9826 97.3563 11.7042L97.3363 11.6242Z" fill="#3C3C3B"/>
<path d="M0.126312 10.7742C0.366274 10.2764 0.706763 9.83378 1.12631 9.47417C1.47812 9.15355 1.87589 8.88728 2.30637 8.68417C2.73269 8.47017 3.19278 8.33146 3.66635 8.27417C4.20599 8.19672 4.75611 8.24115 5.27634 8.40417C5.79417 8.56636 6.22958 8.92182 6.49216 9.3967C6.75474 9.87158 6.82433 10.4294 6.68637 10.9542C6.6624 11.0461 6.63224 11.1363 6.59628 11.2242C6.36383 11.718 6.02183 12.1524 5.59628 12.4942C5.22961 12.7963 4.818 13.0392 4.37631 13.2142C3.93025 13.3872 3.46254 13.4983 2.9863 13.5442C2.43311 13.5932 1.87567 13.532 1.34628 13.3642C0.872004 13.2117 0.474589 12.8827 0.236297 12.4452C-0.00199427 12.0077 -0.0628059 11.4953 0.0663756 11.0142C0.0819592 10.9331 0.101926 10.853 0.126312 10.7742Z" fill="#3C3C3B"/>
<path d="M13.9964 5.12418C14.0404 4.69516 14.1806 4.28158 14.4064 3.91418C14.59 3.62435 14.8317 3.37578 15.1164 3.18418C15.3939 2.98934 15.7118 2.85946 16.0464 2.80418C16.4714 2.73853 16.9062 2.78684 17.3064 2.94418C17.8381 3.13676 18.2906 3.50062 18.5929 3.97852C18.8952 4.45642 19.0301 5.02125 18.9763 5.58417C18.9351 6.00608 18.7834 6.40966 18.5364 6.75417C18.3417 7.03001 18.0848 7.25612 17.7864 7.41418C17.4767 7.5805 17.1365 7.68255 16.7864 7.71418C16.3524 7.75374 15.915 7.69565 15.5064 7.54418C15.0231 7.36365 14.6131 7.02851 14.34 6.59085C14.0669 6.1532 13.9461 5.63758 13.9964 5.12418Z" fill="#3C3C3B"/>
<path d="M13.7163 12.9042C13.9862 12.4291 14.3464 12.0113 14.7763 11.6742C15.1641 11.3844 15.5876 11.1458 16.0363 10.9642C16.4878 10.7895 16.9632 10.6849 17.4463 10.6542C17.9979 10.6209 18.5504 10.7061 19.0664 10.9042C19.5699 11.0978 19.979 11.4785 20.2082 11.9668C20.4375 12.4551 20.4691 13.0131 20.2963 13.5242C20.2624 13.6233 20.2223 13.7201 20.1764 13.8142C19.9106 14.2872 19.5413 14.694 19.0963 15.0042C18.7012 15.2793 18.2662 15.4918 17.8064 15.6342C17.3393 15.777 16.8546 15.8544 16.3663 15.8642C15.8061 15.8733 15.2494 15.7749 14.7263 15.5742C14.2587 15.3903 13.8806 15.0322 13.6717 14.5753C13.4628 14.1183 13.4394 13.5981 13.6063 13.1242C13.6396 13.0492 13.6763 12.9758 13.7163 12.9042Z" fill="#3C3C3B"/>
<path d="M91.4264 64.2942C91.2764 62.9542 91.2064 61.6242 91.1564 60.2942C91.1064 58.9642 91.0964 57.6242 91.0564 56.2942C91.0164 54.9642 91.0564 53.6242 91.1264 52.2942C91.1964 50.9642 91.2364 49.6242 91.3764 48.2942C91.3838 48.2244 91.4051 48.1568 91.4389 48.0953C91.4727 48.0338 91.5183 47.9796 91.5732 47.9359C91.628 47.8922 91.6911 47.8598 91.7586 47.8406C91.8261 47.8214 91.8967 47.8158 91.9663 47.8242C92.0859 47.8389 92.1971 47.8931 92.2823 47.9783C92.3674 48.0635 92.4217 48.1746 92.4364 48.2942C92.5764 49.6342 92.6364 50.9742 92.6864 52.2942C92.7364 53.6142 92.6864 54.9742 92.7564 56.2942C92.8264 57.6142 92.7564 58.9642 92.6564 60.2942C92.5564 61.6242 92.5364 62.9642 92.3864 64.2942C92.3815 64.3579 92.3637 64.4199 92.334 64.4764C92.3044 64.533 92.2635 64.5829 92.2139 64.6232C92.1643 64.6634 92.107 64.6931 92.0456 64.7105C91.9841 64.7279 91.9197 64.7325 91.8564 64.7242C91.7461 64.7132 91.643 64.6643 91.5646 64.586C91.4862 64.5076 91.4374 64.4045 91.4264 64.2942Z" fill="#3C3C3B"/>
<path d="M99.2663 57.4742C97.9863 57.6142 96.6964 57.6842 95.4064 57.7442C94.1164 57.8042 92.8364 57.8042 91.5464 57.8342C90.2564 57.8642 88.9764 57.8342 87.6864 57.7742C86.3964 57.7142 85.1163 57.6642 83.8263 57.5142C83.6873 57.4991 83.5599 57.4296 83.4719 57.321C83.3839 57.2123 83.3423 57.0733 83.3563 56.9342C83.3675 56.8133 83.4206 56.7001 83.5065 56.6143C83.5923 56.5284 83.7054 56.4753 83.8263 56.4642C85.1163 56.3142 86.4064 56.2542 87.6864 56.2042C88.9664 56.1542 90.2664 56.2042 91.5464 56.1442C92.8264 56.0842 94.1264 56.1442 95.4064 56.2342C96.6864 56.3242 97.9863 56.3642 99.2663 56.5042C99.3948 56.5192 99.512 56.5845 99.5925 56.6856C99.6731 56.7868 99.7103 56.9156 99.6963 57.0442C99.6853 57.1545 99.6365 57.2576 99.5581 57.336C99.4797 57.4143 99.3766 57.4632 99.2663 57.4742Z" fill="#3C3C3B"/>
<path d="M86.1063 62.9742C87.1063 61.7042 88.1063 60.4942 89.1063 59.2842C90.1063 58.0742 91.1963 56.9042 92.2363 55.7142C93.2763 54.5242 94.3863 53.3842 95.4763 52.2442C96.5663 51.1042 97.6963 49.9742 98.8663 48.9042C98.9156 48.8549 98.974 48.8158 99.0383 48.7891C99.1027 48.7624 99.1717 48.7487 99.2413 48.7487C99.311 48.7487 99.38 48.7624 99.4443 48.7891C99.5087 48.8158 99.5671 48.8549 99.6163 48.9042C99.698 48.9986 99.7429 49.1193 99.7429 49.2442C99.7429 49.369 99.698 49.4897 99.6163 49.5842C98.6163 50.8542 97.6163 52.0642 96.6163 53.2742C95.6163 54.4842 94.5263 55.6442 93.4663 56.8242C92.4063 58.0042 91.3163 59.1442 90.1963 60.2642C89.0763 61.3842 87.9664 62.5242 86.7964 63.5942C86.7046 63.6852 86.5805 63.7362 86.4513 63.7362C86.3221 63.7362 86.1981 63.6852 86.1063 63.5942C86.033 63.5075 85.9928 63.3977 85.9928 63.2842C85.9928 63.1707 86.033 63.0608 86.1063 62.9742Z" fill="#3C3C3B"/>
<path d="M96.3064 63.4642L93.5863 59.9342C92.6663 58.7742 91.7763 57.5942 90.8263 56.4542C89.8763 55.3142 88.9563 54.1642 88.0063 53.0342L85.1364 49.6242C85.0369 49.5247 84.981 49.3898 84.981 49.2492C84.981 49.1085 85.0369 48.9736 85.1364 48.8742C85.2358 48.7747 85.3707 48.7188 85.5114 48.7188C85.652 48.7188 85.7869 48.7747 85.8864 48.8742C87.0381 49.8509 88.1364 50.8891 89.1764 51.9842C90.1764 53.0842 91.1764 54.2342 92.1764 55.3942C93.1764 56.5542 94.0063 57.7942 94.8363 59.0542C95.6783 60.3086 96.4528 61.6071 97.1564 62.9442C97.1857 63.0006 97.2034 63.0622 97.2087 63.1255C97.214 63.1888 97.2067 63.2526 97.1871 63.3131C97.1676 63.3735 97.1363 63.4295 97.095 63.4778C97.0536 63.526 97.003 63.5656 96.9463 63.5942C96.8423 63.655 96.7196 63.6753 96.6016 63.6513C96.4835 63.6274 96.3784 63.5607 96.3064 63.4642Z" fill="#3C3C3B"/>
</svg>
