<svg width="123" height="66" viewBox="0 0 123 66" fill="none" xmlns="http://www.w3.org/2000/svg">
<path d="M10.29 31.8484C9.80538 31.9272 9.34114 32.1013 8.92407 32.3604C8.50701 32.6196 8.14532 32.9588 7.85999 33.3584C9.85999 34.7784 12.4801 34.9484 14.9401 35.0684C12.1866 35.7923 9.48393 36.6976 6.84998 37.7784C4.11998 38.8984 1.26 40.4084 0 43.0784C0.43 45.2184 7.00006 44.2384 9.94006 44.1384C13.1901 44.0284 15.29 43.5584 18.54 43.4484C15.91 44.8884 14.5401 45.5784 12.9501 47.4484C14.9404 47.9628 17.0431 47.8261 18.9501 47.0584C18.0321 47.8401 17.321 48.8362 16.88 49.9584C17.8767 50.2467 18.9447 50.1577 19.88 49.7084C27.2 47.2184 34.65 44.5184 40.65 39.6384C42.09 38.4684 43.5601 36.7884 43.0801 34.9984C42.6801 33.4584 41.02 32.6484 39.52 32.1384C30.0331 29.07 19.8359 28.9689 10.29 31.8484Z" fill="#F8DE53"/>
<path d="M17.37 33.6884C17.0504 33.7411 16.7445 33.8565 16.4698 34.0282C16.1952 34.1998 15.9574 34.4242 15.77 34.6884C17.1898 35.5059 18.8134 35.9014 20.4501 35.8284C18.6286 36.3045 16.8412 36.9025 15.1 37.6184C13.3 38.3584 11.4101 39.3484 10.5701 41.1184C10.8601 42.5284 15.19 41.8784 17.14 41.8184C19.29 41.7484 20.6701 41.4284 22.8201 41.3584C21.335 41.8177 20.0397 42.7479 19.13 44.0084C20.4556 44.3562 21.858 44.2685 23.13 43.7584C22.5205 44.2702 22.0495 44.927 21.76 45.6684C22.4236 45.8639 23.136 45.8069 23.76 45.5084C28.59 43.8584 33.51 42.0784 37.48 38.8584C38.42 38.0884 39.3901 36.9784 39.0801 35.7984C38.8101 34.7984 37.72 34.2384 36.73 33.8984C30.4483 31.8606 23.6944 31.7874 17.37 33.6884Z" fill="#FF8E62"/>
<g style="mix-blend-mode:multiply" opacity="0.54">
<path d="M23.0901 35.4784C22.9106 35.5078 22.7386 35.5724 22.5841 35.6685C22.4296 35.7646 22.2958 35.8903 22.1901 36.0384C22.994 36.5016 23.913 36.727 24.8401 36.6884C23.8182 36.9522 22.8159 37.2864 21.8401 37.6884C20.7651 38.0135 19.8492 38.7262 19.27 39.6884C19.43 40.4884 21.89 40.1284 22.99 40.0884C24.09 40.0484 24.9901 39.8684 26.2101 39.8284C25.3688 40.0932 24.6356 40.6229 24.12 41.3384C24.8702 41.5293 25.6616 41.4768 26.38 41.1884C26.0306 41.4786 25.7619 41.854 25.6 42.2784C25.9761 42.3851 26.3784 42.3495 26.73 42.1784C29.5268 41.3942 32.1614 40.1176 34.51 38.4084C35.05 37.9784 35.6 37.3484 35.42 36.6784C35.24 36.0084 34.6501 35.7984 34.0901 35.5984C30.5213 34.4382 26.6833 34.3964 23.0901 35.4784Z" fill="#FF8E62"/>
</g>
<path d="M48.53 11.8384C48.2266 10.7308 47.6678 9.70969 46.8984 8.85702C46.1291 8.00435 45.1706 7.34381 44.1 6.92839C42.1 6.15839 39.7401 6.27839 37.9701 5.05839C37.9701 4.59839 38.46 4.30839 38.9 4.14839C44.4071 2.04908 50.1726 0.703569 56.04 0.148388C61.9248 -0.389061 67.851 0.538522 73.29 2.84838C75.5879 4.10869 77.758 5.58896 79.77 7.26838L48.53 11.8384Z" fill="#F08BB8"/>
<path d="M56.2101 54.1184C56.391 55.2517 56.3043 56.4117 55.957 57.5055C55.6098 58.5994 55.0116 59.5969 54.2101 60.4184C52.7001 61.9484 50.51 62.8084 49.41 64.6484C49.56 65.0984 50.16 65.1384 50.63 65.0984C56.5068 64.7175 62.3056 63.547 67.87 61.6184C73.4496 59.6686 78.4614 56.3709 82.4601 52.0184C84.0271 49.9163 85.3899 47.6694 86.53 45.3084L56.2101 54.1184Z" fill="#F08BB8"/>
<path d="M38.3301 17.6584L28.89 20.3384C28.89 20.3384 30.75 45.4184 37.76 54.7584L48.0701 52.4784L38.3301 17.6584Z" fill="#7183DC"/>
<path d="M100.16 36.5284C84.559 48.775 65.2317 55.3045 45.4 55.0284C45.4 55.0284 42.81 52.2084 39.4 42.4084C35.99 32.6084 34.92 16.8684 34.92 16.8684C34.92 16.8684 57.39 4.29839 89.79 5.86839" fill="#F8DE53"/>
<path d="M100.16 36.5284C115.09 24.9284 122.16 12.1584 122.16 12.1584C111.72 8.54973 100.822 6.43873 89.7901 5.8884C89.7901 5.8884 88.26 13.8084 92.11 24.0284C95.96 34.2484 100.16 36.5284 100.16 36.5284Z" fill="#7183DC"/>
<g style="mix-blend-mode:multiply" opacity="0.83">
<path d="M87.3201 12.9384C87.2389 13.5582 87.0163 14.1511 86.6695 14.6713C86.3227 15.1915 85.861 15.625 85.3201 15.9384C84.2508 16.5508 83.094 16.9959 81.8901 17.2584L62.8901 22.3984C60.4271 22.9747 58.0309 23.8059 55.74 24.8784C53.43 25.9555 51.5116 27.7236 50.25 29.9384C49.1505 32.2894 48.8013 34.922 49.25 37.4784C49.699 40.0184 50.3681 42.5145 51.25 44.9384C51.5825 45.7861 51.7554 46.6879 51.7601 47.5984C51.7546 48.0542 51.6276 48.5003 51.392 48.8906C51.1564 49.2809 50.8209 49.6012 50.4201 49.8184C49.0101 50.4484 47.4901 49.2184 46.5401 48.0184C43.8674 44.4541 41.9793 40.3645 41 36.0184C40.0228 31.6711 39.3545 27.2601 39 22.8184C38.7893 21.639 38.8579 20.4266 39.2001 19.2784C39.8301 17.6384 41.4701 16.6484 43.0401 15.8684C46.7646 14.0162 50.6999 12.6227 54.7601 11.7184C58.1019 11.0322 61.4761 10.5149 64.87 10.1684L71.5101 9.37838C75.0501 8.95838 78.5101 8.97839 82.0301 8.86839C84.4201 8.70839 87.5201 10.1784 87.3201 12.9384Z" fill="#F8DE53"/>
</g>
<g style="mix-blend-mode:multiply">
<path d="M78.9575 37.273C83.1198 30.1614 80.729 21.0221 73.6175 16.8598C66.5059 12.6975 57.3666 15.0883 53.2043 22.1999C49.042 29.3114 51.4328 38.4508 58.5443 42.6131C65.6559 46.7754 74.7952 44.3845 78.9575 37.273Z" fill="#F8DE53"/>
</g>
<path d="M66.8198 42.0994C73.6152 41.6576 78.7656 35.7907 78.3238 28.9954C77.882 22.2001 72.0152 17.0495 65.2199 17.4913C58.4245 17.9332 53.2741 23.8 53.7159 30.5953C54.1577 37.3907 60.0245 42.5412 66.8198 42.0994Z" fill="#A7DDF7"/>
<path d="M75.5701 21.0584H75.64C75.7653 21.0676 75.8905 21.0398 76 20.9784C76.1189 20.9448 76.2262 20.8791 76.3101 20.7884C76.3951 20.7039 76.46 20.6014 76.5 20.4884C76.5607 20.3749 76.5885 20.2468 76.5801 20.1184V19.8684C76.5342 19.7144 76.4519 19.5738 76.3401 19.4584L76.15 19.3084C76.0052 19.2213 75.839 19.1763 75.6701 19.1784H75.6C75.4716 19.17 75.3435 19.1978 75.23 19.2584C75.117 19.2985 75.0146 19.3634 74.9301 19.4484C74.8429 19.5351 74.7777 19.6414 74.74 19.7584C74.6786 19.8679 74.6508 19.9931 74.6601 20.1184V20.3684C74.7045 20.5259 74.7869 20.6701 74.9 20.7884L75.0901 20.9284C75.2349 21.0155 75.4011 21.0605 75.5701 21.0584Z" fill="#3C3C3B"/>
<path d="M78.77 25.5884C78.9665 25.5204 79.137 25.3928 79.2576 25.2234C79.3782 25.0541 79.443 24.8513 79.443 24.6434C79.443 24.4355 79.3782 24.2327 79.2576 24.0633C79.137 23.894 78.9665 23.7664 78.77 23.6984C78.5362 23.7225 78.3195 23.8324 78.162 24.007C78.0045 24.1815 77.9174 24.4083 77.9174 24.6434C77.9174 24.8785 78.0045 25.1052 78.162 25.2798C78.3195 25.4544 78.5362 25.5643 78.77 25.5884Z" fill="#3C3C3B"/>
<path d="M79.61 29.4084C79.8593 29.4084 80.0984 29.3094 80.2747 29.1331C80.4509 28.9568 80.55 28.7177 80.55 28.4684C80.55 28.2191 80.4509 27.98 80.2747 27.8037C80.0984 27.6274 79.8593 27.5284 79.61 27.5284C79.3607 27.5284 79.1216 27.6274 78.9453 27.8037C78.769 27.98 78.67 28.2191 78.67 28.4684C78.67 28.7177 78.769 28.9568 78.9453 29.1331C79.1216 29.3094 79.3607 29.4084 79.61 29.4084Z" fill="#3C3C3B"/>
<path d="M78.8101 35.4184C79.0594 35.4184 79.2984 35.3194 79.4747 35.1431C79.651 34.9668 79.75 34.7277 79.75 34.4784C79.75 34.2291 79.651 33.99 79.4747 33.8137C79.2984 33.6374 79.0594 33.5384 78.8101 33.5384C78.5608 33.5384 78.3217 33.6374 78.1454 33.8137C77.9691 33.99 77.87 34.2291 77.87 34.4784C77.87 34.7277 77.9691 34.9668 78.1454 35.1431C78.3217 35.3194 78.5608 35.4184 78.8101 35.4184Z" fill="#3C3C3B"/>
<path d="M76.16 39.8784C76.4093 39.8784 76.6484 39.7794 76.8247 39.6031C77.001 39.4268 77.1 39.1877 77.1 38.9384C77.1 38.6891 77.001 38.45 76.8247 38.2737C76.6484 38.0974 76.4093 37.9984 76.16 37.9984C75.9107 37.9984 75.6716 38.0974 75.4954 38.2737C75.3191 38.45 75.2201 38.6891 75.2201 38.9384C75.2201 39.1877 75.3191 39.4268 75.4954 39.6031C75.6716 39.7794 75.9107 39.8784 76.16 39.8784Z" fill="#3C3C3B"/>
<path d="M72.04 43.0284C72.2893 43.0284 72.5284 42.9294 72.7047 42.7531C72.881 42.5768 72.98 42.3377 72.98 42.0884C72.98 41.8391 72.881 41.6 72.7047 41.4237C72.5284 41.2474 72.2893 41.1484 72.04 41.1484C71.7907 41.1484 71.5517 41.2474 71.3754 41.4237C71.1991 41.6 71.1 41.8391 71.1 42.0884C71.1 42.3377 71.1991 42.5768 71.3754 42.7531C71.5517 42.9294 71.7907 43.0284 72.04 43.0284Z" fill="#3C3C3B"/>
<path d="M59.25 42.3484C59.4465 42.2804 59.6169 42.1528 59.7375 41.9834C59.8582 41.8141 59.923 41.6113 59.923 41.4034C59.923 41.1955 59.8582 40.9927 59.7375 40.8233C59.6169 40.654 59.4465 40.5264 59.25 40.4584C59.0161 40.4825 58.7996 40.5924 58.6421 40.767C58.4846 40.9415 58.3973 41.1683 58.3973 41.4034C58.3973 41.6385 58.4846 41.8652 58.6421 42.0398C58.7996 42.2143 59.0161 42.3243 59.25 42.3484Z" fill="#3C3C3B"/>
<path d="M54.79 38.1984C55.0393 38.1984 55.2784 38.0994 55.4547 37.9231C55.631 37.7468 55.73 37.5077 55.73 37.2584C55.73 37.0091 55.631 36.77 55.4547 36.5937C55.2784 36.4174 55.0393 36.3184 54.79 36.3184C54.5407 36.3184 54.3017 36.4174 54.1254 36.5937C53.9491 36.77 53.85 37.0091 53.85 37.2584C53.85 37.5077 53.9491 37.7468 54.1254 37.9231C54.3017 38.0994 54.5407 38.1984 54.79 38.1984Z" fill="#3C3C3B"/>
<path d="M51.64 31.6884V31.7584C51.6403 31.8828 51.6677 32.0056 51.7201 32.1184C51.7614 32.2361 51.8298 32.3423 51.92 32.4284C52.0029 32.5154 52.106 32.5807 52.2201 32.6184C52.3301 32.6787 52.4549 32.7065 52.5801 32.6984H52.8401C52.994 32.6525 53.1346 32.5702 53.25 32.4584L53.4 32.2684C53.4831 32.1219 53.5278 31.9568 53.53 31.7884V31.7184C53.5393 31.5931 53.5115 31.4679 53.4501 31.3584C53.4128 31.2388 53.3436 31.1317 53.25 31.0484C53.1689 30.9592 53.0653 30.8936 52.9501 30.8584C52.8405 30.797 52.7153 30.7692 52.5901 30.7784H52.3401C52.184 30.8262 52.0405 30.9082 51.92 31.0184L51.78 31.2084C51.693 31.3532 51.648 31.5194 51.65 31.6884H51.64Z" fill="#3C3C3B"/>
<path d="M53.16 26.2484C53.4093 26.2484 53.6484 26.1494 53.8247 25.9731C54.001 25.7968 54.1 25.5577 54.1 25.3084C54.1 25.0591 54.001 24.82 53.8247 24.6437C53.6484 24.4674 53.4093 24.3684 53.16 24.3684C52.9107 24.3684 52.6716 24.4674 52.4954 24.6437C52.3191 24.82 52.2201 25.0591 52.2201 25.3084C52.2201 25.5577 52.3191 25.7968 52.4954 25.9731C52.6716 26.1494 52.9107 26.2484 53.16 26.2484Z" fill="#3C3C3B"/>
<path d="M56.49 21.0184C56.7393 21.0184 56.9784 20.9194 57.1547 20.7431C57.3309 20.5668 57.4301 20.3277 57.4301 20.0784C57.4301 19.8291 57.3309 19.59 57.1547 19.4137C56.9784 19.2374 56.7393 19.1384 56.49 19.1384C56.2407 19.1384 56.0016 19.2374 55.8253 19.4137C55.649 19.59 55.55 19.8291 55.55 20.0784C55.55 20.3277 55.649 20.5668 55.8253 20.7431C56.0016 20.9194 56.2407 21.0184 56.49 21.0184Z" fill="#3C3C3B"/>
<path d="M61.8101 17.9184C62.0594 17.9184 62.2984 17.8194 62.4747 17.6431C62.651 17.4668 62.75 17.2277 62.75 16.9784C62.75 16.7291 62.651 16.49 62.4747 16.3137C62.2984 16.1374 62.0594 16.0384 61.8101 16.0384C61.5608 16.0384 61.3217 16.1374 61.1454 16.3137C60.9691 16.49 60.87 16.7291 60.87 16.9784C60.87 17.2277 60.9691 17.4668 61.1454 17.6431C61.3217 17.8194 61.5608 17.9184 61.8101 17.9184Z" fill="#3C3C3B"/>
<path d="M69.16 17.4684H69.23C69.3576 17.468 69.4836 17.4407 69.6 17.3884C69.7122 17.3421 69.8142 17.2742 69.9 17.1883C69.9858 17.1025 70.0537 17.0006 70.1 16.8884C70.1523 16.772 70.1796 16.646 70.1801 16.5184V16.2684C70.1378 16.1129 70.055 15.9714 69.9401 15.8584L69.75 15.7084C69.6035 15.6253 69.4384 15.5806 69.27 15.5784H69.16C69.0348 15.5692 68.9096 15.597 68.8001 15.6584C68.6879 15.7046 68.5859 15.7726 68.5001 15.8584C68.4143 15.9442 68.3463 16.0462 68.3001 16.1584C68.243 16.2696 68.2155 16.3935 68.2201 16.5184V16.7684C68.2674 16.9269 68.3533 17.0712 68.4701 17.1884L68.66 17.3284C68.8006 17.4167 68.964 17.4619 69.13 17.4584L69.16 17.4684Z" fill="#3C3C3B"/>
<path d="M64.3101 43.1684V43.2484C64.3008 43.3736 64.3286 43.4988 64.39 43.6084C64.4252 43.7237 64.4909 43.8273 64.5801 43.9084C64.6662 43.9986 64.7723 44.0671 64.89 44.1084C65.0012 44.1654 65.1251 44.193 65.25 44.1884H65.5C65.6595 44.1487 65.8049 44.0656 65.92 43.9484L66.0601 43.7584C66.1484 43.6178 66.1936 43.4544 66.1901 43.2884V43.2084C66.1897 43.084 66.1624 42.9612 66.11 42.8484C66.0711 42.7324 66.0021 42.6289 65.91 42.5484C65.8259 42.4606 65.7234 42.3923 65.61 42.3484C65.4948 42.2925 65.3679 42.2651 65.24 42.2684H64.99C64.8335 42.3083 64.6915 42.3915 64.5801 42.5084L64.4301 42.6984C64.3486 42.8419 64.3039 43.0034 64.3 43.1684H64.3101Z" fill="#3C3C3B"/>
<mask id="mask0_2029_4" style="mask-type:luminance" maskUnits="userSpaceOnUse" x="53" y="17" width="26" height="26">
<path d="M66.8198 42.0994C73.6152 41.6576 78.7656 35.7907 78.3238 28.9954C77.882 22.2001 72.0152 17.0495 65.2199 17.4914C58.4245 17.9332 53.2741 23.8 53.7159 30.5954C54.1577 37.3907 60.0245 42.5412 66.8198 42.0994Z" fill="white"/>
</mask>
<g mask="url(#mask0_2029_4)">
<path d="M65.16 35.7084C64.46 36.0384 61.36 37.2784 59.35 42.5784C59.35 42.5784 59.35 42.7884 59.42 42.8184L60.29 43.6084C60.927 44.2283 61.6393 44.7658 62.41 45.2084C62.672 45.0326 62.9135 44.8279 63.13 44.5984L63.27 48.5184C65.4601 48.8899 67.7045 48.7842 69.85 48.2084L70.6801 47.9884C72.8694 47.5219 74.8974 46.4872 76.5601 44.9884L74.73 41.5184C75.037 41.6057 75.3519 41.6627 75.67 41.6884C76.1023 40.9192 76.4382 40.0997 76.67 39.2484L77.05 38.1284C77.05 38.1284 77.05 37.9084 76.99 37.8984C73.99 35.2684 70.55 34.1484 68.99 34.5584" fill="#7183DC"/>
<path d="M68.78 33.5884L69.11 34.8384C68.5436 35.2634 67.898 35.5707 67.2111 35.7425C66.5241 35.9142 65.8097 35.9468 65.11 35.8384L64.63 34.0184L68.63 33.0184L68.78 33.5884Z" fill="#BA8573"/>
<path d="M63.16 23.4384C56.95 24.9084 59.68 31.5084 59.68 31.5084C61.43 36.7384 66.81 34.8884 66.81 34.8884C73.64 33.3284 71.94 27.8884 71.94 27.8884C71.94 27.8884 71.29 22.6184 68.15 22.5284C66.4382 22.4343 64.7284 22.7462 63.16 23.4384Z" fill="#BA8573"/>
<path d="M64.9701 35.1984C65.5842 35.1725 66.1923 35.0683 66.78 34.8884C67.5189 34.7277 68.237 34.4827 68.92 34.1584C68.92 34.1584 68.75 34.6584 66.92 35.1584C65.4 35.5884 64.9701 35.1984 64.9701 35.1984Z" fill="#3C3C3B"/>
<path d="M65.16 29.8484C65.1215 29.7012 65.1431 29.5448 65.22 29.4135C65.2969 29.2822 65.4228 29.1868 65.57 29.1484C65.7172 29.1099 65.8737 29.1315 66.005 29.2084C66.1362 29.2853 66.2315 29.4112 66.27 29.5584C66.2762 29.5927 66.2694 29.6282 66.2509 29.6578C66.2324 29.6874 66.2036 29.709 66.17 29.7184C66.1526 29.7258 66.1338 29.7296 66.1149 29.7296C66.096 29.7296 66.0774 29.7258 66.06 29.7184C65.94 29.6384 65.81 29.5784 65.71 29.6284C65.61 29.6784 65.5 29.7384 65.44 29.8784C65.4232 29.9067 65.3964 29.9276 65.3648 29.9368C65.3333 29.9461 65.2994 29.9431 65.27 29.9284C65.2453 29.9293 65.2211 29.9219 65.2011 29.9074C65.1812 29.8929 65.1667 29.8721 65.16 29.8484Z" fill="#3C3C3B"/>
<path d="M65.7101 30.2784H65.24C65.1798 30.2882 65.124 30.3161 65.0801 30.3584C65.0677 30.3833 65.0613 30.4106 65.0613 30.4384C65.0613 30.4662 65.0677 30.4935 65.0801 30.5184C65.1077 30.5877 65.1525 30.6488 65.2102 30.696C65.2679 30.7433 65.3367 30.775 65.41 30.7884C65.5585 30.8183 65.7115 30.8183 65.86 30.7884C66.1511 30.7379 66.4179 30.594 66.62 30.3784C66.76 30.1884 66.6801 30.0084 66.4501 30.0084C66.2201 30.0084 65.9401 30.2484 65.7101 30.2784Z" fill="white"/>
<path d="M70.1601 26.3184C69.6137 25.5571 69.1855 24.7176 68.8901 23.8284C68.7484 23.5152 68.6899 23.1708 68.7201 22.8284C68.7347 22.7233 68.774 22.6232 68.8349 22.5362C68.8957 22.4493 68.9764 22.3781 69.0701 22.3284C69.2215 22.2944 69.3792 22.3015 69.5269 22.349C69.6746 22.3965 69.8069 22.4826 69.9101 22.5984C71.3628 23.9911 72.2496 25.8716 72.4001 27.8784C72.4601 28.3384 71.4001 27.5584 71.2201 27.4384C70.819 27.1134 70.4625 26.7368 70.1601 26.3184Z" fill="#3C3C3B"/>
<path d="M60.6401 28.7084C60.78 27.7803 60.78 26.8365 60.6401 25.9084C60.6304 25.5544 60.5269 25.2093 60.3401 24.9084C60.2797 24.8206 60.1991 24.7485 60.1052 24.698C60.0112 24.6476 59.9067 24.6203 59.8001 24.6184C59.4901 24.6184 59.3001 24.9484 59.1701 25.2384C58.4944 27.1308 58.5371 29.2054 59.2901 31.0684C59.4401 31.5084 60.0601 30.3284 60.1501 30.1484C60.3762 29.6921 60.541 29.2079 60.6401 28.7084Z" fill="#3C3C3B"/>
<path d="M69.98 24.1084C69.9434 24.4972 69.829 24.8746 69.6434 25.2182C69.4579 25.5618 69.205 25.8645 68.9 26.1084C68.2879 26.6002 67.5893 26.9733 66.8401 27.2084C65.8431 27.5742 64.7789 27.7209 63.7201 27.6384C63.198 27.5969 62.6893 27.4517 62.224 27.2113C61.7587 26.9709 61.346 26.6401 61.01 26.2384C60.93 26.1505 60.884 26.0371 60.88 25.9184C60.8816 25.8892 60.8899 25.8607 60.9043 25.8352C60.9187 25.8097 60.9387 25.7879 60.9629 25.7715C60.9871 25.755 61.0148 25.7444 61.0438 25.7404C61.0728 25.7364 61.1023 25.7391 61.13 25.7484C60.6391 25.5627 60.2169 25.2312 59.92 24.7984C59.63 24.3718 59.3853 23.9159 59.1901 23.4384C59.1559 23.3755 59.1381 23.305 59.1381 23.2334C59.1381 23.1618 59.1559 23.0913 59.1901 23.0284C59.2529 22.9589 59.3376 22.913 59.4301 22.8984C59.6648 22.8368 59.909 22.8199 60.15 22.8484C59.7939 22.4736 59.5968 21.9754 59.6 21.4584L61.52 21.6684C61.3812 21.4643 61.289 21.2321 61.25 20.9884C61.6253 21.1354 62.0353 21.1701 62.4301 21.0884C62.6334 21.0051 62.8277 20.9012 63.01 20.7784C63.3516 20.6044 63.7148 20.4766 64.0901 20.3984C65.4606 20.0238 66.9181 20.1296 68.2201 20.6984C68.8442 20.9977 69.3664 21.4739 69.722 22.0678C70.0776 22.6616 70.2509 23.3469 70.2201 24.0384" fill="#3C3C3B"/>
<path d="M60.16 30.9884C59.6537 30.732 59.085 30.6245 58.52 30.6784C58.326 30.7203 58.1426 30.8014 57.9809 30.9165C57.8193 31.0317 57.683 31.1787 57.5801 31.3484C57.5038 31.4714 57.4496 31.6067 57.42 31.7484C57.378 31.9716 57.3956 32.202 57.4711 32.4162C57.5466 32.6304 57.6772 32.8209 57.85 32.9684C58.0288 33.1085 58.2356 33.2087 58.4564 33.2621C58.6772 33.3156 58.9069 33.3212 59.13 33.2784C59.5782 33.1755 59.9773 32.9212 60.26 32.5584" fill="#BA8573"/>
<path d="M58.2101 31.5884C58.3486 31.5036 58.5056 31.4539 58.6676 31.4434C58.8297 31.433 58.9918 31.4621 59.14 31.5284C59.4121 31.6632 59.6383 31.8754 59.7901 32.1384C59.7985 32.154 59.8037 32.1712 59.8052 32.189C59.8068 32.2067 59.8047 32.2245 59.7991 32.2414C59.7935 32.2583 59.7845 32.2738 59.7726 32.287C59.7607 32.3003 59.7462 32.311 59.73 32.3184C59.7087 32.3307 59.6846 32.3372 59.6601 32.3372C59.6355 32.3372 59.6114 32.3307 59.5901 32.3184C59.3952 32.1627 59.1839 32.0286 58.9601 31.9184C58.7621 31.8093 58.533 31.7705 58.3101 31.8084C58.2936 31.8112 58.2765 31.8106 58.2603 31.8064C58.244 31.8023 58.2288 31.7949 58.2156 31.7845C58.2024 31.7741 58.1916 31.7611 58.1837 31.7463C58.1759 31.7314 58.1712 31.7151 58.1701 31.6984C58.1657 31.6782 58.1671 31.6571 58.1742 31.6376C58.1813 31.6182 58.1938 31.6011 58.2101 31.5884Z" fill="#3C3C3B"/>
<path d="M59.01 31.7084C58.9642 31.8787 58.9642 32.0581 59.01 32.2284C59.0438 32.4019 59.1156 32.5658 59.2201 32.7084C59.244 32.7343 59.2572 32.7682 59.2572 32.8034C59.2572 32.8386 59.244 32.8725 59.2201 32.8984C59.2022 32.91 59.1813 32.9162 59.16 32.9162C59.1387 32.9162 59.1178 32.91 59.1 32.8984C58.978 32.8438 58.8708 32.7608 58.7874 32.6565C58.7039 32.5521 58.6465 32.4294 58.62 32.2984C58.598 32.1664 58.6064 32.0312 58.6445 31.903C58.6827 31.7748 58.7496 31.6569 58.8401 31.5584C58.8643 31.5352 58.8965 31.5222 58.9301 31.5222C58.9636 31.5222 58.9958 31.5352 59.02 31.5584C59.0339 31.5937 59.0339 31.6331 59.02 31.6684L59.01 31.7084Z" fill="#3C3C3B"/>
<path d="M71.5901 27.7384C71.6798 27.5654 71.8026 27.4119 71.9518 27.2866C72.1009 27.1613 72.2734 27.0666 72.4592 27.0081C72.645 26.9496 72.8406 26.9283 73.0347 26.9455C73.2287 26.9627 73.4175 27.0181 73.5901 27.1084C73.7198 27.1756 73.8352 27.2673 73.9301 27.3784C74.0767 27.5512 74.1744 27.7601 74.2131 27.9834C74.2518 28.2067 74.23 28.4363 74.15 28.6484C74.0656 28.8663 73.9312 29.0613 73.7574 29.2177C73.5837 29.374 73.3756 29.4873 73.15 29.5484C72.7138 29.6886 72.2419 29.6673 71.8201 29.4884" fill="#BA8573"/>
<path d="M73.26 27.8584C73.0488 27.934 72.8692 28.0784 72.75 28.2684C72.6095 28.4749 72.4921 28.6962 72.4 28.9284C72.3811 28.9599 72.3514 28.9834 72.3164 28.9945C72.2813 29.0056 72.2436 29.0034 72.21 28.9884C72.1882 28.9771 72.1701 28.9598 72.1577 28.9385C72.1453 28.9173 72.1391 28.893 72.14 28.8684C72.1394 28.5654 72.23 28.2692 72.4 28.0184C72.496 27.8868 72.6227 27.7807 72.7691 27.7092C72.9155 27.6378 73.0771 27.6032 73.2399 27.6084C73.2571 27.6108 73.2737 27.6167 73.2885 27.6256C73.3034 27.6345 73.3164 27.6463 73.3266 27.6602C73.3369 27.6742 73.3442 27.6901 73.3482 27.707C73.3522 27.7238 73.3528 27.7413 73.3499 27.7584C73.3457 27.7791 73.3362 27.7983 73.3221 27.8141C73.3081 27.83 73.2901 27.8418 73.27 27.8484L73.26 27.8584Z" fill="#3C3C3B"/>
<path d="M72.7201 27.8984C72.8468 27.9377 72.9624 28.0061 73.0579 28.0981C73.1534 28.1902 73.226 28.3033 73.27 28.4284C73.3151 28.5544 73.3286 28.6896 73.3094 28.8221C73.2903 28.9545 73.239 29.0803 73.16 29.1884C73.1479 29.2014 73.1332 29.2118 73.1168 29.2189C73.1005 29.226 73.0829 29.2297 73.0651 29.2297C73.0472 29.2297 73.0296 29.226 73.0133 29.2189C72.997 29.2118 72.9823 29.2014 72.9701 29.1884C72.9621 29.1712 72.9579 29.1524 72.9579 29.1334C72.9579 29.1144 72.9621 29.0956 72.9701 29.0784C73.0066 28.9104 73.0066 28.7364 72.9701 28.5684C72.9218 28.397 72.8285 28.2417 72.7001 28.1184C72.6768 28.0942 72.6638 28.0619 72.6638 28.0284C72.6638 27.9949 72.6768 27.9626 72.7001 27.9384C72.7046 27.9241 72.7113 27.9106 72.7201 27.8984Z" fill="#3C3C3B"/>
<path d="M68.16 29.4484C68.0478 29.2334 68.0092 28.9875 68.05 28.7484C68.0659 28.6171 68.1103 28.4908 68.18 28.3784C68.2286 28.3071 68.2937 28.2488 68.3699 28.2084L68.56 28.1384C68.6983 28.1076 68.8424 28.1156 68.9765 28.1614C69.1106 28.2073 69.2295 28.2893 69.32 28.3984C69.451 28.5948 69.527 28.8227 69.54 29.0584C69.5428 29.0755 69.5422 29.093 69.5382 29.1099C69.5341 29.1267 69.5268 29.1426 69.5166 29.1566C69.5063 29.1705 69.4933 29.1823 69.4785 29.1912C69.4636 29.2001 69.4472 29.206 69.43 29.2084C69.4023 29.212 69.3743 29.2073 69.3493 29.1948C69.3244 29.1823 69.3037 29.1627 69.29 29.1384C69.227 28.9592 69.1431 28.788 69.04 28.6284C68.9861 28.5813 68.9212 28.5484 68.8514 28.5327C68.7815 28.5169 68.7089 28.5189 68.64 28.5384H68.54C68.4855 28.5962 68.4506 28.6697 68.44 28.7484C68.41 28.9305 68.41 29.1163 68.44 29.2984C68.4493 29.3289 68.4461 29.3618 68.4311 29.39C68.4161 29.4181 68.3904 29.4391 68.3599 29.4484C68.3294 29.4577 68.2965 29.4545 68.2684 29.4395C68.2403 29.4245 68.2193 29.3989 68.21 29.3684L68.16 29.4484Z" fill="#3C3C3B"/>
<path d="M63.35 30.5884C63.2952 30.412 63.2106 30.2463 63.1 30.0984C63.0499 30.036 62.9845 29.9877 62.9101 29.9584C62.9101 29.9584 62.91 29.9584 62.85 29.9584H62.74C62.6699 29.9739 62.6048 30.0068 62.5507 30.0539C62.4965 30.1011 62.4551 30.1611 62.4301 30.2284C62.4156 30.4148 62.4156 30.602 62.4301 30.7884C62.4302 30.8238 62.4167 30.858 62.3926 30.884C62.3685 30.91 62.3354 30.9259 62.3001 30.9284C62.2714 30.9288 62.2436 30.9189 62.2216 30.9006C62.1996 30.8822 62.1848 30.8566 62.1801 30.8284C62.0811 30.6127 62.0431 30.3741 62.0701 30.1384C62.1005 30.002 62.1679 29.8766 62.2649 29.7761C62.3619 29.6755 62.4848 29.6036 62.62 29.5684H62.8301C62.9141 29.5656 62.9973 29.5864 63.0701 29.6284C63.1869 29.694 63.2862 29.7865 63.36 29.8984C63.5049 30.0915 63.5823 30.327 63.5801 30.5684C63.5801 30.6002 63.5674 30.6307 63.5449 30.6532C63.5224 30.6757 63.4919 30.6884 63.4601 30.6884C63.4354 30.6893 63.4112 30.6819 63.3913 30.6674C63.3713 30.6529 63.3567 30.6321 63.35 30.6084V30.5884Z" fill="#3C3C3B"/>
</g>
<path d="M33.77 20.6984C34.082 23.4705 34.5393 26.2243 35.14 28.9484C35.73 31.6684 36.36 34.3984 37.02 37.1084C38.1594 42.5665 40.0014 47.8538 42.5 52.8384C42.5103 52.8573 42.5166 52.8782 42.5187 52.8996C42.5207 52.9211 42.5185 52.9428 42.512 52.9633C42.5054 52.9839 42.4948 53.0029 42.4807 53.0192C42.4666 53.0355 42.4494 53.0489 42.43 53.0584C42.4121 53.0706 42.3917 53.0787 42.3704 53.0823C42.349 53.0859 42.3271 53.0848 42.3061 53.0791C42.2852 53.0734 42.2659 53.0632 42.2493 53.0493C42.2327 53.0354 42.2193 53.018 42.2101 52.9984C40.8369 50.5493 39.7017 47.9742 38.8201 45.3084C37.9101 42.6584 37.18 39.9484 36.52 37.2284C35.86 34.5084 35.2701 31.7784 34.7101 29.0384C34.1174 26.2981 33.7032 23.5223 33.4701 20.7284C33.4687 20.7087 33.4712 20.6889 33.4775 20.6702C33.4838 20.6515 33.4938 20.6342 33.5068 20.6193C33.5198 20.6044 33.5356 20.5923 33.5533 20.5836C33.5711 20.5748 33.5903 20.5697 33.61 20.5684C33.6482 20.5655 33.6862 20.5774 33.7159 20.6015C33.7457 20.6257 33.765 20.6604 33.77 20.6984Z" fill="white"/>
<path d="M31.92 21.0884C33.2934 31.9167 36.0526 42.5236 40.13 52.6484C40.1472 52.6882 40.148 52.7332 40.1321 52.7735C40.1161 52.8138 40.0848 52.8461 40.045 52.8634C40.0053 52.8806 39.9602 52.8814 39.9199 52.8654C39.8796 52.8495 39.8473 52.8182 39.8301 52.7784C35.4912 42.7068 32.7222 32.0293 31.62 21.1184C31.6197 21.0792 31.6339 21.0413 31.6597 21.0118C31.6855 20.9823 31.7211 20.9633 31.76 20.9584C31.7982 20.9555 31.8362 20.9674 31.866 20.9915C31.8957 21.0157 31.915 21.0504 31.92 21.0884Z" fill="white"/>
<path d="M30.25 21.7584C30.8729 27.2379 31.8753 32.6677 33.25 38.0084C34.6139 43.3501 36.3413 48.5923 38.42 53.6984C38.4286 53.7181 38.4331 53.7393 38.4335 53.7607C38.4338 53.7822 38.43 53.8035 38.4221 53.8235C38.4142 53.8435 38.4024 53.8617 38.3875 53.8771C38.3725 53.8925 38.3548 53.9049 38.3351 53.9134C38.2953 53.9306 38.2503 53.9314 38.21 53.9154C38.1696 53.8995 38.1372 53.8682 38.12 53.8284C33.7104 43.6641 30.9491 32.862 29.9401 21.8284C29.9398 21.7892 29.9538 21.7513 29.9796 21.7218C30.0054 21.6923 30.0412 21.6733 30.0801 21.6684C30.1145 21.6611 30.1503 21.6661 30.1814 21.6826C30.2125 21.699 30.2367 21.7259 30.25 21.7584Z" fill="white"/>
<path d="M92.0601 6.6884C92.1779 9.15092 92.4584 11.6029 92.9 14.0284C93.3385 16.4445 93.9569 18.8244 94.75 21.1484C95.5249 23.4748 96.4777 25.7382 97.6 27.9184C98.7177 30.1125 99.9736 32.2334 101.36 34.2684C101.434 34.4025 101.458 34.5583 101.428 34.7084C101.398 34.8584 101.316 34.9931 101.196 35.0887C101.077 35.1842 100.927 35.2346 100.774 35.2309C100.621 35.2272 100.475 35.1696 100.36 35.0684C98.6603 33.1538 97.1717 31.0618 95.92 28.8284C93.3966 24.3452 91.757 19.4195 91.0901 14.3184C90.7538 11.7826 90.6867 9.21831 90.89 6.6684C90.8963 6.59081 90.9179 6.51525 90.9535 6.44604C90.9891 6.37684 91.0382 6.31536 91.0977 6.26517C91.1571 6.21497 91.226 6.17705 91.3002 6.15358C91.3744 6.1301 91.4525 6.12154 91.53 6.12839C91.6693 6.14643 91.7982 6.21201 91.8948 6.31404C91.9913 6.41607 92.0497 6.5483 92.0601 6.6884Z" fill="white"/>
<g style="mix-blend-mode:multiply" opacity="0.4">
<path d="M96.16 8.51839C95.5709 8.42327 94.9669 8.49964 94.42 8.73839C93.5 9.25839 93.42 10.5184 93.42 11.5684C93.556 14.4983 94.1813 17.3849 95.27 20.1084C95.71 21.2084 96.42 22.4284 97.6 22.5484C98.0741 22.551 98.5396 22.4214 98.9441 22.1741C99.3486 21.9268 99.6762 21.5716 99.89 21.1484C100.312 20.2999 100.67 19.4207 100.96 18.5184C102.27 15.4384 105.45 13.4584 108.73 12.7384C111.73 12.0584 114.83 12.3784 117.9 12.5684C111.16 10.0484 103.34 9.06839 96.16 8.51839Z" fill="#7183DC"/>
</g>
<g style="mix-blend-mode:multiply" opacity="0.86">
<path d="M42.8101 4.58839C52.1001 1.41839 62.45 0.638382 71.67 3.98838C62.1353 1.93106 52.2511 2.13656 42.8101 4.58839Z" fill="#F08BB8"/>
</g>
<g style="mix-blend-mode:multiply" opacity="0.86">
<path d="M54.67 63.0284C64.42 61.9584 74.13 58.2684 81.05 51.3184C73.2913 57.2274 64.2569 61.2378 54.67 63.0284Z" fill="#F08BB8"/>
</g>
</svg>
