<svg width="218" height="93" viewBox="0 0 218 93" fill="none" xmlns="http://www.w3.org/2000/svg">
<path d="M217.482 1.51758C216.61 3.4675 215.559 5.33218 214.342 7.08758C213.106 8.79775 211.732 10.4032 210.232 11.8876C207.227 14.781 203.85 17.2627 200.192 19.2676C196.558 21.2964 192.737 22.9708 188.782 24.2676C184.843 25.5654 180.807 26.5485 176.712 27.2076C168.516 28.5487 160.168 28.6868 151.932 27.6176C149.843 27.3687 147.779 26.9439 145.762 26.3476C143.722 25.7297 141.759 24.8808 139.912 23.8176C138.015 22.7424 136.322 21.3409 134.912 19.6776L134.402 19.0176L133.912 18.1876C133.792 17.8876 133.672 17.5776 133.572 17.2676C133.5 16.9378 133.45 16.6038 133.422 16.2676C133.356 14.9537 133.776 13.6613 134.602 12.6376C135.432 11.5875 136.643 10.9081 137.972 10.7476C138.645 10.6721 139.327 10.7402 139.972 10.9476C140.282 11.0492 140.583 11.1763 140.872 11.3276C141.126 11.4617 141.373 11.6085 141.612 11.7676C143.398 13.0068 144.949 14.5543 146.192 16.3376C147.456 18.0856 148.484 19.9919 149.252 22.0076C149.442 22.5076 149.612 23.0076 149.782 23.5376L150.192 25.0876C150.482 26.1032 150.713 27.135 150.882 28.1776C152.306 36.542 151.41 45.1366 148.292 53.0276C145.269 60.9361 140.481 68.0502 134.292 73.8276C128.043 79.4935 120.765 83.9067 112.852 86.8276C104.985 89.7587 96.7438 91.5632 88.372 92.1876C79.9887 92.9122 71.5451 92.4476 63.292 90.8076C54.9027 89.1381 46.9826 85.6458 40.092 80.5776C36.6463 77.9784 33.5625 74.9316 30.922 71.5176C28.2381 68.1074 26.0591 64.3287 24.452 60.2976C22.8296 56.2215 21.9067 51.9008 21.722 47.5176C21.5484 42.9567 22.6017 38.4328 24.772 34.4176C25.8521 32.3391 27.3026 30.4752 29.052 28.9176C29.963 28.1012 30.9705 27.3993 32.052 26.8276C33.4202 26.1181 34.9788 25.8624 36.502 26.0976C37.9791 26.3322 39.3552 26.9942 40.4605 28.0018C41.5658 29.0093 42.352 30.3184 42.722 31.7676C42.8905 32.4208 42.9745 33.093 42.972 33.7676C42.972 34.3376 42.972 34.9176 42.972 35.4876L42.812 37.1976C42.722 37.7576 42.612 38.3176 42.512 38.8676C41.5309 43.247 39.4681 47.3107 36.512 50.6876C33.6198 54.055 29.9506 56.667 25.822 58.2976C21.7622 59.7963 17.4458 60.476 13.122 60.2976C8.90024 60.1236 4.72639 59.3353 0.731989 57.9576C0.467972 57.8658 0.249315 57.676 0.12121 57.4276C-0.00689498 57.1792 -0.0346591 56.891 0.0436572 56.6227C0.121974 56.3543 0.300385 56.1263 0.542017 55.9858C0.783649 55.8453 1.07004 55.803 1.34199 55.8676C5.2124 56.8607 9.19643 57.3415 13.192 57.2976C17.0816 57.245 20.9236 56.4331 24.502 54.9076C27.9639 53.3665 30.9981 51.0051 33.342 48.0276C35.7274 45.1418 37.3503 41.7034 38.062 38.0276L38.262 36.6676L38.342 35.3176C38.3849 34.5315 38.338 33.743 38.202 32.9676C38.0524 32.4248 37.7491 31.9369 37.3286 31.5626C36.9081 31.1882 36.3884 30.9434 35.832 30.8576C35.314 30.7947 34.7892 30.8961 34.332 31.1476C33.61 31.5457 32.9386 32.0292 32.332 32.5876C31.0519 33.793 29.9896 35.2105 29.192 36.7776C27.4678 40.0142 26.6425 43.6538 26.802 47.3176C27.0078 51.1303 27.8144 54.8865 29.192 58.4476C32.0986 65.6599 36.9015 71.9519 43.092 76.6576C46.2152 79.0142 49.6052 80.9945 53.192 82.5576C56.8084 84.1141 60.561 85.3326 64.402 86.1976C72.2053 87.8836 80.2077 88.4593 88.172 87.9076C96.1616 87.4446 104.048 85.8694 111.602 83.2276C119.145 80.6092 126.115 76.5659 132.132 71.3176C138.081 66.0022 142.71 59.3736 145.652 51.9576C148.693 44.5739 149.654 36.4988 148.432 28.6076C148.293 27.626 148.092 26.6542 147.832 25.6976L147.472 24.2576C147.332 23.7976 147.192 23.3376 147.022 22.8776C146.357 21.0547 145.456 19.3267 144.342 17.7376C143.268 16.1677 141.912 14.8112 140.342 13.7376C140.152 13.6276 139.942 13.4676 139.772 13.3876C139.607 13.3041 139.436 13.2306 139.262 13.1676C138.94 13.0616 138.599 13.0241 138.262 13.0576C137.538 13.1358 136.874 13.4949 136.412 14.0576C135.933 14.6348 135.684 15.3682 135.712 16.1176C135.728 16.299 135.755 16.4793 135.792 16.6576L135.972 17.1876L136.262 17.6776L136.692 18.2376C137.926 19.7059 139.413 20.942 141.082 21.8876C142.776 22.8794 144.578 23.6745 146.452 24.2576C148.327 24.835 150.247 25.2531 152.192 25.5076C160.215 26.6181 168.359 26.517 176.352 25.2076C180.345 24.568 184.281 23.6116 188.122 22.3476C191.963 21.1074 195.671 19.4895 199.192 17.5176C202.695 15.5676 205.921 13.156 208.782 10.3476C210.185 8.94273 211.469 7.42422 212.622 5.80758C213.739 4.17979 214.709 2.45641 215.522 0.657582C215.578 0.526748 215.658 0.408179 215.76 0.308675C215.862 0.20917 215.982 0.130689 216.114 0.0777326C216.246 0.024776 216.387 -0.00161389 216.529 7.63466e-05C216.671 0.00176658 216.811 0.0315037 216.942 0.0875823C217.202 0.207656 217.404 0.424124 217.507 0.691083C217.61 0.958042 217.604 1.2545 217.492 1.51758H217.482Z" fill="white"/>
</svg>
