<svg width="242" height="135" viewBox="0 0 242 135" fill="none" xmlns="http://www.w3.org/2000/svg">
<path d="M186.18 15.8735C184.312 14.9706 182.671 13.6581 181.38 12.0335C180.898 11.5172 180.554 10.8878 180.38 10.2035C180.303 9.86181 180.325 9.50531 180.444 9.17584C180.563 8.84636 180.773 8.5576 181.05 8.34346C181.53 8.09419 182.071 7.98667 182.61 8.03347C184.61 8.03347 186.96 7.90347 188.99 7.89347C190.067 5.5664 191.345 3.33792 192.81 1.23346C193.114 0.68687 193.598 0.262729 194.18 0.0334673C194.475 -0.0234108 194.779 -0.00761224 195.067 0.0795031C195.354 0.166618 195.616 0.32243 195.83 0.533467C196.253 0.964051 196.592 1.46926 196.83 2.02347C197.719 3.81134 198.445 5.67552 199 7.59346C201.086 7.41993 203.186 7.53773 205.24 7.94346C205.817 8.02299 206.372 8.22042 206.87 8.52347C207.116 8.68042 207.316 8.90056 207.448 9.1609C207.579 9.42124 207.639 9.71223 207.62 10.0035C207.521 10.4328 207.307 10.827 207 11.1435C205.759 12.5965 204.39 13.9352 202.91 15.1435C202.4 15.5735 201.78 16.0335 201.23 16.4235C201.878 18.5264 202.412 20.6629 202.83 22.8235C202.937 23.1525 202.974 23.5002 202.94 23.8444C202.906 24.1887 202.8 24.5221 202.63 24.8235C202.423 25.041 202.167 25.2067 201.884 25.3075C201.601 25.4082 201.298 25.4411 201 25.4035C199.675 25.2478 198.423 24.7169 197.39 23.8735C195.897 22.8173 194.52 21.6073 193.28 20.2635C192.44 21.0035 190.97 21.7435 190.13 22.4935C188.7 23.7635 187.07 25.1235 185.13 25.1035C184.81 25.1222 184.49 25.068 184.193 24.945C183.897 24.822 183.633 24.6334 183.42 24.3935C183.245 24.0945 183.131 23.7638 183.085 23.4205C183.038 23.0772 183.061 22.7281 183.15 22.3935C183.56 20.0735 185.08 18.0335 186.18 15.8735Z" fill="#4ECFD6"/>
<path d="M175.43 87.2735C169.81 83.2518 163.441 80.3957 156.7 78.8735C153.371 78.1375 149.939 77.9919 146.56 78.4435C144.89 78.6786 143.248 79.084 141.66 79.6535C140.078 80.18 138.577 80.9238 137.2 81.8635C134.48 83.6935 132.28 86.4235 131.8 89.4735C131.596 90.9499 131.848 92.4534 132.522 93.7829C133.195 95.1125 134.259 96.2046 135.57 96.9135C136.193 97.2401 136.871 97.447 137.57 97.5235C138.21 97.5825 138.855 97.4865 139.45 97.2435C140.05 97.0008 140.584 96.6205 141.01 96.1335C141.451 95.622 141.79 95.0315 142.01 94.3935C142.461 93.0329 142.51 91.571 142.15 90.1835C141.986 89.5038 141.712 88.8554 141.34 88.2635C140.952 87.6542 140.488 87.0964 139.96 86.6035C137.554 84.5779 134.618 83.2835 131.5 82.8735C128.234 82.3072 124.906 82.1995 121.61 82.5535C115.012 83.2087 108.691 85.5429 103.25 89.3335C97.8429 93.1592 93.5275 98.3294 90.7301 104.333C87.8365 110.438 86.4313 117.141 86.63 123.893C86.6397 124.031 86.6209 124.168 86.575 124.298C86.5291 124.427 86.457 124.546 86.3632 124.646C86.2694 124.747 86.1558 124.827 86.0297 124.881C85.9036 124.936 85.7675 124.964 85.63 124.963C85.3834 124.979 85.1396 124.903 84.9457 124.75C84.7518 124.597 84.6216 124.377 84.5801 124.133C81.5801 109.863 88.0001 93.7735 100.45 85.2835C103.512 83.1501 106.849 81.4413 110.37 80.2035C113.883 78.9841 117.541 78.2342 121.25 77.9735C124.965 77.7177 128.698 77.9802 132.34 78.7535C134.206 79.1546 136.023 79.7547 137.76 80.5435C139.575 81.369 141.222 82.5216 142.62 83.9435C143.346 84.6826 143.969 85.5169 144.47 86.4235C145.003 87.3547 145.374 88.3688 145.57 89.4235C146.002 91.4794 145.825 93.6168 145.06 95.5735C144.657 96.5821 144.067 97.5051 143.32 98.2935C142.543 99.0927 141.591 99.7018 140.54 100.073C139.491 100.451 138.366 100.574 137.26 100.433C136.206 100.292 135.188 99.9531 134.26 99.4335C132.524 98.3861 131.134 96.8528 130.26 95.0235C129.328 93.1947 129.05 91.1024 129.47 89.0935C129.868 87.1822 130.715 85.393 131.94 83.8735C133.119 82.4058 134.519 81.1305 136.09 80.0935C137.64 79.0779 139.323 78.2804 141.09 77.7235C142.816 77.1302 144.599 76.718 146.41 76.4935C150.015 76.0811 153.664 76.2636 157.21 77.0335C160.714 77.7831 164.125 78.9166 167.38 80.4135C170.634 81.8841 173.761 83.6199 176.73 85.6035C176.844 85.6796 176.942 85.7775 177.019 85.8916C177.095 86.0057 177.149 86.1337 177.175 86.2684C177.202 86.403 177.202 86.5417 177.176 86.6764C177.149 86.8111 177.096 86.9392 177.02 87.0535C176.944 87.1677 176.846 87.2658 176.732 87.3422C176.618 87.4187 176.49 87.4718 176.355 87.4988C176.22 87.5257 176.082 87.5258 175.947 87.4992C175.812 87.4726 175.684 87.4196 175.57 87.3435L175.43 87.2735Z" fill="white"/>
<path d="M241.18 1.74347C229.85 15.1335 221.98 39.0635 223.26 56.5535C207.62 59.8235 191.79 63.4335 177.82 71.1735C163.85 78.9135 151.74 91.4435 148.11 106.993C147.61 109.103 146.97 111.623 144.92 112.303C143.83 112.547 142.694 112.481 141.64 112.113C126.48 108.383 111.03 104.783 95.42 105.453C79.81 106.123 63.78 111.593 53.51 123.363C51.86 125.243 50.21 127.363 47.79 128.023C45.79 128.533 43.79 127.923 41.79 127.383C27.56 123.503 10.79 124.103 0 134.173H241.18V1.74347Z" fill="white"/>
<path d="M210.03 103.573C210.03 104.743 209.44 105.693 208.71 105.693C207.98 105.693 207.38 104.743 207.38 103.573C207.38 102.403 207.97 101.453 208.7 101.453C209.43 101.453 210.03 102.403 210.03 103.573Z" fill="#3C3C3B"/>
<path d="M187.35 103.593C187.35 104.763 186.76 105.713 186.02 105.713C185.28 105.713 184.7 104.763 184.69 103.593C184.68 102.423 185.29 101.473 186.02 101.473C186.75 101.473 187.35 102.423 187.35 103.593Z" fill="#3C3C3B"/>
<path d="M216.26 107.743C216.26 108.793 214.97 109.653 213.38 109.653C211.79 109.653 210.5 108.803 210.5 107.753C210.5 106.703 211.79 105.843 213.38 105.843C214.97 105.843 216.26 106.643 216.26 107.743Z" fill="#F08BB8"/>
<path d="M184.88 108.023C184.88 109.083 183.59 109.933 182 109.933C180.41 109.933 179.12 109.083 179.12 108.033C179.12 106.983 180.41 106.123 182 106.123C183.59 106.123 184.88 106.973 184.88 108.023Z" fill="#F08BB8"/>
<path d="M200.47 103.473C200.626 103.869 200.679 104.298 200.623 104.72C200.567 105.142 200.404 105.542 200.15 105.883C199.889 106.242 199.546 106.531 199.149 106.728C198.752 106.925 198.313 107.023 197.87 107.013C197.447 107.015 197.029 106.926 196.643 106.75C196.258 106.575 195.916 106.319 195.639 105.998C195.363 105.678 195.159 105.302 195.042 104.895C194.924 104.489 194.897 104.062 194.96 103.643C194.97 103.579 194.992 103.517 195.026 103.462C195.061 103.406 195.106 103.358 195.159 103.321C195.213 103.284 195.273 103.257 195.337 103.244C195.4 103.231 195.466 103.231 195.53 103.243C195.626 103.26 195.715 103.305 195.784 103.373C195.854 103.441 195.901 103.528 195.92 103.623C196.031 104.124 196.285 104.583 196.65 104.943C196.981 105.254 197.416 105.429 197.87 105.433C198.089 105.441 198.308 105.405 198.512 105.326C198.717 105.246 198.903 105.127 199.06 104.973C199.4 104.625 199.593 104.16 199.6 103.673C199.597 103.614 199.607 103.555 199.628 103.499C199.649 103.443 199.681 103.392 199.722 103.349C199.763 103.306 199.812 103.272 199.867 103.249C199.922 103.225 199.981 103.213 200.04 103.213C200.129 103.209 200.218 103.232 200.295 103.278C200.371 103.324 200.432 103.392 200.47 103.473Z" fill="#3C3C3B"/>
</svg>
