<svg width="123" height="41" viewBox="0 0 123 41" fill="none" xmlns="http://www.w3.org/2000/svg">
<path d="M122.894 2.02519C123.135 3.9182 122.937 5.84137 122.314 7.64519C121.719 9.42067 120.877 11.1038 119.814 12.6452C118.746 14.162 117.53 15.5689 116.184 16.8452C114.851 18.1298 113.405 19.2912 111.864 20.3152C108.767 22.4013 105.233 23.7492 101.534 24.2552C97.794 24.72 93.9997 24.0986 90.6037 22.4652C88.8969 21.6464 87.3574 20.5172 86.0637 19.1352C84.7353 17.7366 83.8005 16.0116 83.3537 14.1352C83.1099 13.1658 83.1025 12.1521 83.3322 11.1793C83.5619 10.2065 84.022 9.30311 84.6737 8.54519C85.3672 7.78924 86.2573 7.24111 87.2445 6.96208C88.2316 6.68306 89.277 6.68413 90.2636 6.96519C91.2353 7.30895 92.0771 7.94462 92.6737 8.78519C93.253 9.57672 93.6896 10.4634 93.9637 11.4052C94.5715 13.2101 94.836 15.1129 94.7436 17.0152C94.5107 20.8057 93.1954 24.4498 90.9537 27.5152C88.7365 30.562 85.8927 33.0988 82.6136 34.9552C79.3788 36.8 75.9066 38.193 72.2936 39.0952C68.7056 40.0083 65.0394 40.5808 61.3437 40.8052C57.633 41.0799 53.9031 40.939 50.2237 40.3852C46.4869 39.8402 42.8751 38.6419 39.5537 36.8452C36.1952 34.9786 33.3296 32.3391 31.1937 29.1452C29.0115 25.947 27.7017 22.2347 27.3936 18.3752C27.3234 17.4098 27.3234 16.4406 27.3936 15.4752L27.4537 14.7452C27.4873 14.4691 27.5375 14.1953 27.6037 13.9252C27.7282 13.3959 27.9126 12.8826 28.1536 12.3952C28.6271 11.3674 29.3572 10.4789 30.2736 9.81519C30.8173 9.44106 31.4403 9.19803 32.0937 9.10519C32.7787 9.04011 33.4687 9.15741 34.0937 9.44519C34.3461 9.56393 34.5505 9.76492 34.6737 10.0152C35.2597 11.2625 35.508 12.6418 35.3936 14.0152C35.2833 15.3405 34.9057 16.6297 34.2836 17.8052C33.0529 20.0912 31.1168 21.9185 28.7636 23.0152C26.4849 24.0436 24.0028 24.5428 21.5036 24.4752C19.059 24.435 16.64 23.9715 14.3537 23.1052C9.78363 21.388 5.89743 18.2286 3.28364 14.1052C0.704492 10.0526 -0.407341 5.23831 0.133615 0.465188C0.142221 0.395338 0.164706 0.327901 0.199655 0.266813C0.234604 0.205725 0.281375 0.152209 0.337228 0.109389C0.393081 0.0665681 0.456906 0.0353003 0.524972 0.0174099C0.593039 -0.000480471 0.664023 -0.00463516 0.733713 0.00518834C0.867159 0.0226787 0.988861 0.0902826 1.07429 0.194282C1.15972 0.298281 1.20243 0.430886 1.19367 0.565188C0.948829 5.06228 2.21611 9.51194 4.79365 13.2052C7.28266 16.8891 10.9009 19.6651 15.1037 21.1152C19.2337 22.4952 23.9236 22.7552 27.7536 20.9352C29.615 20.0405 31.14 18.5718 32.1037 16.7452C32.5768 15.9001 32.8506 14.9581 32.9044 13.9911C32.9581 13.024 32.7903 12.0575 32.4136 11.1652L33.0136 11.7652C32.8099 11.6722 32.5874 11.6278 32.3636 11.6352C32.1126 11.682 31.8742 11.7807 31.6636 11.9252C31.1072 12.3428 30.6637 12.8928 30.3736 13.5252C30.213 13.8446 30.0857 14.1797 29.9936 14.5252C29.9507 14.6932 29.9173 14.8634 29.8936 15.0352V15.6652C29.8286 16.5139 29.8286 17.3664 29.8936 18.2152C30.1539 21.6557 31.3087 24.9685 33.2436 27.8252C35.1675 30.7045 37.731 33.1002 40.7337 34.8252C43.8059 36.5427 47.1574 37.7039 50.6336 38.2552C54.1517 38.8375 57.7239 39.0254 61.2836 38.8152C64.8596 38.6434 68.4117 38.1378 71.8936 37.3052C75.3488 36.4884 78.6738 35.1961 81.7736 33.4652C84.8829 31.772 87.5911 29.4288 89.7137 26.5952C91.8415 23.7843 93.1154 20.4204 93.3836 16.9052C93.4963 15.1643 93.2827 13.4176 92.7536 11.7552C92.2736 10.1152 91.3337 8.55519 89.8437 8.05519C89.0713 7.83482 88.2529 7.83312 87.4796 8.05028C86.7063 8.26744 86.0084 8.69494 85.4637 9.28519C84.9366 9.91546 84.5702 10.6642 84.3961 11.4671C84.2219 12.27 84.2452 13.1032 84.4637 13.8952C84.8424 15.6072 85.6747 17.1857 86.8736 18.4652C88.0728 19.7504 89.5005 20.8015 91.0837 21.5652C94.2892 23.1105 97.8718 23.7007 101.404 23.2652C104.95 22.7873 108.34 21.5046 111.314 19.5152C114.315 17.5592 116.915 15.0475 118.974 12.1152C120.974 9.19519 122.334 5.66519 121.844 2.22519C121.834 2.15624 121.838 2.08601 121.855 2.01853C121.872 1.95105 121.902 1.88763 121.944 1.83191C121.986 1.77618 122.038 1.72924 122.098 1.69377C122.158 1.6583 122.225 1.635 122.294 1.62519C122.363 1.61389 122.434 1.61668 122.502 1.63338C122.57 1.65008 122.633 1.68036 122.69 1.72238C122.746 1.76441 122.793 1.81732 122.828 1.87795C122.863 1.93858 122.885 2.00566 122.894 2.07519V2.02519Z" fill="#3C3C3B"/>
</svg>
