<svg width="126" height="62" viewBox="0 0 126 62" fill="none" xmlns="http://www.w3.org/2000/svg">
<mask id="mask0_72_603" style="mask-type:luminance" maskUnits="userSpaceOnUse" x="0" y="0" width="126" height="62">
<path d="M125.05 0H0V61.28H125.05V0Z" fill="white"/>
</mask>
<g mask="url(#mask0_72_603)">
<path d="M66.35 65.2C84.001 65.2 98.3099 50.891 98.3099 33.24C98.3099 15.589 84.001 1.28 66.35 1.28C48.699 1.28 34.39 15.589 34.39 33.24C34.39 50.891 48.699 65.2 66.35 65.2Z" fill="#4ECFD6"/>
<mask id="mask1_72_603" style="mask-type:luminance" maskUnits="userSpaceOnUse" x="34" y="1" width="65" height="65">
<path d="M66.35 65.2C84.001 65.2 98.3099 50.891 98.3099 33.24C98.3099 15.589 84.001 1.28 66.35 1.28C48.699 1.28 34.39 15.589 34.39 33.24C34.39 50.891 48.699 65.2 66.35 65.2Z" fill="white"/>
</mask>
<g mask="url(#mask1_72_603)">
<path d="M73.3699 14.97C73.2299 17.97 70.8599 20.33 68.4299 22.07C66.7499 23.29 64.7699 24.67 64.6799 26.75C64.5799 29.02 66.8099 30.63 68.8499 31.64C70.8899 32.65 73.2399 33.79 73.7899 36C74.0299 37 73.8599 38 74.0499 39C74.4699 41.12 76.53 42.6 78.64 43C80.7878 43.2564 82.9658 43.0379 85.02 42.36C88.279 41.5008 91.4902 40.4694 94.64 39.27C97.92 38.01 101.5 36.18 102.47 32.8C102.885 30.7507 102.697 28.625 101.93 26.68C100.833 23.1928 99.3503 19.8387 97.51 16.68C95.7096 13.4121 93.3389 10.4927 90.51 8.05999C86.75 4.99999 78.2999 0.179996 73.1899 1.58C66.5199 3.32 73.5599 10.97 73.3699 14.97Z" fill="#F08BB8"/>
<path d="M55.38 12.38C54.2 15.16 51.9499 17.32 50.1599 19.75C48.3699 22.18 46.9399 25.27 47.7999 28.16C48.5331 30.137 49.9058 31.8123 51.7 32.92C52.6072 33.4146 53.3586 34.1521 53.87 35.05C54.0172 35.4723 54.0789 35.9197 54.0514 36.3661C54.0239 36.8125 53.9078 37.2489 53.71 37.65C53.1644 38.8228 52.2303 39.7709 51.0658 40.334C49.9013 40.8971 48.578 41.0405 47.32 40.74C45.95 40.38 44.23 39.58 43.32 40.74C43.0914 41.1043 42.913 41.4979 42.7899 41.91C41.9799 43.91 39.61 44.68 37.52 45.22C36.3079 45.6513 35.0012 45.7446 33.74 45.49C30.74 44.59 30.32 40.57 30.59 37.49C30.9568 33.2937 31.5342 29.1184 32.32 24.98C32.8391 21.5021 33.9021 18.1275 35.47 14.98C38.009 10.443 42.2229 7.07978 47.21 5.61C48.84 5.13 52.8599 3.93999 54.3999 4.84999C56.6799 6.17999 56.21 10.42 55.38 12.38Z" fill="#F08BB8"/>
</g>
<g style="mix-blend-mode:multiply" opacity="0.35">
<path d="M64.5 13.01C64.77 15.92 63.24 18.66 61.96 21.29C59.9555 25.0949 58.7925 29.2863 58.5499 33.58C58.4433 35.725 58.7759 37.8691 59.5273 39.881C60.2788 41.8929 61.4332 43.7301 62.9199 45.28C65.7699 48.04 69.77 49.28 72.83 51.85C74.12 52.92 75.3199 54.61 74.6999 56.17C74.3524 56.8942 73.7949 57.4971 73.1 57.9C67.1 61.96 58.8099 60.77 52.6499 57.02C46.0563 53.0054 41.3259 46.5376 39.4978 39.0376C37.6697 31.5375 38.8932 23.6184 42.8999 17.02C45.2699 13.13 49.1099 9.51998 53.6799 8.54998C57.5899 7.68998 64.01 7.75999 64.5 13.01Z" fill="#4ECFD6"/>
</g>
<path d="M67.84 4.81999C67.9333 4.76834 68.0383 4.74124 68.145 4.74124C68.2517 4.74124 68.3566 4.76834 68.45 4.81999C68.5208 4.8948 68.5673 4.98929 68.5834 5.09103C68.5994 5.19278 68.5842 5.29701 68.5399 5.39C68.4796 5.58276 68.3736 5.75803 68.2308 5.90083C68.088 6.04364 67.9127 6.14972 67.72 6.20999C67.41 6.30999 67.2599 6.21 67.1499 6.14C67.0973 6.04695 67.0697 5.94187 67.0697 5.83499C67.0697 5.72811 67.0973 5.62305 67.1499 5.53C67.2035 5.36704 67.2935 5.21841 67.4131 5.0954C67.5326 4.97238 67.6786 4.8782 67.84 4.81999Z" fill="white"/>
<path d="M69.49 8.89C69.465 9.05787 69.3978 9.21662 69.2945 9.35132C69.1913 9.48603 69.0555 9.59225 68.8999 9.65999C68.7419 9.74606 68.5615 9.78165 68.3827 9.76198C68.2039 9.74231 68.0353 9.66833 67.8999 9.54999C67.7471 9.4394 67.639 9.2778 67.5949 9.09439C67.5509 8.91099 67.5739 8.71788 67.6599 8.54999L67.75 8.37C67.89 8.05 68.0099 7.96 68.1699 7.9C68.3937 7.85369 68.6267 7.88545 68.8299 7.98999L68.98 8.04999C69.153 8.10334 69.3005 8.21832 69.3945 8.37313C69.4885 8.52794 69.5225 8.71184 69.49 8.89Z" fill="white"/>
<path d="M64.7999 6.13999C64.9301 6.06173 65.082 6.02727 65.2332 6.04167C65.3843 6.05607 65.527 6.11857 65.64 6.22C65.7564 6.31557 65.8359 6.44859 65.8651 6.59632C65.8943 6.74406 65.8712 6.89735 65.7999 7.02999C65.7523 7.1301 65.681 7.21706 65.5922 7.28329C65.5033 7.34952 65.3995 7.39301 65.2899 7.40998L64.75 7.50999C64.45 7.55999 64.39 7.59999 64.36 7.55999C64.3475 7.41359 64.3475 7.26639 64.36 7.11999V6.66999C64.3814 6.55121 64.4332 6.43998 64.5103 6.34712C64.5873 6.25425 64.6871 6.18291 64.7999 6.13999Z" fill="white"/>
<path d="M50.2899 23.83C50.5265 23.6964 50.8016 23.647 51.0699 23.69C51.1963 23.7209 51.3149 23.7778 51.4182 23.857C51.5215 23.9362 51.6072 24.036 51.6699 24.15L51.74 24.25C51.8347 24.409 51.8705 24.5962 51.8413 24.779C51.8121 24.9618 51.7195 25.1285 51.5799 25.25C51.4445 25.3666 51.2803 25.4448 51.1045 25.4765C50.9286 25.5081 50.7475 25.4921 50.5799 25.43C50.4093 25.3793 50.2527 25.2897 50.1225 25.1683C49.9924 25.0468 49.8922 24.8968 49.8299 24.73C49.7689 24.5605 49.7717 24.3745 49.838 24.207C49.9043 24.0394 50.0294 23.9018 50.1899 23.82L50.2899 23.83Z" fill="white"/>
<path d="M51.3099 27.35C51.3688 27.4857 51.3993 27.6321 51.3993 27.78C51.3993 27.9279 51.3688 28.0743 51.3099 28.21C51.2454 28.3421 51.1499 28.4565 51.0315 28.5436C50.913 28.6307 50.7753 28.6878 50.63 28.71C50.4236 28.7559 50.2075 28.7242 50.023 28.6209C49.8386 28.5176 49.6987 28.3499 49.63 28.15C49.573 28.0147 49.5497 27.8677 49.5619 27.7214C49.574 27.5751 49.6214 27.434 49.6999 27.31C49.7808 27.1851 49.8864 27.078 50.0102 26.9955C50.1341 26.9129 50.2735 26.8566 50.4199 26.83C50.6051 26.8037 50.7939 26.8407 50.9554 26.9351C51.117 27.0295 51.2419 27.1757 51.3099 27.35Z" fill="white"/>
<path d="M53.92 27.11C54.0139 27.217 54.0839 27.3428 54.1253 27.4791C54.1667 27.6153 54.1785 27.7588 54.16 27.9C54.1375 28.0401 54.0812 28.1726 53.9958 28.2858C53.9104 28.3991 53.7985 28.4898 53.67 28.55C53.484 28.6481 53.2699 28.6788 53.0639 28.6368C52.8579 28.5949 52.6728 28.483 52.54 28.32C52.4432 28.2156 52.375 28.0882 52.3417 27.9498C52.3085 27.8115 52.3113 27.6669 52.35 27.53C52.3886 27.3934 52.4558 27.2666 52.5472 27.1579C52.6386 27.0493 52.7521 26.9614 52.8801 26.9C53.0511 26.81 53.2479 26.7818 53.4373 26.82C53.6268 26.8583 53.7972 26.9607 53.92 27.11Z" fill="white"/>
<path d="M56.74 14.75C56.7226 14.924 56.6647 15.0915 56.5709 15.2391C56.4772 15.3867 56.3501 15.5103 56.2 15.6C56.0797 15.6828 55.9398 15.7328 55.7942 15.7451C55.6487 15.7574 55.5025 15.7315 55.37 15.67H55.22C55.0429 15.6004 54.8974 15.4684 54.8108 15.299C54.7243 15.1295 54.7027 14.9343 54.75 14.75C54.7843 14.6 54.8501 14.4591 54.9433 14.3366C55.0364 14.2142 55.1546 14.1131 55.2899 14.04C55.5385 13.949 55.8114 13.949 56.06 14.04H56.1599C56.3223 14.0759 56.4679 14.1655 56.5731 14.2944C56.6784 14.4232 56.7372 14.5837 56.74 14.75Z" fill="white"/>
<path d="M55.58 16.69C55.9071 16.7763 56.1916 16.979 56.38 17.26C56.465 17.3862 56.5215 17.5294 56.5457 17.6796C56.5699 17.8298 56.5611 17.9835 56.52 18.13C56.4967 18.237 56.4519 18.3381 56.3883 18.4273C56.3248 18.5164 56.2439 18.5918 56.1504 18.6488C56.057 18.7058 55.9529 18.7433 55.8445 18.759C55.7362 18.7747 55.6258 18.7682 55.52 18.74C55.358 18.7099 55.2051 18.6428 55.0733 18.544C54.9414 18.4451 54.8343 18.3171 54.76 18.17C54.677 18.0368 54.6265 17.8859 54.6126 17.7295C54.5987 17.5732 54.6217 17.4158 54.68 17.27L54.76 17.05C54.8225 16.8947 54.9433 16.77 55.0966 16.7027C55.2499 16.6354 55.4234 16.6308 55.58 16.69Z" fill="white"/>
<path d="M70.86 17.61C70.8352 17.8066 70.7525 17.9914 70.6226 18.1409C70.4926 18.2905 70.3212 18.3981 70.13 18.45C69.942 18.5114 69.7399 18.5157 69.5494 18.4623C69.359 18.4089 69.1886 18.3002 69.0599 18.15C68.9747 18.0359 68.9287 17.8974 68.9287 17.755C68.9287 17.6126 68.9747 17.4741 69.0599 17.36L69.3099 17.02C69.4999 16.76 69.5399 16.69 69.6499 16.67C69.7599 16.65 69.8399 16.67 70.1499 16.83L70.48 16.96C70.6029 17.0155 70.7056 17.1079 70.7737 17.2244C70.8418 17.3408 70.8719 17.4756 70.86 17.61Z" fill="white"/>
<path d="M67.3499 18.99C67.4818 18.9796 67.6142 18.9995 67.7372 19.048C67.8603 19.0965 67.9706 19.1724 68.0599 19.27C68.1441 19.3694 68.1998 19.4899 68.2209 19.6184C68.242 19.747 68.2278 19.8789 68.1799 20C68.1179 20.1976 67.9962 20.371 67.8314 20.4964C67.6666 20.6218 67.4669 20.6929 67.26 20.7C67.1307 20.7136 67.0001 20.692 66.8821 20.6374C66.7642 20.5828 66.6632 20.4973 66.5899 20.39C66.5203 20.2775 66.4769 20.1507 66.4631 20.0191C66.4492 19.8876 66.4653 19.7545 66.51 19.63C66.5647 19.4484 66.6753 19.2888 66.8261 19.1738C66.977 19.0589 67.1603 18.9946 67.3499 18.99Z" fill="white"/>
<path d="M70.73 34.81C70.8427 34.7513 70.9679 34.7206 71.095 34.7206C71.2221 34.7206 71.3473 34.7513 71.46 34.81C71.5691 34.8692 71.6596 34.9577 71.7214 35.0654C71.7832 35.1731 71.8139 35.2959 71.8099 35.42C71.8287 35.6262 71.783 35.8332 71.6791 36.0123C71.5752 36.1914 71.4183 36.3339 71.23 36.42C71.125 36.4856 71.0038 36.5204 70.88 36.5204C70.7562 36.5204 70.6348 36.4856 70.5299 36.42C70.4249 36.3472 70.3391 36.2501 70.2799 36.1369C70.2207 36.0236 70.1898 35.8978 70.1899 35.77C70.166 35.5733 70.2055 35.3741 70.3026 35.2014C70.3997 35.0288 70.5494 34.8916 70.73 34.81Z" fill="white"/>
<path d="M99.21 38.17C101.34 39.3242 103.322 40.7347 105.11 42.37C105.56 42.78 106 43.19 106.42 43.63C106.901 44.0867 107.336 44.589 107.72 45.13C107.99 45.5229 108.163 45.9746 108.224 46.4476C108.285 46.9207 108.232 47.4014 108.07 47.85C107.705 48.671 107.045 49.3245 106.22 49.68C105.567 49.9861 104.867 50.1789 104.15 50.25C103.504 50.2888 102.856 50.2888 102.21 50.25C100.984 50.202 99.7612 50.0784 98.5499 49.88C96.1701 49.4735 93.8285 48.868 91.5499 48.07C89.2799 47.29 87.0699 46.42 84.9099 45.49C82.7499 44.56 80.5799 43.64 78.4299 42.67C74.1433 40.73 69.9066 38.6733 65.72 36.5C57.3769 32.1082 49.2874 27.2505 41.49 21.95C39.55 20.61 37.62 19.26 35.72 17.87L32.88 15.77C31.7799 15.0482 30.8067 14.1494 30 13.11C29.4965 12.4214 29.2203 11.5929 29.21 10.74C29.219 10.2685 29.3269 9.80408 29.5267 9.37689C29.7266 8.94969 30.0139 8.56918 30.37 8.25999C31.041 7.73854 31.8605 7.44433 32.71 7.41999C33.4139 7.37983 34.1197 7.45413 34.7999 7.64C35.4564 7.80365 36.091 8.04537 36.6899 8.36C37.2299 8.65 37.7599 8.94998 38.2799 9.26998C39.33 9.91769 40.3326 10.6395 41.2799 11.43C41.4771 11.6004 41.6 11.841 41.6224 12.1006C41.6448 12.3602 41.5649 12.6183 41.3999 12.82C41.2351 13.0104 41.0047 13.1316 40.7544 13.1594C40.5041 13.1872 40.2525 13.1196 40.0499 12.97C39.1515 12.2932 38.2058 11.6816 37.22 11.14C36.73 10.86 36.22 10.6 35.73 10.36C35.2823 10.1408 34.8084 9.97947 34.3199 9.87999C33.9383 9.76446 33.5374 9.72618 33.1407 9.76739C32.7441 9.8086 32.3598 9.92847 32.01 10.12C31.8574 10.29 31.7751 10.5116 31.7799 10.74C31.8212 11.0633 31.9529 11.3683 32.1599 11.62C32.4549 11.9896 32.7903 12.325 33.1599 12.62C33.5399 12.93 34.03 13.26 34.51 13.62L37.37 15.62C39.28 16.95 41.2199 18.24 43.1699 19.52C50.9599 24.63 58.98 29.39 67.23 33.7C75.44 38.0716 83.8863 41.9843 92.5299 45.42C94.6521 46.2199 96.836 46.8453 99.0599 47.29C100.158 47.4938 101.266 47.634 102.38 47.71C102.903 47.7394 103.427 47.7394 103.95 47.71C104.378 47.7058 104.802 47.6384 105.21 47.51C105.484 47.4252 105.721 47.2486 105.88 47.01C105.95 46.89 105.97 46.72 105.78 46.39C105.484 45.9636 105.149 45.5652 104.78 45.2C104.41 44.78 104.02 44.38 103.61 43.98C101.995 42.3863 100.207 40.9776 98.2799 39.78C98.073 39.6593 97.9226 39.4614 97.8617 39.2298C97.8007 38.9982 97.8343 38.7519 97.955 38.545C98.0756 38.3381 98.2735 38.1877 98.5051 38.1267C98.7367 38.0658 98.9831 38.0993 99.1899 38.22L99.21 38.17Z" fill="#3C3C3B"/>
<path d="M96.21 50.98C98.4508 52.3138 100.508 53.9342 102.33 55.8C102.79 56.28 103.22 56.72 103.67 57.27C104.182 57.8537 104.573 58.5336 104.82 59.27C104.958 59.7211 105.004 60.1955 104.954 60.6646C104.904 61.1338 104.76 61.588 104.53 62C104.083 62.7592 103.417 63.3658 102.62 63.74C101.872 64.0959 101.048 64.2641 100.22 64.23C99.4806 64.1989 98.7481 64.0746 98.0399 63.86C96.7099 63.45 95.5999 62.98 94.3999 62.53C92.0199 61.65 89.6799 60.71 87.3199 59.77C77.9495 55.9183 68.787 51.5791 59.87 46.77C50.98 41.8915 42.3515 36.5508 34.02 30.77C31.96 29.29 29.89 27.84 27.86 26.32C26.86 25.54 25.86 24.88 24.77 23.98C24.184 23.4973 23.6719 22.9312 23.25 22.3C22.756 21.5728 22.4817 20.7188 22.46 19.84C22.4339 18.8849 22.7575 17.9533 23.37 17.22C23.7046 16.8577 24.1141 16.5726 24.5699 16.3843C25.0258 16.1961 25.5172 16.1093 26.01 16.13C26.7396 16.1672 27.4617 16.2949 28.1599 16.51C28.7899 16.68 29.4199 16.87 30.0399 17.07C32.5075 17.9032 34.8595 19.0456 37.0399 20.47C37.2073 20.6257 37.3163 20.8341 37.3488 21.0604C37.3812 21.2867 37.3351 21.5172 37.2181 21.7137C37.1012 21.9101 36.9206 22.0606 36.7062 22.14C36.4918 22.2194 36.2566 22.2229 36.0399 22.15C33.9311 20.9324 31.6855 19.969 29.35 19.28C28.77 19.1 28.18 18.95 27.59 18.82C27.0784 18.6763 26.5512 18.5957 26.02 18.58C25.59 18.58 25.4099 18.7 25.2799 18.87C25.1 19.1337 25.0186 19.4523 25.0499 19.77C25.1257 20.2106 25.2931 20.6305 25.5411 21.0026C25.7892 21.3746 26.1124 21.6905 26.49 21.93C27.36 22.62 28.49 23.36 29.49 24.08C31.49 25.54 33.6199 26.94 35.6899 28.35C39.8699 31.11 44.07 33.86 48.36 36.47C52.65 39.08 57 41.55 61.36 43.97C65.72 46.39 70.21 48.68 74.71 50.89C79.21 53.1 83.79 55.15 88.38 57.18C90.69 58.18 92.99 59.18 95.38 60.09C97.77 61 100.12 62.26 101.61 61.53C101.97 61.3818 102.28 61.1316 102.5 60.81C102.587 60.6751 102.643 60.5231 102.666 60.3642C102.688 60.2054 102.676 60.0436 102.63 59.89C102.21 58.8928 101.583 57.9963 100.79 57.26C99.1441 55.4583 97.2914 53.8572 95.27 52.49C95.0671 52.3574 94.9252 52.1496 94.8755 51.9124C94.8258 51.6751 94.8724 51.4279 95.005 51.225C95.1376 51.0221 95.3453 50.8802 95.5825 50.8305C95.8198 50.7808 96.0671 50.8274 96.27 50.96L96.21 50.98Z" fill="#3C3C3B"/>
</g>
</svg>
