<svg width="50" height="50" viewBox="0 0 50 50" fill="none" xmlns="http://www.w3.org/2000/svg">
<g clip-path="url(#clip0_70_222)">
<path d="M14.39 29.6208V33.8299C15.4989 33.9429 16.6178 33.9093 17.7179 33.73V33.3985C17.7179 31.7013 18.2038 30.2208 19.0447 29.0116C17.5759 29.66 15.9543 29.8623 14.3899 29.6208H14.39Z" fill="#A2F9F9"/>
<path d="M20.3931 35.8613C20.7483 36.3664 20.9306 36.9908 20.8646 37.6469C20.8059 38.2298 20.5602 38.749 20.1917 39.1548V43.8233H21.6859C21.8038 42.7967 22.6824 41.9984 23.75 41.9984C24.1299 41.9977 24.5026 42.1011 24.8278 42.2974C25.153 42.4936 25.4183 42.7752 25.5948 43.1115C25.7713 42.7751 26.0367 42.4935 26.362 42.2973C26.6873 42.1011 27.0601 41.9977 27.44 41.9984C28.5081 41.9984 29.3867 42.7967 29.5044 43.8233H35.5558V33.3008C35.5558 30.5284 34.2599 28.365 32.2374 27.015C30.9255 27.6482 29.4542 28.0045 27.8986 28.0045H24.9609C23.4643 28.0045 22.0449 27.7466 20.7707 27.2419C18.9008 28.6271 17.7179 30.7492 17.7179 33.3985V34.6372L17.9663 34.6623L17.9711 34.6626L17.8987 34.4705C17.7412 34.0539 17.9514 33.5884 18.3683 33.4309L18.5739 33.3531C18.673 33.3156 18.7786 33.2981 18.8845 33.3015C18.9904 33.3048 19.0946 33.329 19.1912 33.3727C19.2878 33.4163 19.3748 33.4786 19.4473 33.5558C19.5198 33.6331 19.5764 33.7239 19.6138 33.8231L20.3931 35.8613Z" fill="#48E5E1"/>
<path d="M17.9663 34.6623L17.9711 34.6626L17.8983 34.4705C17.7411 34.0539 17.9513 33.588 18.3683 33.4309L18.5739 33.3531C18.673 33.3156 18.7785 33.298 18.8843 33.3014C18.9902 33.3047 19.0944 33.3288 19.191 33.3725C19.2875 33.4161 19.3745 33.4783 19.447 33.5555C19.5195 33.6328 19.576 33.7236 19.6134 33.8227L20.3931 35.8613C20.4833 35.9896 20.5622 36.1255 20.6288 36.2675C20.6586 36.2751 20.6891 36.2812 20.7189 36.2885V33.3985C20.7189 31.1135 21.5997 29.2221 23.0413 27.8561C22.2463 27.7306 21.4856 27.525 20.7707 27.2419C18.9008 28.6271 17.7179 30.7492 17.7179 33.3985V34.6372L17.9663 34.6623Z" fill="#41CECA"/>
<path d="M25.3614 47.2081V44.0579C25.3614 43.7165 25.4464 43.3949 25.5948 43.1115C25.4183 42.7752 25.153 42.4936 24.8278 42.2973C24.5026 42.1011 24.1299 41.9977 23.75 41.9983C22.6824 41.9983 21.8038 42.7968 21.6859 43.8237H20.1917V48.6429C20.1917 48.9866 19.9079 49.2677 19.5612 49.2677H23.8919V49.2608C24.2464 49.2375 24.589 49.1238 24.8871 48.9305C25.1852 48.7373 25.4289 48.4709 25.5949 48.1568C25.4411 47.8642 25.361 47.5386 25.3615 47.2081H25.3614Z" fill="#A2F9F9"/>
<path d="M27.2985 49.2608V49.2677H35.7233C37.2408 49.2677 38.4706 48.0492 38.4706 46.5455C38.4706 45.0421 37.2408 43.8233 35.7233 43.8233H29.5042C29.3863 42.7968 28.5078 41.9983 27.44 41.9983C26.2919 41.9983 25.361 42.9204 25.361 44.0579V47.2081C25.3614 48.2979 26.2167 49.1883 27.2985 49.2608Z" fill="#A2F9F9"/>
<path d="M28.3361 47.2081V44.0579C28.3361 43.4991 28.562 42.9929 28.9266 42.6217C28.7328 42.424 28.5015 42.267 28.2462 42.1599C27.9909 42.0529 27.7168 41.998 27.44 41.9983C26.2919 41.9983 25.3614 42.9204 25.3614 44.0579V47.2081C25.3614 48.2979 26.2167 49.1883 27.2985 49.2608V49.2677H30.2732V49.2608C29.1918 49.1883 28.3361 48.2979 28.3361 47.2081Z" fill="#91E0E0"/>
<path d="M27.8985 28.0045H24.961C24.5036 28.0045 24.0535 27.9801 23.6125 27.9324C23.6209 29.2253 24.6809 30.2712 25.9878 30.2712C27.2746 30.2712 28.3213 29.2581 28.3622 27.9934C28.2084 28.0003 28.0539 28.0045 27.8987 28.0045H27.8985Z" fill="#FFD5B3"/>
<path d="M37.9045 12.7758C37.8911 12.7758 37.8782 12.777 37.8648 12.777V11.388C37.8648 11.2809 37.8625 11.174 37.8591 11.0676C37.647 11.2365 37.4063 11.3701 37.1374 11.4654C36.5442 11.6753 35.9647 11.7818 35.4154 11.7818C32.4323 11.7818 31.0827 8.64259 31.0693 8.61085L30.977 8.39044L30.8885 8.61241C30.8725 8.65324 29.236 12.6827 26.5038 12.6827C26.204 12.6827 25.8974 12.6339 25.5921 12.5378C24.2975 12.1296 23.8695 11.1446 24.32 9.61036L24.1426 9.53253C23.3026 10.9345 22.0144 12.6053 20.6472 12.6053C20.4877 12.6053 20.3283 12.5824 20.1734 12.5369C19.6649 12.3886 19.3006 12.0922 19.0915 11.6558C18.7501 10.9443 18.8329 9.86183 19.3185 8.68605L19.14 8.60675C18.0081 10.9803 16.8038 12.1338 15.4583 12.1338C15.3062 12.1338 15.1517 12.1182 14.9953 12.0872V18.0748C14.9953 24.5228 19.457 28.0045 24.9609 28.0045H27.8982C32.5197 28.0045 36.405 24.8703 37.5329 20.6196C37.6546 20.6382 37.7785 20.6489 37.9045 20.6489C39.6112 20.6489 40.9948 18.8862 40.9948 16.7122C40.9948 14.5382 39.6112 12.7758 37.9045 12.7758Z" fill="#FFD5B3"/>
<path d="M17.9845 18.0748V11.388C17.9845 11.1553 17.9933 10.9249 18.0089 10.6964C17.2228 11.7062 16.2271 12.4172 14.9953 12.1857V18.0748C14.9953 24.5232 19.457 28.0045 24.9609 28.0045H27.8982C27.9038 28.0045 27.9092 28.0045 27.915 28.0041C22.4275 27.9892 17.9845 24.5095 17.9845 18.0748Z" fill="#E5BFA1"/>
<path d="M24.9021 24.8532C23.0531 24.8532 21.5486 23.3623 21.5486 21.5302C21.5486 21.185 21.8308 20.9053 22.1792 20.9053H27.6254C27.9737 20.9053 28.256 21.185 28.256 21.5302C28.256 23.3623 26.7515 24.8532 24.9021 24.8532Z" fill="#FB8276"/>
<path d="M24.5584 21.5302C24.5584 21.185 24.8407 20.9053 25.189 20.9053H22.1792C21.8309 20.9053 21.5486 21.185 21.5486 21.5302C21.5486 23.3623 23.0531 24.8532 24.9025 24.8532C25.4434 24.8532 25.9542 24.7246 26.4074 24.4984C25.3118 23.951 24.5584 22.8265 24.5584 21.5302Z" fill="#E1756A"/>
<path d="M27.7043 0.732422H24.5267C18.5728 0.732422 13.746 5.5416 13.746 11.4734V11.6345C13.9448 11.7866 14.1779 11.9198 14.4529 12.0285C16.737 12.9338 18.2805 10.6354 19.2281 8.64863C18.5224 10.3573 18.546 12.1636 20.1459 12.6309C21.6894 13.0817 23.1713 11.3434 24.2261 9.58291C23.8648 10.8139 23.9446 12.1208 25.5624 12.6308C28.9674 13.7043 30.9793 8.64873 30.9793 8.64873C30.9793 8.64873 32.8367 13.0909 37.1702 11.5574C37.7313 11.359 38.1459 11.018 38.4446 10.5767C37.9869 5.06475 33.3548 0.732422 27.7044 0.732422H27.7043Z" fill="#F7931E"/>
<path d="M16.7237 11.6345V11.4734C16.7237 5.5416 21.5502 0.732422 27.5042 0.732422H24.5268C18.5729 0.732422 13.7465 5.5416 13.7465 11.4734V11.6345C13.9448 11.7866 14.178 11.9198 14.453 12.0285C15.3933 12.4012 16.2081 12.2299 16.9078 11.7619C16.8447 11.722 16.7833 11.6795 16.7239 11.6345H16.7237Z" fill="#DE841B"/>
<path d="M11.9306 26.0228V25.3098C11.9306 24.5506 11.3095 23.935 10.5432 23.935H6.50724C5.74084 23.935 5.11984 24.5506 5.11984 25.3098V26.0227L11.9306 26.0228Z" fill="#89C947"/>
<path d="M8.1464 26.0228V25.3098C8.1464 24.5506 8.76779 23.935 9.53381 23.935H6.50724C5.74084 23.935 5.11984 24.5506 5.11984 25.3098V26.0227L8.1464 26.0228Z" fill="#7BB540"/>
<path d="M14.39 37.0206C14.39 37.3638 14.1061 37.6454 13.7593 37.6454H3.29103C2.94386 37.6454 2.66046 37.3638 2.66046 37.0206V26.6475C2.66046 26.3038 2.94386 26.0227 3.29103 26.0227H13.7593C14.1061 26.0227 14.39 26.3042 14.39 26.6475V37.0206Z" fill="#D5E962"/>
<path d="M5.6798 37.0206V32.5906L5.08966 32.0233C4.94265 31.8816 4.83849 31.7013 4.78909 31.5032C4.7397 31.3051 4.74707 31.097 4.81036 30.9029C4.94015 30.5116 5.27277 30.232 5.6798 30.1685V26.6476C5.6798 26.3039 5.96359 26.0228 6.31036 26.0228H3.29103C2.94386 26.0228 2.66046 26.304 2.66046 26.6476V37.0206C2.66046 37.3638 2.94386 37.645 3.29103 37.645H6.31036C5.96368 37.6454 5.6798 37.3638 5.6798 37.0206Z" fill="#BFD158"/>
<path d="M10.18 34.6982C10.1219 34.6983 10.0646 34.6843 10.013 34.6574L8.52521 33.8864L7.03742 34.6574C6.98586 34.6843 6.92857 34.6983 6.87043 34.6982C6.79562 34.6982 6.72199 34.6753 6.65949 34.6302C6.60543 34.5919 6.56333 34.5391 6.53807 34.4779C6.5128 34.4166 6.50539 34.3495 6.51672 34.2842L6.8006 32.6512L5.59699 31.495C5.54912 31.4493 5.51516 31.3911 5.49904 31.3269C5.48291 31.2628 5.48528 31.1954 5.50588 31.1326C5.52706 31.0694 5.5654 31.0134 5.6166 30.9707C5.6678 30.9281 5.72985 30.9005 5.79582 30.8911L7.45939 30.6531L8.20324 29.1676C8.2333 29.1081 8.27935 29.0581 8.33621 29.0233C8.39308 28.9884 8.45852 28.9701 8.52521 28.9704C8.66174 28.9704 8.78654 29.0467 8.84718 29.1676L9.59133 30.653L11.2546 30.8911C11.3206 30.9004 11.3826 30.9279 11.4338 30.9706C11.4849 31.0133 11.5231 31.0694 11.5442 31.1326C11.5649 31.1954 11.5673 31.2628 11.5513 31.3269C11.5352 31.391 11.5012 31.4493 11.4533 31.4949L10.2498 32.6511L10.534 34.2842C10.5452 34.3495 10.5378 34.4166 10.5126 34.4778C10.4874 34.539 10.4454 34.5919 10.3914 34.6302C10.3298 34.6744 10.2558 34.6982 10.18 34.6982Z" fill="#89C947"/>
<path d="M8.46221 48.6428C8.46221 48.9866 8.17842 49.2677 7.83135 49.2677H-2.63711C-2.98379 49.2677 -3.26767 48.9865 -3.26767 48.6428V38.2703C-3.26767 37.9265 -2.98388 37.6454 -2.63711 37.6454H7.83115C8.17832 37.6454 8.46211 37.9266 8.46211 38.2703L8.46221 48.6428Z" fill="#FB8276"/>
<path d="M-0.277246 48.6428V44.4745L-0.745996 44.016C-1.19541 43.5761 -1.44297 42.9902 -1.44258 42.3653C-1.44258 41.7405 -1.19551 41.1546 -0.746094 40.7151C-0.605083 40.5775 -0.447608 40.4578 -0.277246 40.3588V38.2703C-0.277246 37.9265 0.00654292 37.6454 0.35332 37.6454H-2.63701C-2.98369 37.6454 -3.26758 37.9266 -3.26758 38.2703V48.6428C-3.26758 48.9866 -2.98379 49.2677 -2.63701 49.2677H0.35332C0.00664043 49.2677 -0.277246 48.9865 -0.277246 48.6428Z" fill="#E1756A"/>
<path d="M2.59717 46.1407C2.51898 46.1409 2.4438 46.1105 2.3877 46.056L-0.233783 43.4923C-0.384599 43.3459 -0.504499 43.1707 -0.586376 42.9772C-0.668253 42.7836 -0.710442 42.5756 -0.710442 42.3654C-0.710442 42.1552 -0.668253 41.9472 -0.586376 41.7536C-0.504499 41.5601 -0.384599 41.3849 -0.233783 41.2386C0.073737 40.938 0.483014 40.772 0.917878 40.772C1.35313 40.772 1.76212 40.9381 2.06993 41.2389L2.59717 41.7543L3.12432 41.2389C3.43184 40.938 3.84112 40.772 4.27637 40.772C4.71124 40.772 5.12012 40.9381 5.42803 41.2386C5.57885 41.3849 5.69875 41.5601 5.78063 41.7536C5.8625 41.9472 5.90469 42.1552 5.90469 42.3654C5.90469 42.5756 5.8625 42.7836 5.78063 42.9772C5.69875 43.1707 5.57885 43.3459 5.42803 43.4923L2.80655 46.0561C2.75089 46.1103 2.67569 46.1407 2.59717 46.1407Z" fill="#EF5050"/>
<path d="M17.8697 40.0387L15.4424 39.7946C15.0316 39.7534 14.7324 39.3868 14.7737 38.976L14.7939 38.773C14.8037 38.6753 14.8327 38.5805 14.8791 38.4941C14.9256 38.4076 14.9886 38.3311 15.0646 38.2689C15.1406 38.2068 15.2282 38.1603 15.3222 38.132C15.4162 38.1037 15.5148 38.0941 15.6125 38.104L17.3657 38.2805L17.3791 38.1501L15.2391 37.9345C15.1376 37.9244 15.0393 37.8935 14.9502 37.8438C14.8612 37.7941 14.7833 37.7266 14.7214 37.6455H9.0925C8.74573 37.6455 8.46184 37.9265 8.46184 38.2703V48.6428C8.46184 48.9866 8.74572 49.2677 9.0924 49.2677H19.5612C19.9078 49.2677 20.1917 48.9865 20.1917 48.6428V39.1549C19.629 39.7752 18.7795 40.1303 17.8697 40.0387Z" fill="#FFC502"/>
<path d="M11.4415 48.6428V45.261L10.9204 44.3665C10.613 43.8393 10.613 43.0741 10.9204 42.5466L11.4415 41.652V38.2702C11.4415 37.9265 11.7253 37.6454 12.0721 37.6454H9.0928C8.74573 37.6454 8.46223 37.9266 8.46223 38.2703V48.6428C8.46223 48.9866 8.74573 49.2677 9.0928 49.2677H12.0721C11.7254 49.2677 11.4415 48.9865 11.4415 48.6428Z" fill="#E5B102"/>
<path d="M13.413 46.1072C13.0662 46.1072 12.6406 45.8638 12.4669 45.5662L11.5534 43.9976C11.3797 43.7001 11.3797 43.213 11.5534 42.9154L12.4669 41.3469C12.6405 41.0493 13.0662 40.8058 13.413 40.8058H15.2409C15.5877 40.8058 16.0134 41.0493 16.1867 41.3469L17.1007 42.9154C17.2742 43.213 17.2742 43.7001 17.1007 43.9976L16.1867 45.5663C16.0134 45.8638 15.5877 46.1072 15.2409 46.1072H13.413Z" fill="#FCDB67"/>
<path d="M32.1909 31.2642C31.2081 30.7896 30.0206 31.1955 29.5381 32.1716C27.8887 35.5088 24.1189 37.1476 20.629 36.2679C20.831 36.6977 20.9124 37.1743 20.8646 37.6468C20.805 38.2389 20.5518 38.7654 20.1734 39.174C20.1795 39.1674 20.1861 39.1613 20.1917 39.1548V40.2024C25.3041 41.2312 30.692 38.7562 33.0964 33.8914C33.5787 32.9152 33.1736 31.739 32.1909 31.2642Z" fill="#A2F9F9"/>
<path d="M14.7737 38.9759L14.7939 38.773C14.8139 38.5757 14.9113 38.3944 15.0649 38.269C15.2185 38.1435 15.4156 38.0842 15.6129 38.104L17.3659 38.2805L17.3791 38.1501L15.2395 37.9345C15.1418 37.9247 15.047 37.8958 14.9605 37.8493C14.874 37.8029 14.7975 37.7398 14.7353 37.6638C14.6732 37.5878 14.6266 37.5003 14.5983 37.4063C14.57 37.3122 14.5605 37.2136 14.5703 37.1159L14.5909 36.9133C14.6008 36.8157 14.6297 36.7209 14.6762 36.6344C14.7226 36.5479 14.7857 36.4714 14.8617 36.4093C14.9377 36.3471 15.0252 36.3006 15.1192 36.2723C15.2133 36.244 15.3119 36.2345 15.4096 36.2443L17.5493 36.4594L17.5622 36.329L15.809 36.1527C15.7113 36.1429 15.6165 36.1139 15.53 36.0675C15.4435 36.021 15.367 35.958 15.3049 35.882C15.2427 35.806 15.1962 35.7184 15.1679 35.6244C15.1396 35.5304 15.13 35.4317 15.1399 35.334L15.1605 35.1311C15.1703 35.0334 15.1993 34.9386 15.2457 34.8521C15.2922 34.7657 15.3552 34.6892 15.4312 34.627C15.5073 34.5649 15.5948 34.5184 15.6888 34.4901C15.7828 34.4618 15.8814 34.4522 15.9791 34.4621L17.9662 34.662L17.9707 34.6623L17.8983 34.4705C17.7408 34.0535 17.9513 33.5881 18.3679 33.4305L18.5735 33.3527C18.7737 33.2772 18.9957 33.2843 19.1908 33.3724C19.3858 33.4605 19.5378 33.6225 19.6134 33.8227L20.3931 35.8608C20.7479 36.3664 20.9302 36.9908 20.8646 37.6469C20.7161 39.1194 19.3753 40.1902 17.8693 40.0383L15.4424 39.7942C15.032 39.7534 14.7325 39.3868 14.7737 38.9759Z" fill="#FFD5B3"/>
<path d="M38.0727 21.3768C40.1029 21.2692 41.7271 19.2181 41.7271 16.7126C41.7271 14.4268 40.3752 12.5194 38.5973 12.12V11.5238C38.7643 11.3637 38.9165 11.1858 39.0512 10.9871C39.1447 10.8487 39.1881 10.6825 39.1743 10.516C38.9367 7.65645 37.6386 5.00449 35.5181 3.04912C33.3858 1.08301 30.611 0 27.7042 0H24.5266C18.1782 0 13.0137 5.14717 13.0137 11.4734V11.6345C13.0138 11.7468 13.0397 11.8576 13.0894 11.9584C13.1391 12.0591 13.2114 12.1471 13.3005 12.2154C13.5583 12.4134 13.8556 12.5797 14.1828 12.7095C14.2096 12.7201 14.2362 12.728 14.2629 12.738V18.0748C14.2629 21.3387 15.3532 24.0772 17.4154 25.9945C18.0162 26.5529 18.6949 27.0316 19.435 27.4262C19.1237 27.733 18.8373 28.0641 18.5785 28.4164C17.6714 28.7918 16.6888 28.9895 15.674 28.9895C15.489 28.9895 15.3052 28.9814 15.1225 28.9677V26.6475C15.1225 25.899 14.5109 25.2902 13.7594 25.2902H12.6623C12.6521 24.1374 11.7056 23.2023 10.5432 23.2023H6.50732C5.34492 23.2023 4.39814 24.1374 4.38789 25.2902H3.29102C2.53906 25.2902 1.92793 25.899 1.92793 26.6475V36.9128H-2.63701C-3.38848 36.9129 -4 37.5218 -4 38.2702V48.6428C-4 49.3912 -3.38848 50 -2.63701 50H23.8919C23.9476 50 24.0022 49.9936 24.0548 49.9813C24.6248 49.9199 25.1623 49.6852 25.5948 49.3088C26.0268 49.6845 26.5634 49.919 27.1325 49.981C27.1868 49.9936 27.2423 49.9998 27.298 49.9996H35.7232C37.642 49.9996 39.2029 48.4501 39.2029 46.545C39.2029 44.8312 37.9388 43.4056 36.2878 43.137V41.6988C36.2878 41.5046 36.2106 41.3183 36.0733 41.1809C35.9359 41.0436 35.7496 40.9664 35.5554 40.9664C35.3611 40.9664 35.1748 41.0436 35.0375 41.1809C34.9001 41.3183 34.8229 41.5046 34.8229 41.6988V43.0908H30.0771C29.6788 42.0154 28.64 41.2659 27.4396 41.2659C26.7617 41.2652 26.1064 41.5096 25.5944 41.954C25.0828 41.5096 24.4277 41.2652 23.75 41.2659C22.5495 41.2659 21.5107 42.0154 21.1125 43.0908H20.9237V41.0633C21.4501 41.1309 21.9773 41.1651 22.503 41.1651C27.1245 41.1651 31.5823 38.6063 33.7525 34.2151C34.0726 33.5674 34.1203 32.8354 33.886 32.1541C33.6515 31.4705 33.1624 30.92 32.509 30.6042C31.1677 29.9564 29.5403 30.5138 28.8812 31.847C28.2532 33.1173 27.2652 34.1572 26.0243 34.8541C25.9404 34.9012 25.8667 34.9643 25.8072 35.0399C25.7477 35.1155 25.7037 35.202 25.6777 35.2946C25.6516 35.3872 25.6441 35.4841 25.6555 35.5796C25.6669 35.6751 25.697 35.7674 25.744 35.8513C25.8392 36.0207 25.9977 36.1454 26.1847 36.1979C26.3718 36.2505 26.572 36.2267 26.7415 36.1316C28.241 35.2894 29.4351 34.0324 30.1946 32.4959C30.4986 31.8802 31.2513 31.6238 31.8715 31.9233C32.1706 32.0675 32.3937 32.3185 32.5006 32.6298C32.6066 32.9388 32.5849 33.2714 32.4391 33.5663C30.2762 37.9429 25.5384 40.2519 20.9237 39.5813V39.4233C21.2997 38.9283 21.5313 38.3387 21.5928 37.7201C21.6111 37.5404 21.6138 37.3607 21.6027 37.1826C22.104 37.2382 22.6093 37.2492 23.1125 37.2154C23.3063 37.202 23.4869 37.1122 23.6145 36.9657C23.7422 36.8192 23.8064 36.628 23.7932 36.4342C23.7652 36.0306 23.4158 35.7277 23.0119 35.7536C22.3736 35.7979 21.7344 35.7514 21.1118 35.6231C21.0903 35.5885 21.0687 35.5538 21.0462 35.5194L20.2981 33.5636C20.073 32.9682 19.4947 32.5684 18.8584 32.5684C18.7337 32.5684 18.6104 32.5848 18.4896 32.6146C18.6776 30.7571 19.5367 29.1878 20.8848 28.062C21.5425 28.2944 22.2344 28.4683 22.9523 28.5815C23.2595 29.9648 24.5034 31.0036 25.9873 31.0036C27.4365 31.0036 28.6568 30.0133 28.9994 28.6785C30.0879 28.5666 31.1528 28.2883 32.1568 27.8533C33.8318 29.1199 34.8226 31.0234 34.8226 33.3008V38.2812C34.8226 38.4755 34.8997 38.6618 35.0371 38.7992C35.1744 38.9365 35.3607 39.0137 35.555 39.0137C35.7492 39.0137 35.9355 38.9365 36.0729 38.7992C36.2102 38.6618 36.2874 38.4755 36.2874 38.2812V33.3008C36.2874 30.8186 35.3475 28.6843 33.5667 27.1145C35.6549 25.8141 37.28 23.8075 38.0727 21.3768ZM26.0938 44.0578C26.0938 43.3262 26.6977 42.7307 27.4399 42.7307C28.1251 42.7307 28.6996 43.2365 28.7767 43.9067C28.7972 44.0853 28.8826 44.2501 29.0167 44.3698C29.1509 44.4895 29.3243 44.5556 29.5041 44.5557H35.7232C36.8345 44.5557 37.7381 45.4482 37.7381 46.5454C37.7381 47.6426 36.8345 48.5352 35.7232 48.5352H27.3991C27.3819 48.5328 27.3647 48.531 27.3474 48.5298C26.6442 48.4829 26.0938 47.9019 26.0938 47.208V44.0578ZM20.9241 44.5557H21.6858C21.8657 44.5558 22.0392 44.4897 22.1734 44.37C22.3076 44.2503 22.393 44.0854 22.4134 43.9067C22.4904 43.2365 23.0652 42.7307 23.7504 42.7307C24.1566 42.7307 24.5209 42.91 24.7682 43.1919C24.6759 43.4713 24.6288 43.7636 24.6289 44.0578V47.208C24.6289 47.5086 24.6781 47.7988 24.7682 48.0713C24.6516 48.2048 24.5099 48.314 24.3511 48.3927C24.1923 48.4713 24.0195 48.5179 23.8427 48.5298C23.8251 48.531 23.808 48.5329 23.7909 48.5352H20.9241V44.5557ZM15.1224 30.4363C15.3055 30.4474 15.4893 30.4543 15.6739 30.4543C16.3097 30.4539 16.9437 30.3872 17.5656 30.2551C17.2234 31.1291 17.0243 32.0809 16.9911 33.0917C16.557 33.1395 16.1176 33.1639 15.6739 33.1639C15.4894 33.1639 15.3055 33.1585 15.1224 33.1497V30.4363ZM15.2409 41.5383C15.3264 41.5383 15.5106 41.6424 15.5537 41.7152L16.4678 43.2839C16.5086 43.3548 16.5086 43.5577 16.4678 43.6291L15.5537 45.1973C15.5107 45.2701 15.3264 45.3747 15.2409 45.3747H13.4131C13.3271 45.3747 13.143 45.2702 13.0999 45.1973L12.1858 43.6287C12.145 43.5577 12.145 43.3548 12.1858 43.2839L13.0999 41.7152C13.143 41.6424 13.3272 41.5379 13.4131 41.5379H15.241L15.2409 41.5383ZM6.50723 24.6674H10.5432C10.8976 24.6674 11.1867 24.945 11.197 25.2903H5.85332C5.86367 24.945 6.15244 24.6674 6.50723 24.6674ZM3.39297 26.7552H13.6575V36.9129H3.39287L3.39297 26.7552ZM7.72978 48.5352H-2.53516V38.3777H7.72978V48.5352ZM19.4592 48.5352H9.19453V38.3777H14.1354C14.1 38.482 14.0764 38.5898 14.0651 38.6993L14.0446 38.9026C13.9999 39.3501 14.1605 39.7713 14.4497 40.073H13.4129C12.8036 40.073 12.1395 40.4537 11.834 40.9778L10.9203 42.5465C10.6129 43.0736 10.6129 43.8393 10.9203 44.3664L11.834 45.9351C12.1398 46.4592 12.8037 46.8399 13.4129 46.8399H15.2408C15.8501 46.8399 16.5143 46.4592 16.8193 45.9347L17.7334 44.3664C18.0404 43.8393 18.0404 43.074 17.7334 42.5465L16.8197 40.9778C16.7492 40.8577 16.6596 40.7451 16.5565 40.6426L17.7959 40.7673C17.9146 40.7791 18.0348 40.7853 18.1533 40.7853C18.6149 40.7853 19.056 40.6967 19.4592 40.5357V48.5352ZM18.5559 35.1028C18.6302 35.0042 18.6783 34.8884 18.6959 34.7661C18.7134 34.6439 18.6997 34.5192 18.6562 34.4036L18.5833 34.2117C18.5797 34.2026 18.5781 34.1929 18.5784 34.1831C18.5788 34.1733 18.5811 34.1637 18.5853 34.1549C18.5893 34.1459 18.5951 34.1378 18.6023 34.1311C18.6095 34.1245 18.618 34.1193 18.6272 34.116L18.832 34.0386C18.8405 34.0352 18.8496 34.0334 18.8587 34.0332C18.8742 34.0336 18.8893 34.0387 18.9019 34.0478C18.9145 34.0569 18.924 34.0696 18.9293 34.0843L19.709 36.1226C19.7304 36.1792 19.7588 36.2328 19.7937 36.2823C20.06 36.6607 20.1813 37.1196 20.1358 37.5736C20.0355 38.5697 19.1833 39.3207 18.1534 39.3207C18.0836 39.3207 18.013 39.3169 17.9428 39.3101L15.5159 39.0659C15.5119 39.0655 15.5083 39.0636 15.5057 39.0605C15.5032 39.0574 15.5019 39.0535 15.5022 39.0495L15.5228 38.8466C15.5239 38.8355 15.5342 38.8329 15.5392 38.8329H15.5396L17.2925 39.0091C17.694 39.0507 18.0538 38.7565 18.0946 38.3541L18.1076 38.224C18.1174 38.1283 18.1081 38.0315 18.0804 37.9394C18.0527 37.8472 18.0071 37.7614 17.9462 37.6869C17.8854 37.6123 17.8104 37.5505 17.7257 37.5049C17.6409 37.4594 17.548 37.431 17.4522 37.4214L15.3126 37.2059C15.3058 37.2051 15.2984 37.1964 15.2992 37.1895L15.3194 36.9865C15.3206 36.9755 15.3316 36.9739 15.3362 36.9729L17.4759 37.1884C17.6693 37.2075 17.8624 37.1493 18.013 37.0266C18.1633 36.9037 18.2586 36.7262 18.2781 36.533L18.2911 36.4025C18.3106 36.2093 18.2524 36.0162 18.1295 35.8657C18.0066 35.7153 17.829 35.6198 17.6357 35.6003L15.8825 35.424C15.8752 35.4232 15.868 35.4146 15.8687 35.4072L15.8894 35.2043C15.8905 35.1933 15.9016 35.1921 15.9058 35.1909L17.8929 35.3908C17.8978 35.3912 17.9069 35.392 17.9115 35.3928C18.0347 35.4029 18.1584 35.3815 18.2711 35.3308C18.3837 35.2801 18.4817 35.2017 18.5559 35.1028ZM25.9876 29.5388C25.7011 29.5393 25.4195 29.465 25.1706 29.3233C24.9216 29.1816 24.714 28.9773 24.5682 28.7308C24.6986 28.7347 24.8291 28.7369 24.9607 28.7369H27.4032C27.257 28.9818 27.0497 29.1845 26.8015 29.3251C26.5533 29.4656 26.2728 29.5393 25.9876 29.5388ZM27.8984 27.2721H24.9607C19.352 27.2721 15.7276 23.6622 15.7276 18.0748V12.9494C16.4649 12.8845 17.1757 12.5568 17.8311 11.9679C17.9556 11.8559 18.0751 11.7384 18.1893 11.6157C18.23 11.7527 18.2814 11.8862 18.343 12.0151C18.6542 12.6636 19.2066 13.1199 19.9406 13.3339C21.1326 13.6825 22.3369 13.1706 23.5336 11.8106C23.8331 12.5229 24.4442 13.0463 25.3422 13.3297C25.7362 13.4537 26.1269 13.5154 26.5129 13.5151C27.7946 13.5151 29.0219 12.8356 30.1136 11.5073C30.484 11.0565 30.7907 10.5884 31.0306 10.1761C31.34 10.6025 31.7523 11.0768 32.2754 11.4918C32.4277 11.6124 32.6216 11.6676 32.8146 11.6453C33.0076 11.6229 33.1838 11.5249 33.3046 11.3728C33.3643 11.2974 33.4087 11.211 33.435 11.1185C33.4614 11.026 33.4692 10.9292 33.4582 10.8337C33.4471 10.7382 33.4174 10.6457 33.3706 10.5617C33.3238 10.4777 33.2609 10.4037 33.1855 10.3439C32.1567 9.52793 31.6589 8.37598 31.6551 8.36641C31.5993 8.23308 31.5054 8.1192 31.3852 8.0391C31.2649 7.95899 31.1236 7.91624 30.9791 7.91621H30.973C30.8275 7.91761 30.6857 7.96224 30.5656 8.04444C30.4455 8.12664 30.3526 8.24269 30.2986 8.37783C30.2811 8.42207 28.5064 12.7914 25.7828 11.9323C25.1114 11.7207 24.4854 11.3007 24.929 9.78926C24.9792 9.61831 24.9653 9.43493 24.89 9.27349C24.8146 9.11204 24.683 8.98363 24.5197 8.9123C24.3565 8.84086 24.1729 8.83134 24.0032 8.88554C23.8335 8.93974 23.6893 9.05393 23.5978 9.20674C22.4087 11.1911 21.2265 12.1842 20.351 11.9282C20.0138 11.8294 19.7956 11.6558 19.6636 11.3815C19.4038 10.8402 19.4942 9.92314 19.9051 8.92871C19.9771 8.75243 19.9776 8.55505 19.9066 8.37837C19.8356 8.20169 19.6986 8.05962 19.5246 7.98224C19.3506 7.90486 19.1533 7.89827 18.9745 7.96386C18.7958 8.02944 18.6496 8.16206 18.5669 8.33359C16.7469 12.1498 15.2233 11.5459 14.7225 11.3476C14.6402 11.315 14.5597 11.278 14.4813 11.2369C14.6081 5.82734 19.0655 1.46484 24.5267 1.46484H27.7044C32.797 1.46484 37.1289 5.3501 37.6878 10.3607C37.4841 10.5919 37.2331 10.7582 36.9256 10.8669C36.6224 10.9745 36.3229 11.052 36.0345 11.0974C35.8437 11.1288 35.6731 11.2345 35.5599 11.3913C35.4467 11.5481 35.4001 11.7433 35.4302 11.9343C35.4604 12.1253 35.5649 12.2966 35.7209 12.4109C35.8769 12.5252 36.0718 12.5731 36.263 12.5442C36.5572 12.4969 36.8477 12.4289 37.1323 12.3409V12.777C37.1323 12.8731 37.1512 12.9684 37.188 13.0573C37.2249 13.1461 37.2788 13.2269 37.3468 13.2949C37.4148 13.3629 37.4956 13.4168 37.5844 13.4536C37.6733 13.4905 37.7686 13.5094 37.8647 13.5094C37.8797 13.5098 37.8941 13.509 37.9121 13.5082C39.2087 13.514 40.2623 14.949 40.2623 16.7126C40.2623 18.4792 39.2045 19.9165 37.9045 19.9165C37.8209 19.9165 37.7355 19.9101 37.6432 19.896C37.4647 19.8687 37.2824 19.9083 37.1313 20.0072C36.9803 20.1062 36.8711 20.2574 36.8248 20.4319C35.7561 24.4595 32.0854 27.2721 27.8984 27.2721Z" fill="black"/>
<path d="M30.1481 15.2928C30.0519 15.2928 29.9566 15.3117 29.8677 15.3485C29.7788 15.3853 29.6981 15.4392 29.6301 15.5072C29.562 15.5753 29.5081 15.656 29.4713 15.7449C29.4345 15.8338 29.4156 15.929 29.4156 16.0252V17.2264C29.4156 17.6312 29.7433 17.9588 30.1481 17.9588C30.3423 17.9588 30.5286 17.8817 30.666 17.7443C30.8033 17.6069 30.8805 17.4206 30.8805 17.2264V16.0252C30.8805 15.831 30.8033 15.6447 30.666 15.5073C30.5286 15.37 30.3423 15.2928 30.1481 15.2928ZM19.3262 15.2928C19.23 15.2928 19.1347 15.3117 19.0458 15.3485C18.957 15.3853 18.8762 15.4392 18.8082 15.5072C18.7402 15.5753 18.6862 15.656 18.6494 15.7449C18.6126 15.8338 18.5937 15.929 18.5938 16.0252V17.2264C18.5938 17.6312 18.9214 17.9588 19.3262 17.9588C19.5204 17.9588 19.7067 17.8817 19.8441 17.7443C19.9814 17.6069 20.0586 17.4206 20.0586 17.2264V16.0252C20.0586 15.831 19.9814 15.6447 19.8441 15.5073C19.7067 15.37 19.5204 15.2928 19.3262 15.2928ZM24.7365 19.0132H25.2114C25.4057 19.0132 25.592 18.936 25.7293 18.7987C25.8667 18.6613 25.9439 18.475 25.9439 18.2808C25.9439 17.8761 25.6162 17.5484 25.2114 17.5484H24.9943V16.869C24.9943 16.6747 24.9172 16.4884 24.7798 16.3511C24.6425 16.2137 24.4562 16.1366 24.2619 16.1366C24.1657 16.1365 24.0705 16.1554 23.9816 16.1922C23.8927 16.229 23.812 16.283 23.7439 16.351C23.6759 16.419 23.622 16.4998 23.5852 16.5886C23.5484 16.6775 23.5295 16.7728 23.5295 16.869V17.7925C23.5295 18.4654 24.0708 19.0132 24.7365 19.0132ZM27.6254 20.1725H22.1791C21.4276 20.1725 20.8161 20.7814 20.8161 21.5298C20.8161 23.7659 22.6491 25.5852 24.9021 25.5852C27.1554 25.5852 28.9884 23.7659 28.9884 21.5298C28.9884 20.7818 28.3769 20.1725 27.6254 20.1725ZM24.9021 24.1207C23.4933 24.1207 22.3401 23.0163 22.2829 21.6373H27.5216C27.464 23.0163 26.3112 24.1207 24.9021 24.1207ZM11.358 30.1658L10.0743 29.9824L9.50206 28.8399C9.31631 28.4688 8.94209 28.2379 8.5252 28.2379C8.10821 28.2379 7.73399 28.4688 7.54825 28.8395L6.97598 29.9824L5.69083 30.1662C5.27852 30.2258 4.94131 30.5076 4.81045 30.9029C4.68038 31.2962 4.79024 31.7364 5.08926 32.0233L6.01211 32.9094L5.79502 34.1584C5.72374 34.5661 5.8961 34.9854 6.23057 35.2239C6.41653 35.3585 6.64041 35.4308 6.87002 35.4302C7.0462 35.4302 7.22168 35.3874 7.37432 35.3074L8.5252 34.7111L9.67227 35.3054C9.829 35.3873 10.0032 35.4301 10.1801 35.4302C10.4115 35.4302 10.6328 35.3589 10.8167 35.2261C11.1543 34.985 11.3267 34.5658 11.2554 34.1583L11.0383 32.9094L11.9604 32.0237C12.2598 31.7364 12.3696 31.2961 12.2396 30.9029C12.1099 30.508 11.7723 30.2261 11.358 30.1658ZM9.74249 32.1232C9.6559 32.2062 9.59108 32.3092 9.55375 32.4232C9.51642 32.5371 9.50772 32.6586 9.52842 32.7767L9.68213 33.6609L8.86202 33.236C8.75795 33.1819 8.64237 33.1538 8.5251 33.1539C8.4079 33.1538 8.2924 33.182 8.18838 33.236L7.36856 33.6609L7.52227 32.7767C7.5428 32.6585 7.53398 32.537 7.49661 32.423C7.45923 32.309 7.39444 32.2059 7.30791 32.1228L6.66592 31.5064L7.56309 31.3782C7.6801 31.3612 7.79129 31.3163 7.88719 31.2472C7.98308 31.178 8.06085 31.0868 8.11387 30.9811L8.5252 30.1602L8.93633 30.9811C8.98932 31.0869 9.06714 31.1783 9.16314 31.2474C9.25915 31.3166 9.37048 31.3614 9.4876 31.3782L10.3845 31.5064L9.74249 32.1232ZM1.8754 46.5794C2.06801 46.7684 2.32727 46.8739 2.59707 46.8731C2.86684 46.8739 3.12609 46.7685 3.31885 46.5798L5.94034 44.0156C6.38975 43.5761 6.63731 42.9902 6.63731 42.3653C6.63731 41.7405 6.38975 41.1545 5.94034 40.7151C5.49483 40.2794 4.90391 40.0399 4.27637 40.0399C3.64883 40.0399 3.05762 40.2798 2.61231 40.7151L2.59717 40.7299L2.58223 40.7151C2.13711 40.2798 1.54581 40.0399 0.918266 40.0399C0.290337 40.0399 -0.300484 40.2794 -0.745698 40.7151C-1.19501 41.1545 -1.44257 41.7405 -1.44257 42.3653C-1.44257 42.9902 -1.19501 43.5761 -0.745698 44.0159L1.8754 46.5794ZM0.278325 41.7622C0.448052 41.5958 0.675395 41.5043 0.917974 41.5043C1.16055 41.5043 1.38799 41.5958 1.55811 41.7621L2.08497 42.278C2.2219 42.4117 2.40569 42.4865 2.59707 42.4865C2.78846 42.4865 2.97225 42.4117 3.10918 42.278L3.63633 41.7625C3.80655 41.5962 4.0335 41.5043 4.27647 41.5043C4.51905 41.5043 4.7461 41.5958 4.91612 41.7621C5.08135 41.9236 5.17217 42.1379 5.17217 42.3653C5.17256 42.5926 5.08135 42.8071 4.91622 42.9684L2.59717 45.2364L0.278227 42.9685C0.112993 42.8072 0.0218796 42.5927 0.0222702 42.3654C0.0222702 42.138 0.11309 41.9237 0.278129 41.7623L0.278325 41.7622ZM37.8423 19.0072C37.9598 19.0072 38.0792 18.9788 38.1898 18.919C39.7542 18.0737 39.4982 16.3029 39.1446 15.4847C39.1065 15.3964 39.0513 15.3164 38.9822 15.2495C38.9131 15.1825 38.8315 15.1298 38.7421 15.0943C38.6527 15.0589 38.5571 15.0415 38.4609 15.043C38.3647 15.0445 38.2697 15.0649 38.1814 15.1032C38.0032 15.1803 37.8628 15.325 37.7913 15.5056C37.7197 15.6862 37.7228 15.8878 37.7999 16.066C37.8201 16.1121 38.2814 17.2047 37.4933 17.6305C37.3499 17.7081 37.2364 17.8312 37.171 17.9805C37.1055 18.1298 37.0917 18.2967 37.1317 18.4547C37.1718 18.6128 37.2634 18.7529 37.3921 18.853C37.5209 18.953 37.6793 19.0073 37.8423 19.0072Z" fill="black"/>
</g>
<defs>
<clipPath id="clip0_70_222">
<rect width="50" height="50" fill="white"/>
</clipPath>
</defs>
</svg>
