<svg width="50" height="50" viewBox="0 0 50 50" fill="none" xmlns="http://www.w3.org/2000/svg">
<path d="M46.689 48.0728H3.31103C1.88906 48.0728 0.736328 46.9201 0.736328 45.4981V4.50175C0.736328 3.07978 1.88906 1.92705 3.31103 1.92705H46.689C48.1109 1.92705 49.2637 3.07978 49.2637 4.50175V45.4983C49.2637 46.9202 48.1109 48.0728 46.689 48.0728Z" fill="#648093"/>
<path d="M7.03376 15.1817C7.68432 15.1817 8.21169 14.6544 8.21169 14.0038C8.21169 13.3533 7.68432 12.8259 7.03376 12.8259C6.38321 12.8259 5.85583 13.3533 5.85583 14.0038C5.85583 14.6544 6.38321 15.1817 7.03376 15.1817Z" fill="#EA2E1B"/>
<path d="M42.9663 15.1817C43.6169 15.1817 44.1442 14.6544 44.1442 14.0038C44.1442 13.3533 43.6169 12.8259 42.9663 12.8259C42.3158 12.8259 41.7884 13.3533 41.7884 14.0038C41.7884 14.6544 42.3158 15.1817 42.9663 15.1817Z" fill="#EA2E1B"/>
<path d="M49.2633 4.50859V45.4912C49.2633 46.9168 48.1078 48.0732 46.6823 48.0732H41.7155C43.141 48.0732 44.2975 46.9168 44.2975 45.4912V4.50859C44.2975 3.083 43.141 1.92656 41.7155 1.92656H46.6823C48.1078 1.92656 49.2633 3.0831 49.2633 4.50859Z" fill="#586F7F"/>
<path d="M38.9283 37.7826C39.5864 37.7826 40.1199 37.2491 40.1199 36.591C40.1199 35.9329 39.5864 35.3994 38.9283 35.3994C38.2702 35.3994 37.7367 35.9329 37.7367 36.591C37.7367 37.2491 38.2702 37.7826 38.9283 37.7826Z" fill="#276FD8"/>
<path d="M45.6835 37.7826C46.3416 37.7826 46.8751 37.2491 46.8751 36.591C46.8751 35.9329 46.3416 35.3994 45.6835 35.3994C45.0254 35.3994 44.4919 35.9329 44.4919 36.591C44.4919 37.2491 45.0254 37.7826 45.6835 37.7826Z" fill="#EA2E1B"/>
<path d="M42.3063 34.6846C42.9645 34.6846 43.4979 34.1511 43.4979 33.493C43.4979 32.8349 42.9645 32.3014 42.3063 32.3014C41.6482 32.3014 41.1147 32.8349 41.1147 33.493C41.1147 34.1511 41.6482 34.6846 42.3063 34.6846Z" fill="#FFD527"/>
<path d="M42.3063 40.8807C42.9645 40.8807 43.4979 40.3472 43.4979 39.6891C43.4979 39.031 42.9645 38.4975 42.3063 38.4975C41.6482 38.4975 41.1147 39.031 41.1147 39.6891C41.1147 40.3472 41.6482 40.8807 42.3063 40.8807Z" fill="#34E881"/>
<path d="M34.5552 44.2383H15.4448C15.315 44.2383 15.1905 44.1867 15.0987 44.0949C15.0069 44.0031 14.9553 43.8786 14.9553 43.7487V29.7068C14.9553 29.577 15.0069 29.4525 15.0987 29.3607C15.1905 29.2689 15.315 29.2173 15.4448 29.2173H34.5552C34.685 29.2173 34.8095 29.2689 34.9013 29.3607C34.9931 29.4525 35.0447 29.577 35.0447 29.7068V43.7486C35.0447 43.8785 34.9931 44.003 34.9013 44.0948C34.8095 44.1867 34.685 44.2383 34.5552 44.2383Z" fill="#E1F0F4"/>
<path d="M35.0443 29.7085V43.7477C35.0443 43.8778 34.9926 44.0026 34.9005 44.0947C34.8085 44.1867 34.6837 44.2384 34.5535 44.2385H30.6893C30.8194 44.2384 30.9442 44.1867 31.0363 44.0947C31.1283 44.0026 31.18 43.8778 31.1801 43.7477V29.7085C31.18 29.5783 31.1283 29.4535 31.0363 29.3615C30.9442 29.2695 30.8194 29.2177 30.6893 29.2177H34.5535C34.6837 29.2177 34.8085 29.2694 34.9006 29.3614C34.9926 29.4535 35.0443 29.5783 35.0443 29.7085Z" fill="#C3D9DF"/>
<path d="M38.4196 21.4656H11.5804C11.4505 21.4656 11.326 21.414 11.2342 21.3222C11.1424 21.2304 11.0908 21.1059 11.0908 20.9761V6.93427C11.0908 6.80444 11.1424 6.67994 11.2342 6.58813C11.326 6.49633 11.4505 6.44474 11.5804 6.44472H38.4196C38.5495 6.44474 38.674 6.49633 38.7658 6.58813C38.8576 6.67994 38.9092 6.80444 38.9092 6.93427V20.9761C38.9092 21.1059 38.8576 21.2304 38.7658 21.3222C38.674 21.414 38.5495 21.4656 38.4196 21.4656Z" fill="#E1F0F4"/>
<path d="M38.4196 21.4656H35.8057V6.44463H38.4196C38.5495 6.44465 38.674 6.49624 38.7658 6.58804C38.8576 6.67984 38.9092 6.80435 38.9092 6.93418V20.976C38.9092 21.0403 38.8965 21.1039 38.8719 21.1633C38.8473 21.2228 38.8113 21.2767 38.7658 21.3222C38.7204 21.3677 38.6664 21.4037 38.607 21.4283C38.5476 21.453 38.4839 21.4656 38.4196 21.4656Z" fill="#C3D9DF"/>
<path d="M7.03378 34.6846C8.34243 34.6846 9.40331 33.6237 9.40331 32.315C9.40331 31.0064 8.34243 29.9455 7.03378 29.9455C5.72512 29.9455 4.66425 31.0064 4.66425 32.315C4.66425 33.6237 5.72512 34.6846 7.03378 34.6846Z" fill="#FFD527"/>
<path d="M9.40374 32.315C9.40374 33.6237 8.34241 34.685 7.03381 34.685C6.70393 34.685 6.38977 34.6172 6.1051 34.4955C6.95237 34.1342 7.54631 33.2937 7.54631 32.315C7.54631 31.3361 6.95237 30.4959 6.1051 30.1346C6.39866 30.0092 6.71461 29.9448 7.03381 29.9451C8.34241 29.9451 9.40374 31.0063 9.40374 32.315Z" fill="#F4CA19"/>
<path d="M46.6821 1.19072H11.0908C10.6842 1.19072 10.3545 1.52031 10.3545 1.92705C10.3545 2.33379 10.6842 2.66338 11.0908 2.66338H46.6821C47.6996 2.66338 48.5273 3.49111 48.5273 4.50859V24.2637H1.47266V4.50859C1.47266 3.49111 2.30039 2.66338 3.31787 2.66338H5.85566C6.2623 2.66338 6.59199 2.33379 6.59199 1.92705C6.59199 1.52031 6.2623 1.19072 5.85566 1.19072H3.31787C1.48838 1.19072 0 2.679 0 4.50859V45.4914C0 47.3209 1.48838 48.8093 3.31787 48.8093H46.6821C48.5116 48.8093 50 47.3209 50 45.4914V4.50859C50 2.679 48.5117 1.19072 46.6821 1.19072ZM48.5273 45.4913C48.5273 46.5088 47.6996 47.3365 46.6821 47.3365H3.31787C2.30039 47.3365 1.47266 46.5088 1.47266 45.4913V25.7362H48.5273V45.4913Z" fill="black"/>
<path d="M11.5817 22.2019H38.4183C39.0949 22.2019 39.6454 21.6515 39.6454 20.9748V6.93554C39.6454 6.25888 39.0949 5.70839 38.4183 5.70839H11.5817C10.905 5.70839 10.3545 6.25888 10.3545 6.93554V20.9748C10.3545 21.6515 10.905 22.2019 11.5817 22.2019ZM11.8272 7.18095H38.1729V20.7292H11.8272V7.18095ZM15.4461 44.9746H34.5538C35.2305 44.9746 35.781 44.4241 35.781 43.7475V29.7082C35.781 29.0315 35.2305 28.481 34.5538 28.481H29.3524C29.1571 28.481 28.9698 28.5586 28.8317 28.6967C28.6936 28.8348 28.616 29.0221 28.616 29.2174C28.616 29.3141 28.6351 29.4098 28.6721 29.4992C28.7091 29.5885 28.7633 29.6697 28.8317 29.738C28.9001 29.8064 28.9813 29.8606 29.0706 29.8977C29.1599 29.9347 29.2557 29.9537 29.3524 29.9537H34.3083V43.5019H15.6916V29.9536H24.1491C24.3444 29.9536 24.5317 29.876 24.6698 29.7379C24.8079 29.5999 24.8855 29.4126 24.8855 29.2173C24.8855 29.022 24.8079 28.8347 24.6698 28.6966C24.5317 28.5585 24.3444 28.4809 24.1491 28.4809H15.4461C14.7695 28.4809 14.219 29.0314 14.219 29.7081V43.7474C14.219 44.424 14.7696 44.9746 15.4461 44.9746ZM5.11936 14.0042C5.11936 15.0599 5.97815 15.9186 7.03381 15.9186C8.08948 15.9186 8.94827 15.0599 8.94827 14.0042C8.94827 12.9485 8.08948 12.0897 7.03381 12.0897C5.97815 12.0897 5.11936 12.9486 5.11936 14.0042ZM7.03381 13.5624C7.27747 13.5624 7.47561 13.7605 7.47561 14.0042C7.47561 14.2478 7.27747 14.446 7.03381 14.446C6.79016 14.446 6.59202 14.2478 6.59202 14.0042C6.59202 13.7605 6.79016 13.5624 7.03381 13.5624ZM44.8807 14.0042C44.8807 12.9485 44.0219 12.0897 42.9662 12.0897C41.9106 12.0897 41.0518 12.9485 41.0518 14.0042C41.0518 15.0599 41.9106 15.9186 42.9662 15.9186C44.0219 15.9186 44.8807 15.0598 44.8807 14.0042ZM42.5244 14.0042C42.5246 13.8871 42.5712 13.7748 42.654 13.6919C42.7368 13.6091 42.8491 13.5625 42.9662 13.5624C43.2099 13.5624 43.408 13.7605 43.408 14.0042C43.408 14.2478 43.2099 14.446 42.9662 14.446C42.8491 14.4458 42.7368 14.3992 42.654 14.3164C42.5712 14.2336 42.5246 14.1213 42.5244 14.0042ZM7.03381 35.4209C8.74651 35.4209 10.1399 34.0275 10.1399 32.3148C10.1399 30.6021 8.74641 29.2088 7.03381 29.2088C5.32122 29.2088 3.92776 30.602 3.92776 32.3148C3.92776 34.0276 5.32102 35.4209 7.03381 35.4209ZM7.03381 30.6814C7.9345 30.6814 8.66721 31.4142 8.66721 32.3148C8.66721 33.2154 7.9344 33.9482 7.03381 33.9482C6.13313 33.9482 5.40041 33.2154 5.40041 32.3148C5.40041 31.4142 6.13303 30.6814 7.03381 30.6814ZM38.9283 38.519C39.9914 38.519 40.8563 37.6542 40.8563 36.5911C40.8563 35.5279 39.9914 34.6631 38.9283 34.6631C37.8653 34.6631 37.0004 35.5279 37.0004 36.5911C37.0002 37.6542 37.8652 38.519 38.9283 38.519ZM38.9283 36.1356C39.1794 36.1356 39.3836 36.34 39.3836 36.591C39.3836 36.842 39.1793 37.0463 38.9283 37.0463C38.6774 37.0463 38.473 36.842 38.473 36.591C38.473 36.34 38.6772 36.1356 38.9283 36.1356ZM45.6839 38.519C46.747 38.519 47.6118 37.6542 47.6118 36.5911C47.6118 35.5279 46.747 34.6631 45.6839 34.6631C44.6208 34.6631 43.756 35.5279 43.756 36.5911C43.756 37.6542 44.6208 38.519 45.6839 38.519ZM45.6839 36.1356C45.935 36.1356 46.1393 36.34 46.1393 36.591C46.1393 36.842 45.935 37.0463 45.6839 37.0463C45.4328 37.0463 45.2286 36.842 45.2286 36.591C45.2286 36.34 45.4328 36.1356 45.6839 36.1356ZM42.3061 35.4209C43.3692 35.4209 44.234 34.556 44.234 33.493C44.234 32.4299 43.3692 31.565 42.3061 31.565C41.243 31.565 40.3781 32.4299 40.3781 33.493C40.3781 34.556 41.2429 35.4209 42.3061 35.4209ZM42.3061 33.0376C42.5572 33.0376 42.7615 33.2419 42.7615 33.4929C42.7615 33.7438 42.5572 33.9481 42.3061 33.9481C42.055 33.9481 41.8507 33.7438 41.8507 33.4929C41.8507 33.2419 42.055 33.0376 42.3061 33.0376ZM42.3061 37.7612C41.243 37.7612 40.3781 38.6261 40.3781 39.6892C40.3781 40.7523 41.243 41.6172 42.3061 41.6172C43.3692 41.6172 44.234 40.7523 44.234 39.6892C44.2341 38.6261 43.3692 37.7612 42.3061 37.7612ZM42.3061 40.1445C42.055 40.1445 41.8507 39.9401 41.8507 39.6892C41.8507 39.4382 42.055 39.2339 42.3061 39.2339C42.4268 39.234 42.5425 39.282 42.6279 39.3674C42.7133 39.4527 42.7613 39.5684 42.7615 39.6892C42.7613 39.8099 42.7133 39.9256 42.6279 40.011C42.5425 40.0963 42.4268 40.1444 42.3061 40.1445ZM4.44397 41.8236H6.29749V43.6771C6.29749 44.0839 6.62717 44.4135 7.03381 44.4135C7.44045 44.4135 7.77014 44.0839 7.77014 43.6771V41.8236H9.62366C9.72035 41.8236 9.8161 41.8046 9.90544 41.7676C9.99477 41.7306 10.0759 41.6763 10.1443 41.608C10.2127 41.5396 10.2669 41.4584 10.3039 41.3691C10.3409 41.2797 10.36 41.184 10.36 41.0873C10.36 40.9906 10.3409 40.8949 10.3039 40.8055C10.2669 40.7162 10.2127 40.635 10.1443 40.5666C10.0759 40.4983 9.99477 40.444 9.90544 40.407C9.8161 40.37 9.72035 40.351 9.62366 40.351H7.77014V38.4975C7.77014 38.0907 7.44045 37.7611 7.03381 37.7611C6.62717 37.7611 6.29749 38.0907 6.29749 38.4975V40.351H4.44397C4.34727 40.351 4.25152 40.37 4.16219 40.407C4.07285 40.444 3.99168 40.4983 3.92331 40.5666C3.85493 40.635 3.8007 40.7162 3.76369 40.8055C3.72669 40.8949 3.70764 40.9906 3.70764 41.0873C3.70764 41.2826 3.78522 41.4699 3.92331 41.608C4.0614 41.746 4.24868 41.8236 4.44397 41.8236Z" fill="black"/>
<path d="M22.1503 13.2764C22.3256 13.2765 22.4951 13.2139 22.6282 13.0999L26.1905 10.057C26.3372 9.92967 26.4276 9.74951 26.4421 9.55579C26.4565 9.36207 26.3938 9.17049 26.2677 9.02279C26.1415 8.87508 25.9621 8.78321 25.7685 8.7672C25.5749 8.75119 25.3828 8.81233 25.2341 8.9373L21.6718 11.9802C21.5573 12.078 21.4755 12.2085 21.4375 12.3542C21.3995 12.4999 21.4071 12.6538 21.4593 12.795C21.5114 12.9363 21.6056 13.0582 21.7292 13.1442C21.8527 13.2303 21.9997 13.2764 22.1503 13.2764ZM28.97 10.3518L20.073 17.9513C19.9264 18.0786 19.8359 18.2588 19.8215 18.4525C19.8071 18.6462 19.8697 18.8378 19.9959 18.9855C20.1221 19.1332 20.3015 19.2251 20.4951 19.2411C20.6887 19.2571 20.8808 19.196 21.0295 19.071L29.9265 11.4715C30.0731 11.3441 30.1636 11.164 30.178 10.9702C30.1925 10.7765 30.1298 10.5849 30.0036 10.4372C29.8774 10.2895 29.698 10.1977 29.5044 10.1817C29.3108 10.1656 29.1187 10.2268 28.97 10.3518Z" fill="black"/>
</svg>
