<svg width="50" height="50" viewBox="0 0 50 50" fill="none" xmlns="http://www.w3.org/2000/svg">
<path d="M21.9952 39.1509C32.643 39.1509 41.2748 30.5192 41.2748 19.8713C41.2748 9.22348 32.643 0.591705 21.9952 0.591705C11.3474 0.591705 2.71558 9.22348 2.71558 19.8713C2.71558 30.5192 11.3474 39.1509 21.9952 39.1509Z" fill="#FF8D5C"/>
<path d="M28.2355 1.62468C31.6752 11.7088 26.2888 22.6719 16.2047 26.1116C12.1669 27.4889 7.78643 27.4889 3.7486 26.1116C7.19659 36.1874 18.1597 41.5602 28.2355 38.1123C38.3113 34.6644 43.6841 23.701 40.2361 13.6254C39.2837 10.8422 37.7071 8.31378 35.6271 6.23373C33.5471 4.15368 31.0187 2.5771 28.2355 1.62468Z" fill="#FF774D"/>
<path d="M48.5206 34.3505C48.8925 33.2859 49.1781 32.1931 49.3746 31.0826C49.4511 30.6424 49.401 30.1896 49.23 29.7768C49.0591 29.364 48.7743 29.0084 48.4089 28.7513C47.4845 28.1048 46.5096 27.5339 45.4935 27.0439L46.2 30.6973L48.5206 34.3505Z" fill="#B56959"/>
<path d="M20.1428 47.6264C18.4821 46.9879 16.9094 46.1408 15.4625 45.1055C15.1075 44.8492 14.8307 44.4993 14.6632 44.0948C14.4957 43.6903 14.4439 43.2472 14.5137 42.815C14.8041 41.0643 15.3153 39.3574 16.0352 37.7354L19.0962 42.6808L20.1428 47.6264Z" fill="#A85B4A"/>
<path d="M23.4173 48.5927C26.8971 49.3146 31.2263 49.2688 36.1322 47.2369C41.8528 44.8673 45.1399 41.1294 47.0268 37.7071L45.4935 31.2025L42.0692 25.7286C38.3146 24.6417 33.3454 24.3217 27.6224 26.6922C22.7162 28.7245 19.6225 31.7537 17.6724 34.725L19.7264 41.9874L23.4173 48.5927Z" fill="#B56959"/>
<path d="M36.8338 44.9137C28.6387 44.9136 21.9431 38.3701 21.7546 30.1771C20.1729 31.4792 18.7967 33.0124 17.6724 34.725L19.7263 41.9874L23.4173 48.5926C26.8971 49.3145 31.2263 49.2688 36.1322 47.2368C38.0316 46.4604 39.8202 45.4368 41.4518 44.1925C39.9593 44.6716 38.4013 44.9149 36.8338 44.9137Z" fill="#A85B4A"/>
<path d="M42.0637 25.728L47.0256 37.7071C47.6177 36.632 48.1179 35.5087 48.5206 34.3493L45.4951 27.0452C44.3905 26.5101 43.2426 26.0694 42.0637 25.728Z" fill="#F2F2FF"/>
<path d="M20.1293 47.6206C21.1969 48.0338 22.2966 48.3586 23.4173 48.5916L17.6736 34.7251C17.0458 35.6823 16.4979 36.6895 16.0353 37.7366L20.1293 47.6206Z" fill="#CCCCF0"/>
<path d="M8.85328 46.7885C13.4158 46.7885 17.1145 43.0898 17.1145 38.5273C17.1145 33.9648 13.4158 30.2661 8.85328 30.2661C4.29076 30.2661 0.592102 33.9648 0.592102 38.5273C0.592102 43.0898 4.29076 46.7885 8.85328 46.7885Z" fill="#F2F2FF"/>
<path d="M12.5732 31.1489C11.8389 36.9448 6.93971 41.3094 1.0979 41.3721C2.67014 45.6553 7.41686 47.8529 11.7001 46.2807C15.9833 44.7084 18.1809 39.9617 16.6087 35.6785C15.8866 33.7116 14.4441 32.0924 12.5732 31.1489Z" fill="#E6E6FF"/>
<path d="M48.7493 28.2675C47.7989 27.6023 46.7963 27.015 45.7513 26.5115C44.6222 25.9651 43.4492 25.5145 42.2447 25.1647C42.2409 25.1635 42.2376 25.1614 42.2337 25.1602C41.8995 25.0634 41.563 24.9748 41.2246 24.8943C41.6513 23.2541 41.867 21.5661 41.8664 19.8712C41.8664 8.91423 32.9523 0 21.9952 0C11.0381 0 2.12399 8.91433 2.12399 19.8713C2.11716 23.6223 3.17802 27.2978 5.18259 30.4683C4.5289 30.7677 3.91385 31.1451 3.35085 31.5923C-0.479336 34.6311 -1.12084 40.1994 1.91788 44.0295C4.9566 47.8596 10.5249 48.5012 14.3551 45.4625C14.4646 45.3756 14.5721 45.2862 14.6774 45.1942C15.0347 45.581 23.9467 52.9247 36.3586 47.7833C41.3363 45.7216 45.0999 42.4276 47.5448 37.9928L47.544 37.9923C48.1519 36.8884 48.6654 35.735 49.079 34.5446C49.4619 33.4499 49.7556 32.3261 49.9575 31.1841C50.0518 30.6335 49.9884 30.0674 49.7746 29.5513C49.5608 29.0352 49.2053 28.5901 48.7493 28.2675ZM48.7918 30.9811C48.6964 31.5258 48.5778 32.0661 48.4365 32.6007L46.6721 28.3412C47.1501 28.6192 47.616 28.9175 48.0685 29.2352C48.3415 29.4284 48.5543 29.6948 48.6823 30.0037C48.8103 30.3127 48.8482 30.6515 48.7918 30.9811ZM40.0648 24.6501C39.605 24.5662 39.1425 24.4974 38.6781 24.4439C38.5266 17.4552 34.8722 13.265 32.3207 10.1971C31.1096 8.74088 30.0371 7.44964 29.4111 6.16483C32.3589 6.31366 34.6748 7.22697 36.6801 8.32555C38.4696 10.5988 39.7067 13.2566 40.2941 16.0894C40.8814 18.9223 40.8029 21.8528 40.0648 24.6501ZM29.3252 25.434C29.2044 20.7624 28.2021 13.6695 23.1702 6.89561C24.7823 6.45652 26.44 6.2062 28.11 6.14968C28.7543 7.75742 29.9926 9.24824 31.4111 10.9538C34.1221 14.2134 37.3245 18.0661 37.4978 24.3416C34.7292 24.1908 31.957 24.5613 29.3252 25.434ZM34.5695 6.05832C32.7778 5.36862 30.8808 4.99202 28.9615 4.94497C28.776 4.14722 28.7633 3.319 28.9243 2.51594C31.0027 3.34973 32.9147 4.54952 34.5695 6.05832ZM27.8001 2.10742C27.5867 3.0434 27.5704 4.01354 27.7524 4.95614C25.9311 5.04979 24.1273 5.35894 22.3788 5.87712C21.1093 4.29582 19.6682 2.86025 18.082 1.59676C21.3097 0.906689 24.6625 1.08287 27.8001 2.10742ZM16.6071 1.9763C17.2299 2.41047 19.1003 3.80842 21.155 6.25411C19.931 6.6576 18.1165 7.24751 15.3861 9.03939C13.1449 7.00581 10.5818 6.62769 8.76351 6.68714C10.9479 4.49191 13.643 2.87323 16.6071 1.9763ZM7.57782 7.99354C8.98372 7.7703 11.9047 7.64372 14.3823 9.73325C8.11774 14.2777 5.25549 20.5968 4.08703 25.2247C2.30699 19.2581 3.61594 12.797 7.57782 7.99354ZM4.84877 27.3161C5.37648 24.2833 7.47548 16.116 15.2372 10.5766C16.8323 12.4672 16.3394 14.4607 15.555 17.6329C14.7012 21.0855 13.6103 25.5048 14.7225 31.9069C13.5962 30.9065 12.2332 30.2101 10.7625 29.8837C9.29178 29.5574 7.76212 29.6119 6.31838 30.0421C5.75367 29.1759 5.2621 28.264 4.84877 27.3161ZM1.23406 37.6498C1.43076 35.8993 2.22853 34.2712 3.49135 33.0431C3.64774 33.4766 3.77933 33.9186 3.88547 34.367L3.02224 34.8994C2.34969 35.3145 2.98428 36.3126 3.64339 35.9066L4.12992 35.6065C4.22175 36.2033 4.28045 36.8047 4.30592 37.4081L3.45575 37.3102C2.67877 37.221 2.54235 38.3961 3.32037 38.4856L4.31557 38.6002C4.29552 39.3538 4.22912 40.1054 4.11676 40.8509L3.33571 40.4013C2.65718 40.0101 2.06775 41.0364 2.74533 41.4267L3.89059 42.086C3.75689 42.7056 3.59409 43.3186 3.40274 43.9228C2.59255 43.1078 1.97677 42.1204 1.60127 41.0342C1.22578 39.9481 1.10025 38.7912 1.23406 37.6498ZM7.97573 46.1466C6.67683 45.9995 5.43756 45.5209 4.37692 44.7568C4.55216 44.2343 4.76622 43.5509 4.96617 42.705L5.45771 42.9879C6.1297 43.3752 6.73296 42.3569 6.04809 41.9625L5.21715 41.4842C5.37713 40.5763 5.47324 39.6584 5.50476 38.7371L6.3874 38.8388C7.16457 38.9286 7.301 37.7529 6.52278 37.6634L5.50552 37.5463C5.47921 36.6685 5.38575 35.794 5.22595 34.9305L6.37216 34.2235C7.03799 33.8127 6.41788 32.8057 5.75101 33.2163L4.94752 33.712C4.81553 33.2131 4.65053 32.7236 4.45361 32.2467C7.63207 30.0163 11.9768 30.5182 14.5631 33.4144C14.2639 33.8332 13.9928 34.2715 13.7515 34.7262L13.0816 34.0607C12.5262 33.5085 11.6927 34.3489 12.2478 34.9001L13.2041 35.8501C12.8523 36.6545 12.5626 37.4846 12.3375 38.3332L11.3192 38.2159C10.5422 38.1254 10.4056 39.3018 11.1838 39.3913L12.0685 39.4933C11.8891 40.3974 11.7735 41.313 11.7226 42.2334L10.8042 42.5105C10.0521 42.7375 10.3992 43.8691 11.146 43.6434L11.6892 43.4795C11.6916 44.351 11.7424 45.0386 11.7967 45.6112C10.59 46.114 9.27423 46.2984 7.97573 46.1466ZM12.9344 45.0203C12.8863 44.3881 12.868 43.754 12.8796 43.1201L14.142 42.7392C14.8927 42.5127 14.5477 41.3804 13.8002 41.6064L12.9412 41.8655C13.002 41.1146 13.1088 40.3682 13.2611 39.6305L14.2509 39.7444C15.028 39.8343 15.1645 38.6585 14.3862 38.5691L13.5422 38.4718C13.7042 37.8917 13.8978 37.3208 14.1222 36.7618L14.5226 37.1595C15.0708 37.7044 15.9183 36.8781 15.3564 36.3201L14.6411 35.6094C14.8452 35.1981 15.0721 34.7986 15.3207 34.4125C17.5958 37.9794 16.5486 42.7154 12.9817 44.9905L12.9344 45.0203ZM15.5148 44.3579C16.1794 43.6025 16.7086 42.7382 17.0793 41.8029L19.0278 46.507C17.3647 45.7282 15.8201 44.7058 15.5148 44.3579ZM20.5781 47.1582L17.591 39.9467C17.7897 38.73 17.7305 37.4852 17.4171 36.2929C17.4678 36.2021 17.5176 36.1107 17.5698 36.0205L22.4278 47.7489C21.8022 47.5814 21.185 47.3842 20.5781 47.1582ZM35.9057 46.6902C31.8592 48.3664 27.8024 48.8308 23.8432 48.0738L18.3416 34.7918C19.1439 33.6095 20.0719 32.5176 21.1093 31.535C21.6782 30.9969 20.8643 30.1374 20.2961 30.6756C19.1159 31.7923 18.0694 33.0423 17.1777 34.4005C17.1755 34.4039 17.1744 34.4076 17.1722 34.4111C17.0793 34.5528 16.9882 34.6958 16.899 34.8399C16.7351 34.4851 16.5478 34.1415 16.3386 33.8114C14.6578 26.7411 15.6532 22.1646 16.7035 17.9171C17.4813 14.7715 18.1058 12.2388 16.2193 9.91095C18.8665 8.2056 20.7028 7.63406 21.9515 7.24581C27.0362 13.8718 28.0582 20.922 28.146 25.8495C26.7585 26.3719 25.4197 27.0154 24.145 27.7726C23.4657 28.1784 24.0876 29.1853 24.7519 28.7882C28.3533 26.6368 34.538 24.2718 41.6267 26.2197L46.3689 37.6684C44.054 41.7374 40.5357 44.7723 35.9057 46.6902ZM47.0827 36.2992L43.0997 26.6831C43.7577 26.9172 44.4036 27.1836 45.0353 27.4812L47.8873 34.3663C47.6509 35.0234 47.3824 35.6685 47.0827 36.2992Z" fill="black"/>
<path d="M22.5117 30.1714C22.8384 30.1714 23.1033 29.9065 23.1033 29.5798C23.1033 29.253 22.8384 28.9882 22.5117 28.9882C22.1849 28.9882 21.92 29.253 21.92 29.5798C21.92 29.9065 22.1849 30.1714 22.5117 30.1714Z" fill="black"/>
<path d="M39.713 29.0979C38.4216 29.3099 37.1126 29.5943 35.786 29.9513L35.3982 29.0148C35.0987 28.2923 34.0052 28.744 34.305 29.4676L34.6396 30.2756C33.2517 30.6886 31.8536 31.1771 30.4451 31.7412L30.1221 30.9616C29.8225 30.2376 28.7298 30.692 29.029 31.4143L29.3519 32.1935C27.9604 32.7886 26.6262 33.4318 25.3496 34.1232L25.015 33.3157C24.7148 32.5909 23.623 33.047 23.9219 33.7684L24.3094 34.7039C23.5313 35.1519 22.768 35.6253 22.0207 36.1231C21.3615 36.5628 22.0346 37.5365 22.6772 37.1073C23.36 36.6524 24.0567 36.2189 24.7664 35.8072L25.2111 36.8807C25.5101 37.6029 26.6052 37.1544 26.3041 36.4279L25.8047 35.2221C27.0752 34.5297 28.4084 33.8846 29.8046 33.2867L30.3182 34.5266C30.6173 35.2489 31.7123 34.8003 31.4113 34.0739L30.8978 32.8342C32.306 32.27 33.705 31.7834 35.0947 31.3742L35.5941 32.5799C35.8936 33.3026 36.988 32.853 36.6873 32.1271L36.2426 31.0535C37.478 30.7267 38.6987 30.464 39.9047 30.2652C40.6766 30.1387 40.4866 28.9715 39.713 29.0979Z" fill="black"/>
</svg>
