<svg width="50" height="50" viewBox="0 0 50 50" fill="none" xmlns="http://www.w3.org/2000/svg">
<g clip-path="url(#clip0_70_192)">
<path d="M10.1644 41.9037V6.92051C10.1644 5.78829 11.0823 4.87051 12.2144 4.87051H47.1975C48.3298 4.87051 49.2475 5.78838 49.2475 6.92051V41.9037C49.2475 43.0359 48.3297 43.9537 47.1975 43.9537H12.2144C11.0822 43.9537 10.1644 43.0359 10.1644 41.9037Z" fill="#80B6FC"/>
<path d="M47.1976 41.4851H12.2144C11.0822 41.4851 10.1644 40.5672 10.1644 39.4351V41.9038C10.1644 43.036 11.0823 43.9538 12.2144 43.9538H47.1976C48.3299 43.9538 49.2476 43.0359 49.2476 41.9038V39.4351C49.2476 40.5672 48.3298 41.4851 47.1976 41.4851Z" fill="#62A4FB"/>
<path d="M13.2959 9.15088V39.6732C13.2959 40.3078 13.8103 40.8222 14.4448 40.8222H44.9672C45.6018 40.8222 46.1161 40.3078 46.1161 39.6732V9.15088C46.1161 8.51631 45.6018 8.00195 44.9672 8.00195H14.4448C13.8103 8.00195 13.2959 8.51641 13.2959 9.15088Z" fill="#EEC06B"/>
<path d="M22.2208 30.4892V34.5507H17.1917C17.1087 34.5507 17.029 34.5177 16.9703 34.459C16.9115 34.4002 16.8785 34.3206 16.8785 34.2375V30.8023C16.8785 30.7192 16.9115 30.6395 16.9703 30.5808C17.029 30.5221 17.1087 30.4891 17.1917 30.4891H22.2208V30.4892ZM28.9826 33.7553C28.7126 33.9452 28.4207 34.1019 28.1131 34.2219C27.8063 34.343 27.492 34.4171 27.1445 34.4786C26.9733 34.5089 26.7875 34.5235 26.6059 34.5401C26.4264 34.5464 22.583 34.5506 22.2208 34.5506V30.4891H25.2229C25.2876 30.4891 25.3533 30.4922 25.4181 30.4817C25.4797 30.4716 25.5398 30.4533 25.5966 30.4274L28.9493 33.7771C28.9598 33.7697 28.9712 33.7625 28.9817 33.7541L28.9826 33.7553Z" fill="#DE5791"/>
<path d="M30.7478 30.364C30.7426 31.032 30.5734 31.699 30.2624 32.2919C29.9576 32.8732 29.5129 33.3806 28.9817 33.7543C28.9712 33.7627 28.9597 33.7699 28.9493 33.7772L25.5966 30.4276C25.5986 30.4267 25.6018 30.4256 25.6039 30.4245C25.8377 30.3118 25.9808 30.0445 25.9578 29.7878C25.9463 29.6583 25.8952 29.5311 25.8085 29.4339C25.7239 29.339 25.6248 29.2575 25.5329 29.1698L25.5267 29.1645L28.9535 26.8076L28.988 26.8389C29.2573 27.0873 29.5172 27.342 29.7343 27.6082C29.7697 27.6572 29.9702 27.89 30.1737 28.2355L30.2363 28.342L30.2927 28.4517C30.5953 29.0331 30.754 29.6959 30.7478 30.364Z" fill="#DE5791"/>
<path d="M28.9535 26.8077L25.5266 29.1647L21.988 25.8609L24.7594 22.8923L28.9535 26.8077Z" fill="#DE5791"/>
<path d="M24.7594 22.8923L21.9881 25.8609L21.6228 25.5196C21.6061 25.505 21.2793 25.1752 21.2793 25.1752C21.2227 25.1123 21.1673 25.0483 21.1133 24.9831C21.0581 24.9185 21.0027 24.8548 20.9515 24.788L20.8001 24.5803C20.4025 24.0208 20.1008 23.3768 19.9328 22.7014C19.7658 22.0261 19.7157 21.3257 19.7971 20.6472C19.8764 19.9833 20.0602 19.3351 20.3545 18.7391L24.0047 20.5167C24.0068 20.5125 24.0089 20.5094 24.011 20.5052C23.821 20.8861 23.7761 21.3309 23.8701 21.7056C23.9181 21.8945 23.9974 22.072 24.1174 22.2369C24.322 22.5197 24.4587 22.6001 24.7594 22.8923Z" fill="#DE5791"/>
<path d="M26.6737 15.5042V19.5631H25.4535C25.2322 19.5735 25.0328 19.6169 24.8544 19.6931C24.676 19.7692 24.512 19.8768 24.3669 20.0146C24.2239 20.1502 24.1049 20.3203 24.0109 20.5051C24.0089 20.5093 24.0067 20.5124 24.0047 20.5166L20.3545 18.739C20.3597 18.7265 20.366 18.7149 20.3723 18.7024C20.6687 18.1075 21.0633 17.5574 21.5507 17.0887C22.0532 16.6063 22.6398 16.22 23.2813 15.9488C23.9233 15.6774 24.6102 15.5323 25.2772 15.5042H26.6737ZM26.6737 15.5H31.9899V19.5631H26.6737V15.5Z" fill="#DE5791"/>
<path d="M31.9899 15.5H37.3332V19.5631H31.9899V15.5Z" fill="#DE5791"/>
<path d="M22.2208 30.4892V34.5507H17.1917C17.1087 34.5507 17.029 34.5177 16.9703 34.4589C16.9115 34.4002 16.8785 34.3206 16.8785 34.2375V30.8022C16.8785 30.7192 16.9115 30.6395 16.9703 30.5808C17.029 30.5221 17.1087 30.4891 17.1917 30.4891H22.2208V30.4892Z" fill="#766D78"/>
<path d="M28.9826 33.7553C28.7126 33.9452 28.4207 34.1019 28.1131 34.2219C27.6067 34.4218 27.0949 34.4953 26.6059 34.5402C26.4264 34.5465 22.583 34.5507 22.2208 34.5507V30.4892C25.3137 30.4562 25.3374 30.5476 25.5965 30.4276L28.9492 33.7772C28.9597 33.7699 28.9711 33.7627 28.9816 33.7543L28.9826 33.7553Z" fill="#DDEBFD"/>
<path d="M30.7478 30.364C30.7373 31.6964 30.0856 32.9778 28.9817 33.7543C28.9712 33.7627 28.9597 33.7699 28.9493 33.7772L25.5966 30.4276C25.5986 30.4267 25.6018 30.4256 25.6039 30.4245C25.9637 30.2511 26.0842 29.7428 25.8085 29.4339C25.7239 29.339 25.6248 29.2575 25.5329 29.1698L25.5267 29.1645L28.9535 26.8076L28.988 26.8389C30.0506 27.8193 30.7617 28.8728 30.7478 30.364Z" fill="#766D78"/>
<path d="M28.9534 26.8077L25.5266 29.1647L21.988 25.8609L24.7594 22.8923L28.9534 26.8077Z" fill="#DDEBFD"/>
<path d="M24.7594 22.8923L21.9881 25.8609L21.6228 25.5196C21.1896 25.1403 20.8082 24.5908 20.8002 24.5802C20.388 24.0313 20.1009 23.3767 19.9328 22.7013C19.7658 22.026 19.7157 21.3256 19.7972 20.6471C19.8765 19.9832 20.0603 19.335 20.3546 18.739L24.0048 20.5166C24.0068 20.5124 24.009 20.5093 24.011 20.5051C23.8211 20.886 23.7762 21.3308 23.8701 21.7055C23.9182 21.8944 23.9975 22.0719 24.1175 22.2368C24.322 22.5197 24.4587 22.6001 24.7594 22.8923Z" fill="#766D78"/>
<path d="M26.6737 15.5042V19.5631C26.0083 19.6671 24.6836 19.1825 24.0109 20.5051C24.0089 20.5093 24.0067 20.5124 24.0047 20.5166L20.3545 18.739C20.3597 18.7265 20.366 18.7149 20.3723 18.7024C20.6687 18.1075 21.0633 17.5574 21.5507 17.0887C22.0532 16.6063 22.6398 16.22 23.2813 15.9488C23.9233 15.6774 24.6102 15.5323 25.2772 15.5042H26.6737Z" fill="#DDEBFD"/>
<path d="M26.6737 15.5H31.9899V19.5631H26.6737V15.5Z" fill="#766D78"/>
<path d="M31.9898 15.5H37.3332V19.5631H31.9898V15.5Z" fill="#DDEBFD"/>
<path d="M39.2774 20.7866C41.0759 20.7866 42.5339 19.3287 42.5339 17.5302C42.5339 15.7317 41.0759 14.2737 39.2774 14.2737C37.479 14.2737 36.021 15.7317 36.021 17.5302C36.021 19.3287 37.479 20.7866 39.2774 20.7866Z" fill="#67B59F"/>
<path d="M6.55223 23.2206L1.08065 28.6922C0.642957 29.1299 0.642957 29.8394 1.08065 30.2771L6.55233 35.7487C6.99003 36.1864 7.6996 36.1864 8.13729 35.7487L13.6089 30.2771C14.0466 29.8394 14.0466 29.1299 13.6089 28.6922L8.13719 23.2205C7.6995 22.7829 6.98993 22.7829 6.55223 23.2206Z" fill="#DDEBFD"/>
<path d="M13.6088 28.6922L12.0277 27.1111C12.4161 27.4995 12.3762 28.1692 11.9386 28.6068L6.46699 34.0785C6.0293 34.5162 5.35967 34.5561 4.97119 34.1677L6.55225 35.7487C6.98994 36.1864 7.69951 36.1864 8.13721 35.7487L13.6088 30.2771C14.0465 29.8394 14.0465 29.1299 13.6088 28.6922Z" fill="#BED9FD"/>
<path d="M9.26562 40.4088V48.1469C9.26562 48.7658 9.76738 49.2676 10.3863 49.2676H18.1244C18.7434 49.2676 19.2451 48.7658 19.2451 48.1469V40.4088C19.2451 39.7898 18.7434 39.2881 18.1244 39.2881H10.3863C9.76738 39.2881 9.26562 39.7898 9.26562 40.4088Z" fill="#DDEBFD"/>
<path d="M18.1244 46.8593H10.3863C9.76738 46.8593 9.26562 46.4219 9.26562 45.8824V48.1469C9.26562 48.7658 9.76738 49.2676 10.3863 49.2676H18.1244C18.7434 49.2676 19.2451 48.7658 19.2451 48.1469V45.8824C19.2451 46.4219 18.7434 46.8593 18.1244 46.8593Z" fill="#BED9FD"/>
<path d="M47.0661 9.18887H39.2775V0.732422H47.0661C47.5038 0.732422 47.743 1.24277 47.463 1.5792L44.9231 4.63037C44.8459 4.72314 44.8036 4.84003 44.8036 4.96074C44.8036 5.08145 44.8459 5.19835 44.9231 5.29111L47.463 8.34229C47.743 8.67852 47.5037 9.18887 47.0661 9.18887Z" fill="#DF646E"/>
<path d="M44.9231 5.29102C44.8459 5.19826 44.8036 5.08136 44.8036 4.96065C44.8036 4.83994 44.8459 4.72304 44.9231 4.63028L47.463 1.57911C47.743 1.24268 47.5038 0.73233 47.0661 0.73233H44.4346C44.8723 0.73233 45.1114 1.24268 44.8314 1.57911L42.2916 4.63028C42.2144 4.72304 42.1721 4.83994 42.1721 4.96065C42.1721 5.08136 42.2144 5.19826 42.2916 5.29102L44.8314 8.34219C45.1114 8.67862 44.8723 9.18897 44.4346 9.18897H47.066C47.5037 9.18897 47.7429 8.67862 47.4629 8.34219L44.9231 5.29102Z" fill="#DC4955"/>
<path d="M39.8672 31.3967H37.5961C36.9085 31.3967 36.3511 31.9541 36.3511 32.6417V34.9128C36.3511 35.6004 36.9085 36.1578 37.5961 36.1578H39.8672C40.5548 36.1578 41.1122 35.6004 41.1122 34.9128V32.6417C41.1121 31.9541 40.5548 31.3967 39.8672 31.3967Z" fill="#62A4FB"/>
<path d="M47.1971 4.1377H46.2859L48.0257 2.04775C48.3389 1.67139 48.4044 1.1623 48.1966 0.718945C47.9888 0.275391 47.5556 6.51275e-09 47.0658 6.51275e-09H39.2772C39.1811 -1.28209e-05 39.0858 0.0189231 38.9969 0.0557262C38.9081 0.0925293 38.8273 0.146479 38.7593 0.214493C38.6913 0.282507 38.6373 0.363254 38.6005 0.452121C38.5637 0.540988 38.5448 0.636235 38.5448 0.732422V4.1377H23.7049C23.3004 4.1377 22.9725 4.46553 22.9725 4.87012C22.9725 5.27471 23.3004 5.60254 23.7049 5.60254H38.5448V7.26953H14.4441C13.407 7.26953 12.5633 8.11377 12.5633 9.15137V26.611L10.8963 24.944V6.9209C10.8963 6.19395 11.4877 5.60254 12.2146 5.60254H20.2869C20.6914 5.60254 21.0193 5.27471 21.0193 4.87012C21.0193 4.46553 20.6914 4.1377 20.2869 4.1377H12.2146C10.68 4.1377 9.43144 5.38623 9.43144 6.9209V23.4791L8.65488 22.7025C7.93232 21.9801 6.75673 21.98 6.03417 22.7025L0.562495 28.1742C0.389881 28.3459 0.253031 28.5501 0.159864 28.775C0.0666977 29 0.0190643 29.2411 0.0197211 29.4846C0.0197211 29.9796 0.212494 30.445 0.562495 30.795L6.03408 36.2666C6.3954 36.6278 6.86992 36.8084 7.34443 36.8084C7.81894 36.8084 8.29355 36.6277 8.65478 36.2666L9.43134 35.49V38.8233C8.89404 39.1482 8.533 39.7363 8.533 40.4086V48.1466C8.533 49.1685 9.36435 49.9998 10.3861 49.9998H18.1242C19.146 49.9998 19.9773 49.1685 19.9773 48.1466V44.6865H39.2771C39.6817 44.6865 40.0096 44.3587 40.0096 43.9541C40.0096 43.5495 39.6817 43.2217 39.2771 43.2217H19.9773V41.5547H44.9666C46.0042 41.5547 46.8484 40.7105 46.8484 39.6729V9.92139H47.0659C47.5557 9.92139 47.9889 9.646 48.1967 9.20254C48.4045 8.75918 48.339 8.25 48.0258 7.87373L46.1352 5.60254H47.1971C47.924 5.60254 48.5154 6.19395 48.5154 6.9209V41.9033C48.5154 42.6303 47.924 43.2217 47.1971 43.2217H42.6951C42.2905 43.2217 41.9627 43.5495 41.9627 43.9541C41.9627 44.3587 42.2905 44.6865 42.6951 44.6865H47.1971C48.7317 44.6865 49.9803 43.438 49.9803 41.9033V6.9209C49.9803 5.38623 48.7317 4.1377 47.1971 4.1377ZM27.406 18.8308V16.2324H31.2574V18.8308H27.406ZM27.7869 26.7209L25.596 28.2277L23.0229 25.8254L24.7946 23.9274L27.7869 26.7209ZM28.8729 27.7518C29.6879 28.6066 30.0242 29.3885 30.015 30.3582C30.0079 31.2811 29.6351 32.1554 28.9965 32.7895L26.5833 30.3785C26.6189 30.2933 26.6464 30.2038 26.6647 30.1115C26.7191 29.8384 26.6908 29.5658 26.5897 29.3221L28.8729 27.7518ZM17.6107 33.8184V31.2217H21.4882V33.8184H17.6107ZM22.953 31.2156C23.8303 31.2108 25.2048 31.2261 25.3527 31.2195L27.7208 33.5854C27.3321 33.7199 26.9369 33.7736 26.5636 33.8086C26.2987 33.8129 24.1421 33.8163 22.953 33.8177V31.2156ZM20.5241 20.7339C20.5641 20.3969 20.636 20.0644 20.739 19.741L23.1246 20.9028C23.0712 21.2321 23.0805 21.5692 23.1599 21.8857C23.2325 22.1717 23.3553 22.4348 23.5236 22.666C23.5876 22.7549 23.6564 22.8402 23.7298 22.9215L21.9529 24.8248C21.7454 24.6152 21.54 24.3575 21.4012 24.1618C21.396 24.1546 21.3908 24.1475 21.3855 24.1403C20.7196 23.2534 20.38 21.9342 20.5241 20.7339ZM23.7606 19.5831L21.3802 18.4238C22.2726 17.1027 23.7109 16.3084 25.293 16.2366H25.9412V18.8304C25.3316 18.8108 24.4328 18.8467 23.7606 19.5831ZM32.7223 16.2324H35.5063C35.362 16.6499 35.2884 17.0885 35.2885 17.5302C35.2885 17.9855 35.3662 18.4229 35.5073 18.8308H32.7223V16.2324ZM36.7533 17.5302C36.7533 16.3932 37.5093 15.4296 38.5449 15.1149V17.5302C38.5449 17.9348 38.8727 18.2626 39.2773 18.2626C39.6819 18.2626 40.0098 17.9348 40.0098 17.5302V15.1149C41.0454 15.4296 41.8015 16.3932 41.8015 17.5302C41.8015 18.922 40.6691 20.0543 39.2773 20.0543C37.8855 20.0542 36.7533 18.922 36.7533 17.5302ZM7.61913 35.2309C7.54626 35.3036 7.4475 35.3445 7.34453 35.3445C7.24155 35.3445 7.14279 35.3036 7.06992 35.2309L1.59833 29.7593C1.56215 29.7233 1.53347 29.6805 1.51394 29.6334C1.49441 29.5862 1.48442 29.5357 1.48456 29.4847C1.48456 29.381 1.52499 29.2834 1.59833 29.2101L7.06992 23.7385C7.14279 23.6657 7.24155 23.6249 7.34453 23.6249C7.4475 23.6249 7.54626 23.6657 7.61913 23.7385L13.0907 29.2102C13.1269 29.2461 13.1556 29.2889 13.1751 29.3361C13.1946 29.3832 13.2046 29.4337 13.2045 29.4848C13.2046 29.5358 13.1946 29.5863 13.1751 29.6334C13.1556 29.6805 13.1269 29.7233 13.0907 29.7593L7.61913 35.2309ZM12.5633 32.3583V38.5556H10.8963V34.0253L12.5633 32.3583ZM18.1242 48.5352H10.3861C10.2832 48.535 10.1845 48.4941 10.1117 48.4213C10.0389 48.3484 9.99795 48.2497 9.99785 48.1468V40.4088C9.99797 40.3058 10.0389 40.2071 10.1117 40.1343C10.1845 40.0615 10.2832 40.0206 10.3861 40.0204H18.1242C18.2272 40.0205 18.3259 40.0615 18.3987 40.1343C18.4715 40.2071 18.5124 40.3058 18.5125 40.4088V48.1468C18.5124 48.2497 18.4715 48.3485 18.3987 48.4213C18.3259 48.4941 18.2272 48.5351 18.1242 48.5352ZM45.3836 39.6729C45.3835 39.7834 45.3395 39.8894 45.2613 39.9676C45.1831 40.0457 45.0771 40.0897 44.9666 40.0898H19.9479C19.7961 39.2197 19.0371 38.5557 18.1242 38.5557H14.0281V30.8936L14.1265 30.7952C14.2991 30.6235 14.4359 30.4193 14.5291 30.1944C14.6223 29.9695 14.6699 29.7283 14.6692 29.4849C14.6692 28.9898 14.4765 28.5244 14.1265 28.1744L14.0281 28.0761V9.15137C14.0281 9.04094 14.0719 8.93503 14.1499 8.85685C14.2279 8.77868 14.3337 8.73463 14.4441 8.73438H38.5449V13.6099C37.7117 13.7652 36.9692 14.1801 36.4041 14.7675H26.6735C26.6473 14.7675 26.6214 14.769 26.5959 14.7717C26.5959 14.7717 25.2561 14.7719 25.2459 14.7724C22.9257 14.8706 20.8119 16.1775 19.7143 18.3798C19.7096 18.3892 19.7057 18.3987 19.7012 18.4081C19.7001 18.4103 19.6986 18.4123 19.6976 18.4146C19.0477 19.7304 18.834 21.3098 19.2218 22.8781C19.4204 23.6762 19.7609 24.4131 20.2085 25.0122C20.3461 25.2058 20.707 25.6891 21.1307 26.0624L25.0266 29.7C25.0292 29.7024 25.032 29.7045 25.0347 29.7068C25.0533 29.7245 25.0725 29.7419 25.0915 29.7594C25.0001 29.7591 24.889 29.7578 24.766 29.7564C23.9129 29.7469 25.1328 29.7537 17.1915 29.7568C16.6149 29.757 16.1459 30.2259 16.1459 30.8023V34.2376C16.1459 34.8142 16.6149 35.2832 17.1915 35.2832C17.1915 35.2832 26.4213 35.2796 26.6314 35.2723C26.6453 35.2718 26.659 35.2709 26.6727 35.2697C27.1759 35.2234 27.7725 35.1439 28.3806 34.9038C28.7295 34.7671 29.0615 34.5903 29.3697 34.3771L29.3714 34.3759C29.3824 34.3682 29.3941 34.3613 29.4052 34.3535C29.4168 34.3453 29.427 34.3357 29.4384 34.3272C30.6822 33.3878 31.4677 31.9434 31.48 30.3709C31.4983 28.4121 30.4209 27.1692 29.4796 26.2963C24.5103 21.6881 24.6711 21.8846 24.5804 21.5273C24.5268 21.3135 24.5594 21.0483 24.6652 20.8344C24.9346 20.307 25.2992 20.2668 26.0682 20.3013C26.2897 20.3111 26.5002 20.3187 26.7062 20.2956H36.4069C37.133 21.049 38.1511 21.519 39.2774 21.519C41.4768 21.519 43.2664 19.7296 43.2664 17.5301C43.2664 15.5809 41.8605 13.9549 40.0099 13.6098V9.92119H45.3837V39.6729H45.3836ZM46.1254 8.45654C46.1223 8.45654 46.1191 8.45605 46.1159 8.45605C46.1127 8.45605 46.1097 8.45645 46.1064 8.45654H40.0096V1.46484H46.6048L44.3599 4.16172C44.1731 4.38606 44.0709 4.66872 44.0709 4.9606C44.0709 5.25247 44.1731 5.53513 44.3599 5.75947L46.6048 8.45645L46.1254 8.45654Z" fill="black"/>
<path d="M7.90275 28.9261C7.83475 28.858 7.754 28.8041 7.66513 28.7673C7.57626 28.7305 7.48101 28.7115 7.38482 28.7116C7.28863 28.7116 7.19338 28.7306 7.10454 28.7674C7.01569 28.8043 6.93497 28.8583 6.86701 28.9264L6.78595 29.0074C6.68359 29.1099 6.6139 29.2404 6.58569 29.3824C6.55747 29.5245 6.57201 29.6717 6.62746 29.8055C6.6829 29.9393 6.77677 30.0536 6.8972 30.1341C7.01762 30.2146 7.15919 30.2575 7.30402 30.2575C7.49152 30.2575 7.67902 30.186 7.82209 30.0429L7.90314 29.9618C8.04043 29.8244 8.11751 29.6381 8.11744 29.4439C8.11736 29.2496 8.04014 29.0634 7.90275 28.9261ZM12.4697 45.073L12.3887 45.1541C12.2863 45.2565 12.2166 45.3871 12.1884 45.5291C12.1602 45.6712 12.1747 45.8184 12.2302 45.9522C12.2856 46.086 12.3795 46.2003 12.4999 46.2808C12.6204 46.3612 12.7619 46.4042 12.9068 46.4042C13.0943 46.4042 13.2818 46.3327 13.4248 46.1895L13.5059 46.1085C13.6432 45.9711 13.7203 45.7848 13.7202 45.5906C13.7202 45.3963 13.643 45.2101 13.5056 45.0728C13.4376 45.0047 13.3568 44.9508 13.2679 44.914C13.1791 44.8772 13.0838 44.8582 12.9876 44.8583C12.8914 44.8583 12.7962 44.8773 12.7073 44.9141C12.6184 44.951 12.5377 45.005 12.4697 45.073ZM15.0859 42.457L15.0048 42.538C14.9024 42.6404 14.8326 42.7709 14.8043 42.913C14.776 43.0551 14.7905 43.2023 14.8459 43.3362C14.9014 43.47 14.9952 43.5844 15.1157 43.6649C15.2361 43.7454 15.3777 43.7884 15.5226 43.7884C15.6187 43.7885 15.714 43.7696 15.8028 43.7328C15.8917 43.6961 15.9724 43.6421 16.0403 43.574L16.1214 43.4931C16.2588 43.3557 16.336 43.1695 16.336 42.9753C16.3361 42.781 16.259 42.5947 16.1217 42.4573C16.0537 42.3893 15.973 42.3353 15.8841 42.2984C15.7953 42.2616 15.7 42.2426 15.6038 42.2426C15.5076 42.2426 15.4124 42.2615 15.3235 42.2983C15.2346 42.3351 15.1539 42.389 15.0859 42.457ZM39.8669 30.6643H37.5958C36.5055 30.6643 35.6184 31.5514 35.6184 32.6417V34.9128C35.6184 36.0031 36.5055 36.8902 37.5958 36.8902H39.8669C40.9572 36.8902 41.8443 36.0031 41.8443 34.9128V32.6417C41.8443 31.5514 40.9572 30.6643 39.8669 30.6643ZM40.3795 34.9128C40.3794 35.0487 40.3253 35.179 40.2292 35.2751C40.1331 35.3712 40.0028 35.4253 39.8669 35.4254H37.5958C37.4599 35.4253 37.3296 35.3712 37.2335 35.2751C37.1374 35.179 37.0833 35.0487 37.0832 34.9128V32.6417C37.0833 32.5058 37.1374 32.3755 37.2335 32.2794C37.3296 32.1833 37.4599 32.1292 37.5958 32.1291H39.8669C40.0028 32.1292 40.1331 32.1833 40.2292 32.2794C40.3253 32.3755 40.3794 32.5058 40.3795 32.6417V34.9128Z" fill="black"/>
</g>
<defs>
<clipPath id="clip0_70_192">
<rect width="50" height="50" fill="white"/>
</clipPath>
</defs>
</svg>
