<svg width="50" height="50" viewBox="0 0 50 50" fill="none" xmlns="http://www.w3.org/2000/svg">
<g clip-path="url(#clip0_70_331)">
<path d="M25.0289 34.9538C34.2897 34.9538 41.7971 27.4464 41.7971 18.1856C41.7971 8.92478 34.2897 1.4174 25.0289 1.4174C15.7681 1.4174 8.26068 8.92478 8.26068 18.1856C8.26068 27.4464 15.7681 34.9538 25.0289 34.9538Z" fill="#EBB65E"/>
<path d="M36.8173 49.5758C36.5026 42.3667 31.3197 36.6204 24.9425 36.5905C18.565 36.5605 13.3284 42.2578 12.9459 49.4637L36.8173 49.5758Z" fill="#F8BDAA"/>
<path d="M10.0867 27.3173C11.7764 27.3173 13.1462 25.9475 13.1462 24.2577C13.1462 22.568 11.7764 21.1981 10.0867 21.1981C8.39688 21.1981 7.02705 22.568 7.02705 24.2577C7.02705 25.9475 8.39688 27.3173 10.0867 27.3173Z" fill="#F5AA9C"/>
<path d="M39.9133 27.4577C41.6032 27.4577 42.9731 26.0878 42.9731 24.398C42.9731 22.7081 41.6032 21.3383 39.9133 21.3383C38.2235 21.3383 36.8536 22.7081 36.8536 24.398C36.8536 26.0878 38.2235 27.4577 39.9133 27.4577Z" fill="#F5AA9C"/>
<path d="M28.2717 37.1462C27.9989 38.7534 26.569 40.0058 24.8947 39.998C23.2273 39.9902 21.8144 38.7344 21.5484 37.134C16.7961 38.7174 13.2577 43.5889 12.9459 49.4636L36.8173 49.5758C36.5596 43.6741 33.039 38.7534 28.2717 37.1462Z" fill="#8F383C"/>
<path d="M25.0108 37.8637C33.7571 37.8637 40.8474 30.7734 40.8474 22.0271C40.8474 13.2807 33.7571 6.19041 25.0108 6.19041C16.2645 6.19041 9.17416 13.2807 9.17416 22.0271C9.17416 30.7734 16.2645 37.8637 25.0108 37.8637Z" fill="#F9C5B8"/>
<path d="M17.6274 27.0768C19.2176 27.0768 20.5067 26.1153 20.5067 24.9293C20.5067 23.7433 19.2176 22.7819 17.6274 22.7819C16.0373 22.7819 14.7482 23.7433 14.7482 24.9293C14.7482 26.1153 16.0373 27.0768 17.6274 27.0768Z" fill="#F39E9C"/>
<path d="M32.6021 27.0773C34.1923 27.0773 35.4813 26.1159 35.4813 24.9299C35.4813 23.7439 34.1923 22.7824 32.6021 22.7824C31.0119 22.7824 29.7229 23.7439 29.7229 24.9299C29.7229 26.1159 31.0119 27.0773 32.6021 27.0773Z" fill="#F39E9C"/>
<path d="M18.7406 22.6241C19.3454 22.6241 19.8356 22.1339 19.8356 21.5291C19.8356 20.9243 19.3454 20.434 18.7406 20.434C18.1358 20.434 17.6455 20.9243 17.6455 21.5291C17.6455 22.1339 18.1358 22.6241 18.7406 22.6241Z" fill="#121325"/>
<path d="M31.2856 22.6832C31.8903 22.6832 32.3806 22.193 32.3806 21.5882C32.3806 20.9834 31.8903 20.4931 31.2856 20.4931C30.6808 20.4931 30.1905 20.9834 30.1905 21.5882C30.1905 22.193 30.6808 22.6832 31.2856 22.6832Z" fill="#121325"/>
<path d="M25.0083 25.471H24.9946C23.9886 25.4663 23.0568 24.9325 22.5628 24.0783C22.5065 23.9809 22.4911 23.8651 22.5202 23.7564C22.5492 23.6477 22.6202 23.5549 22.7176 23.4986C22.815 23.4422 22.9308 23.4269 23.0395 23.4559C23.1482 23.485 23.2409 23.556 23.2973 23.6534C23.6409 24.2479 24.2929 24.6192 24.9986 24.6224H25.0083C25.7103 24.6224 26.3613 24.2579 26.7091 23.6695C26.7375 23.6215 26.775 23.5796 26.8195 23.5461C26.8641 23.5127 26.9148 23.4883 26.9687 23.4744C27.0227 23.4606 27.0788 23.4574 27.134 23.4653C27.1892 23.4731 27.2422 23.4917 27.2902 23.5201C27.3382 23.5484 27.3801 23.586 27.4135 23.6305C27.447 23.675 27.4714 23.7257 27.4852 23.7797C27.4991 23.8337 27.5022 23.8898 27.4944 23.945C27.4866 24.0001 27.4679 24.0532 27.4396 24.1012C26.9396 24.9472 26.0089 25.471 25.0083 25.471Z" fill="#121325"/>
<path d="M40.8494 21.633C40.8494 21.633 41.5145 13.7156 37.0134 7.83834C37.0134 7.83834 29.3058 -1.55653 15.9235 4.93915C15.9235 4.93915 14.5473 7.13377 16.0584 9.789C16.0584 9.789 20.4746 14.6598 34.3923 12.1483C34.3923 12.1484 36.015 17.7078 40.8494 21.633Z" fill="#EBB65E"/>
<path d="M16.4119 4.77434C16.4119 4.77434 7.10742 7.15109 9.19059 21.3314C9.19059 21.3314 12.927 18.195 15.6154 11.0243C15.6155 11.0243 17.7196 5.76356 16.4119 4.77434Z" fill="#EBB65E"/>
<path d="M25.5458 44.9871L31.456 45.0167L31.4332 49.5605L25.5231 49.5309L25.5458 44.9871Z" fill="#A63739"/>
<path d="M31.6345 12.7336C31.755 12.7211 39.2417 12.2037 41.4104 5.48882C41.4104 5.48882 38.3597 5.16029 37.029 4.52551C37.029 4.52551 39.2198 3.52306 39.7322 1.48653C39.7322 1.48653 14.9604 -2.42889 15.3615 4.76937C15.3615 4.76937 13.9949 6.97072 16.0585 9.78899C16.0585 9.78899 18.9463 13.7426 31.6345 12.7336Z" fill="#EBB65E"/>
<path d="M36.8166 50.0002H36.8145L12.9445 49.888C12.887 49.8878 12.8302 49.8759 12.7775 49.853C12.7248 49.8302 12.6773 49.7968 12.6378 49.755C12.5984 49.7132 12.5679 49.6639 12.5481 49.6099C12.5284 49.556 12.5198 49.4985 12.5229 49.4412C12.8264 43.7338 16.0822 38.8305 20.8169 36.9493C20.9012 36.9158 20.9941 36.9102 21.0818 36.9333C22.3307 37.2629 23.6283 37.4332 24.9382 37.4395L25.0114 37.4396C26.2962 37.4396 27.5708 37.2814 28.7992 36.9696C28.8871 36.9471 28.98 36.9536 29.0639 36.988C33.765 38.9073 36.9686 43.8143 37.2375 49.4997C37.2487 49.5609 37.2462 49.6237 37.2304 49.6838C37.2146 49.7439 37.1857 49.7998 37.1459 49.8475C37.1061 49.8953 37.0563 49.9337 37 49.96C36.9437 49.9863 36.8823 50 36.8201 50C36.8191 50.0002 36.8179 50.0002 36.8166 50.0002ZM13.4004 49.0415L36.3669 49.1495C35.994 44.0112 33.0909 39.6126 28.8704 37.8263C27.6164 38.1328 26.3188 38.288 25.0116 38.288L24.9344 38.2879C23.6007 38.2816 22.2787 38.1138 21.0029 37.7894C16.7658 39.5359 13.8216 43.9069 13.4004 49.0415ZM10.0809 27.7423H10.0768L10.0674 27.7422C8.14934 27.7332 6.59446 26.1627 6.60339 24.2414C6.61055 22.7074 7.60054 21.3747 9.06656 20.9254C9.13175 20.9054 9.20078 20.9015 9.26782 20.9139C9.33485 20.9263 9.39792 20.9546 9.45167 20.9966C9.50543 21.0385 9.5483 21.0927 9.57666 21.1547C9.60502 21.2167 9.61803 21.2846 9.61459 21.3527C9.60511 21.5381 9.60003 21.7352 9.59882 21.9553C9.59055 23.7297 9.88127 25.469 10.4629 27.1256C10.4925 27.1833 10.509 27.2488 10.509 27.318C10.5089 27.553 10.3236 27.742 10.0829 27.7423H10.0809ZM8.75039 21.9842C7.95917 22.4469 7.45634 23.2951 7.45193 24.2456C7.4462 25.4908 8.30864 26.5413 9.46918 26.8209C8.98741 25.2603 8.74587 23.6366 8.75039 21.9842ZM39.9147 27.8824H39.8978C39.7597 27.8818 39.6257 27.8139 39.5469 27.7005C39.468 27.5871 39.4445 27.4423 39.4919 27.3125C40.1011 25.6466 40.4143 23.8928 40.4227 22.1001C40.4238 21.8795 40.4205 21.6824 40.4128 21.4976C40.4099 21.4294 40.4235 21.3616 40.4525 21.2999C40.4814 21.2381 40.5248 21.1843 40.579 21.1429C40.6332 21.1016 40.6966 21.0739 40.7637 21.0621C40.8309 21.0504 40.8998 21.0549 40.9649 21.0754C42.4267 21.5386 43.4038 22.8803 43.3966 24.4146C43.3877 26.3267 41.8256 27.8824 39.9147 27.8824ZM41.2709 22.1369C41.2599 23.7894 41.0031 25.4108 40.5068 26.9665C41.6692 26.6972 42.5422 25.6534 42.5481 24.4104C42.5525 23.46 42.0576 22.607 41.2709 22.1369Z" fill="#121325"/>
<path d="M36.8173 50H36.8152L12.944 49.8878C12.8865 49.8875 12.8298 49.8755 12.7771 49.8526C12.7244 49.8297 12.6769 49.7964 12.6375 49.7547C12.5981 49.7129 12.5676 49.6636 12.5478 49.6097C12.5279 49.5558 12.5193 49.4984 12.5223 49.4411C12.8226 43.7846 16.043 38.8967 20.7268 36.9887C20.7992 36.9591 20.8784 36.9502 20.9556 36.963C21.222 37.0067 21.4777 37.0768 21.7799 37.1688C21.8462 37.1889 21.9065 37.225 21.9556 37.2738C22.0047 37.3227 22.041 37.3828 22.0615 37.449C22.4478 38.6939 23.6136 39.5677 24.8968 39.5738C26.1855 39.5738 27.3532 38.7118 27.7499 37.4775C27.7732 37.4053 27.8154 37.3406 27.8721 37.2901C27.9289 37.2397 27.9981 37.2055 28.0726 37.1909C28.3343 37.1397 28.5528 37.0759 28.7408 36.9956C28.7925 36.9736 28.848 36.9621 28.9042 36.9616C28.9603 36.9612 29.016 36.972 29.068 36.9932C33.7841 38.9209 36.9923 43.8526 37.2414 49.5572C37.2438 49.6144 37.2347 49.6715 37.2145 49.7251C37.1943 49.7787 37.1634 49.8277 37.1238 49.8691C37.0842 49.9104 37.0366 49.9434 36.9839 49.9659C36.9312 49.9884 36.8746 50 36.8173 50ZM13.3997 49.0414L36.3677 49.1494C35.996 44.0275 33.1067 39.6392 28.9023 37.8436C28.7619 37.8941 28.6188 37.9368 28.4737 37.9715C27.8983 39.426 26.4672 40.4221 24.9104 40.4221C23.3208 40.4146 21.8854 39.3964 21.3264 37.9193C21.1968 37.8814 21.0657 37.8487 20.9336 37.8211C16.7358 39.5876 13.8179 43.9473 13.3997 49.0414Z" fill="#121325"/>
<path d="M25.0116 38.2881L24.9344 38.288C23.5527 38.2814 22.1837 38.1018 20.8654 37.7537C15.661 36.387 11.4796 32.5386 9.68107 27.4597C9.05477 25.6953 8.74168 23.842 8.7505 21.9511C8.75171 21.7178 8.75723 21.5079 8.76726 21.3094C8.77027 21.2512 8.78522 21.1942 8.81119 21.142C8.83715 21.0899 8.87357 21.0436 8.91818 21.0061C8.95445 20.9756 12.6072 17.8404 15.2188 10.8758C15.2239 10.8629 15.423 10.3614 15.6566 9.65494C15.6882 9.55913 15.7529 9.47773 15.8391 9.42537C15.9254 9.37301 16.0275 9.35313 16.127 9.3693C16.2377 9.38707 16.3369 9.448 16.4027 9.53874C16.4511 9.60037 17.9836 11.4823 23.2512 12.1975C23.3049 12.2041 23.3566 12.2105 23.4062 12.2187L23.5301 12.2339C23.9142 12.2823 24.2576 12.3185 24.5814 12.3447C26.6566 12.5266 29.0219 12.5148 31.6015 12.3101C31.7268 12.3007 32.8311 12.2075 34.2619 11.7446C34.3159 11.7272 34.3728 11.7208 34.4294 11.7257C34.4859 11.7307 34.5408 11.7469 34.591 11.7735C34.6411 11.8 34.6854 11.8363 34.7213 11.8803C34.7572 11.9242 34.7838 11.9749 34.7998 12.0294C34.8038 12.0429 35.2069 13.4043 36.182 15.2178C37.0811 16.8948 38.6652 19.3101 41.1075 21.2958C41.1541 21.3337 41.1921 21.381 41.219 21.4347C41.2459 21.4883 41.2612 21.5471 41.2637 21.607C41.2707 21.7721 41.2719 21.937 41.2712 22.104C41.2623 23.995 40.9318 25.8455 40.2888 27.604C38.4426 32.6654 34.2253 36.4742 29.0079 37.7923C27.7116 38.1213 26.3668 38.2881 25.0116 38.2881ZM9.6071 21.5296C9.60236 21.663 9.59971 21.8037 9.59894 21.9553C9.59067 23.7477 9.88723 25.5043 10.4808 27.1761C12.1857 31.9903 16.1485 35.6378 21.0814 36.9332C22.3309 37.263 23.6285 37.4333 24.9384 37.4396L25.0116 37.4397C26.2965 37.4397 27.571 37.2815 28.7994 36.9697C33.7448 35.7204 37.7418 32.1105 39.4917 27.3128C40.101 25.6465 40.4142 23.8928 40.4226 22.1C40.423 22.0096 40.4228 21.9198 40.4212 21.8303C37.9553 19.7802 36.3512 17.3297 35.4343 15.6192C34.7278 14.305 34.313 13.2317 34.1189 12.6762C32.8262 13.0536 31.8637 13.1414 31.6688 13.156C29.0411 13.3646 26.6262 13.3762 24.5099 13.1903C24.1476 13.1604 23.786 13.1224 23.4254 13.0761L23.2845 13.0585C23.2402 13.0516 23.1958 13.0456 23.1512 13.0404C20.75 12.7144 18.7891 12.1251 17.3083 11.2868C16.9889 11.1059 16.5769 10.8362 16.2418 10.5613C16.1679 10.7694 16.0906 10.9764 16.0099 11.182C13.5804 17.6616 10.3338 20.8677 9.6071 21.5296ZM31.4477 49.9746H31.4457L25.5357 49.947C25.4232 49.9464 25.3155 49.9012 25.2363 49.8212C25.1571 49.7413 25.1129 49.6332 25.1134 49.5207L25.1348 44.9767C25.1354 44.8642 25.1806 44.7565 25.2606 44.6773C25.3405 44.5982 25.4486 44.554 25.5611 44.5545L31.4712 44.5823C31.5269 44.5826 31.582 44.5938 31.6334 44.6154C31.6848 44.637 31.7314 44.6684 31.7706 44.708C31.8098 44.7476 31.8408 44.7945 31.8618 44.8461C31.8829 44.8977 31.8936 44.9529 31.8933 45.0086L31.8721 49.5524C31.8715 49.6646 31.8265 49.772 31.747 49.8511C31.6675 49.9302 31.5599 49.9746 31.4477 49.9746ZM25.964 49.1005L31.0256 49.1241L31.0428 45.4287L25.9813 45.405L25.964 49.1005Z" fill="#121325"/>
<path d="M40.8491 22.0568C40.7488 22.0569 40.6518 22.0215 40.5751 21.9568C40.574 21.9559 40.5731 21.955 40.5721 21.9543C38.0207 19.8799 36.3699 17.3643 35.4343 15.6194C34.7278 14.3051 34.313 13.2318 34.1189 12.6763C32.8263 13.0538 31.8637 13.1415 31.6688 13.1561C29.0419 13.3649 26.6268 13.3766 24.5099 13.1905C24.1476 13.1606 23.786 13.1225 23.4254 13.0762L23.2844 13.0586C23.23 13.05 23.1901 13.0453 23.1515 13.0405C20.75 12.7145 18.7891 12.1252 17.3083 11.2869C16.9889 11.106 16.5769 10.8363 16.2418 10.5614C16.1679 10.7695 16.0906 10.9765 16.01 11.1821C13.3163 18.365 9.61944 21.5252 9.46334 21.6563C9.4103 21.7008 9.3472 21.7316 9.27953 21.7461C9.21187 21.7606 9.14168 21.7584 9.07506 21.7397L8.40467 21.5497C8.328 21.528 8.25898 21.4852 8.20554 21.4261C8.1521 21.367 8.11638 21.294 8.10249 21.2156C7.92101 20.1886 7.83209 19.1474 7.8368 18.1046C7.8626 12.6282 10.5185 7.4666 14.9514 4.25586C15.2461 1.43141 19.1714 -0.000106812 26.6263 -0.000106812C32.9703 -0.000106812 39.7301 1.05669 39.7977 1.06738C39.9153 1.08591 40.0197 1.15304 40.0853 1.25248C40.1509 1.35192 40.1719 1.47418 40.143 1.58972C39.794 2.981 38.7582 3.91983 38.0147 4.43544C39.4236 4.84511 41.4305 5.06538 41.4551 5.06802C41.5178 5.07477 41.5781 5.0954 41.6318 5.1284C41.6855 5.1614 41.7311 5.20595 41.7654 5.2588C41.7997 5.31165 41.8218 5.37149 41.8301 5.43395C41.8384 5.49641 41.8326 5.55994 41.8133 5.6199C41.3687 6.99894 40.6703 8.22728 39.7351 9.27614C41.3771 11.9794 42.2355 15.0805 42.2205 18.2661C42.2155 19.3089 42.1168 20.3491 41.9256 21.3743C41.9137 21.4382 41.8872 21.4984 41.8484 21.5505C41.8095 21.6025 41.7591 21.6449 41.7013 21.6745L41.0416 22.0107C40.9819 22.041 40.916 22.0568 40.8491 22.0568ZM34.3923 11.724C34.4841 11.724 34.5734 11.7538 34.6469 11.8089C34.7204 11.8639 34.774 11.9413 34.7998 12.0294C34.8038 12.0429 35.2069 13.4043 36.182 15.2178C37.0561 16.8479 38.5771 19.1754 40.9046 21.1281L41.1288 21.0138C41.2863 20.1048 41.3678 19.1843 41.3723 18.2618C41.387 15.1293 40.5136 12.0832 38.8465 9.45286C38.7959 9.37292 38.7734 9.27834 38.7827 9.18416C38.7919 9.08998 38.8324 9.0016 38.8977 8.93306C39.7409 8.04758 40.3913 7.01096 40.835 5.84623C39.8835 5.71956 37.8951 5.40868 36.846 4.90916C36.7732 4.8744 36.7118 4.81958 36.669 4.75114C36.6262 4.6827 36.6038 4.60347 36.6044 4.52276C36.605 4.44204 36.6287 4.36318 36.6726 4.29542C36.7164 4.22766 36.7787 4.17382 36.8521 4.14021C36.8699 4.13205 38.5368 3.34745 39.1705 1.8317C37.5054 1.59181 31.9166 0.84822 26.6264 0.84822C21.7462 0.84822 15.9038 1.48201 15.7842 4.50148C15.7816 4.5665 15.7642 4.63006 15.7331 4.68724C15.7021 4.74442 15.6583 4.79368 15.6051 4.83122C11.2971 7.87472 8.71037 12.8381 8.68557 18.1083C8.68147 19.0118 8.75122 19.914 8.89415 20.8061L9.08024 20.8589C9.81888 20.1651 12.9216 17.0019 15.2188 10.8759C15.2239 10.863 15.4229 10.3615 15.6566 9.65505C15.6882 9.55924 15.7529 9.47784 15.8391 9.42548C15.9254 9.37312 16.0275 9.35324 16.127 9.36941C16.2377 9.38718 16.3369 9.44811 16.4027 9.53885C16.4511 9.60048 17.9836 11.4825 23.2512 12.1976C23.3051 12.2043 23.3566 12.2107 23.4061 12.2188L23.5301 12.234C23.9141 12.2824 24.2575 12.3187 24.5814 12.3448C26.657 12.527 29.0225 12.515 31.6015 12.3102C31.7268 12.3008 32.8311 12.2076 34.2619 11.7447C34.304 11.731 34.348 11.724 34.3923 11.724Z" fill="#121325"/>
</g>
<defs>
<clipPath id="clip0_70_331">
<rect width="50" height="50" fill="white"/>
</clipPath>
</defs>
</svg>
