<svg width="50" height="50" viewBox="0 0 50 50" fill="none" xmlns="http://www.w3.org/2000/svg">
<path d="M11.6016 28.8711C11.2908 28.8711 10.9927 28.9946 10.7729 29.2143C10.5532 29.4341 10.4297 29.7322 10.4297 30.043V45.9766C10.4297 46.2874 10.5532 46.5854 10.7729 46.8052C10.9927 47.025 11.2908 47.1484 11.6016 47.1484H28.707V40.2617C29.1297 40.5942 29.6373 40.801 30.1719 40.8585C30.7066 40.9161 31.2466 40.822 31.7303 40.5871C32.214 40.3522 32.6218 39.9859 32.9071 39.5301C33.1925 39.0744 33.3438 38.5475 33.3438 38.0098C33.3438 37.472 33.1925 36.9452 32.9071 36.4894C32.6218 36.0336 32.214 35.6673 31.7303 35.4324C31.2466 35.1975 30.7066 35.1034 30.1719 35.161C29.6373 35.2185 29.1297 35.4254 28.707 35.7578V28.8711H21.7578C22.1105 29.2885 22.3365 29.798 22.4093 30.3397C22.482 30.8813 22.3984 31.4324 22.1683 31.928C21.9382 32.4237 21.5712 32.8433 21.1106 33.1373C20.6499 33.4313 20.1148 33.5875 19.5684 33.5875C19.0219 33.5875 18.4868 33.4313 18.0262 33.1373C17.5655 32.8433 17.1985 32.4237 16.9684 31.928C16.7383 31.4324 16.6547 30.8813 16.7274 30.3397C16.8002 29.798 17.0262 29.2885 17.3789 28.8711H11.6016Z" fill="#FFB810"/>
<path d="M30.9996 40.8273C30.5989 40.9026 30.1868 40.891 29.791 40.7934C29.3952 40.6958 29.0249 40.5145 28.7051 40.2617V47.1484H45.8105C46.1213 47.1484 46.4194 47.025 46.6392 46.8052C46.859 46.5854 46.9824 46.2874 46.9824 45.9766V28.8711H40.1699C40.5466 28.3774 40.7498 27.7733 40.748 27.1523C40.7491 26.415 40.4657 25.7057 39.9568 25.1721C39.448 24.6385 38.7529 24.3218 38.0163 24.2879C37.2798 24.2541 36.5586 24.5056 36.0029 24.9902C35.4472 25.4748 35.0998 26.1551 35.0332 26.8894C34.9664 27.5977 35.1686 28.3051 35.5996 28.8711H28.7051V35.7578C29.2072 35.3594 29.8297 35.1432 30.4707 35.1445C31.1848 35.1445 31.8733 35.4111 32.4011 35.8921C32.929 36.3731 33.2582 37.0339 33.3244 37.7449C33.3906 38.456 33.1889 39.1662 32.7589 39.7363C32.3289 40.3065 31.7015 40.6956 30.9996 40.8273Z" fill="#A0B70D"/>
<path d="M31.0055 22.5492C30.6039 22.6254 30.1907 22.6144 29.7938 22.517C29.397 22.4195 29.0256 22.2379 28.7051 21.9844V28.8711H35.5996C35.2229 28.3774 35.0197 27.7733 35.0215 27.1523C35.0205 26.4151 35.304 25.7058 35.8129 25.1723C36.3218 24.6388 37.0169 24.3222 37.7534 24.2883C38.4899 24.2545 39.2111 24.5061 39.7667 24.9907C40.3224 25.4753 40.6697 26.1556 40.7363 26.8898C40.8031 27.598 40.6009 28.3053 40.1699 28.8711H46.9824V11.7656C46.9824 11.4548 46.859 11.1568 46.6392 10.937C46.4194 10.7172 46.1213 10.5938 45.8105 10.5938H29.877C29.5662 10.5938 29.2681 10.7172 29.0483 10.937C28.8285 11.1568 28.7051 11.4548 28.7051 11.7656V17.4805C29.2072 17.0821 29.8297 16.8659 30.4707 16.8672C31.184 16.8678 31.8715 17.1343 32.3988 17.6147C32.926 18.0951 33.2553 18.7548 33.3221 19.465C33.3889 20.1752 33.1886 20.8848 32.7602 21.4551C32.3318 22.0254 31.7061 22.4155 31.0055 22.5492Z" fill="#14AFC1"/>
<path d="M20.123 2.85156H4.18945C3.87865 2.85156 3.58058 2.97503 3.36081 3.1948C3.14104 3.41457 3.01758 3.71264 3.01758 4.02344V19.957C3.01758 20.2678 3.14104 20.5659 3.36081 20.7857C3.58058 21.0054 3.87865 21.1289 4.18945 21.1289H10.0527C9.6268 21.6259 9.39387 22.2595 9.39648 22.9141C9.39648 23.646 9.68724 24.348 10.2048 24.8655C10.7224 25.3831 11.4243 25.6738 12.1563 25.6738C12.8882 25.6738 13.5901 25.3831 14.1077 24.8655C14.6253 24.348 14.916 23.646 14.916 22.9141C14.9186 22.2595 14.6857 21.6259 14.2598 21.1289H20.123C20.4338 21.1289 20.7319 21.0054 20.9517 20.7857C21.1715 20.5659 21.2949 20.2678 21.2949 19.957V14.1797C21.7732 14.5506 22.3616 14.7513 22.9668 14.75C23.6987 14.75 24.4007 14.4592 24.9182 13.9417C25.4358 13.4241 25.7266 12.7222 25.7266 11.9902C25.7266 11.2583 25.4358 10.5563 24.9182 10.0388C24.4007 9.52123 23.6987 9.23047 22.9668 9.23047C22.3616 9.22921 21.7732 9.42991 21.2949 9.80078V4.02344C21.2949 3.71264 21.1715 3.41457 20.9517 3.1948C20.7319 2.97503 20.4338 2.85156 20.123 2.85156Z" fill="#F04B40"/>
<path d="M20.4375 47.832C20.6188 47.832 20.7927 47.76 20.9209 47.6318C21.0491 47.5036 21.1211 47.3297 21.1211 47.1484C21.1211 46.9671 21.0491 46.7933 20.9209 46.6651C20.7927 46.5369 20.6188 46.4648 20.4375 46.4648H18.4961C18.3148 46.4648 18.1409 46.5369 18.0127 46.6651C17.8845 46.7933 17.8125 46.9671 17.8125 47.1484C17.8125 47.3297 17.8845 47.5036 18.0127 47.6318C18.1409 47.76 18.3148 47.832 18.4961 47.832H20.4375Z" fill="black"/>
<path d="M17.9992 28.5836C17.9443 28.4653 17.8568 28.3652 17.7469 28.295C17.637 28.2248 17.5093 28.1875 17.3789 28.1875H11.6016C11.1097 28.1881 10.6381 28.3838 10.2902 28.7316C9.9424 29.0795 9.74671 29.5511 9.74609 30.043V45.9766C9.74671 46.4685 9.9424 46.9401 10.2902 47.2879C10.6381 47.6357 11.1097 47.8314 11.6016 47.832H14.9375C15.1188 47.832 15.2927 47.76 15.4209 47.6318C15.5491 47.5036 15.6211 47.3297 15.6211 47.1484C15.6211 46.9671 15.5491 46.7933 15.4209 46.6651C15.2927 46.5369 15.1188 46.4648 14.9375 46.4648H11.6016C11.4721 46.4647 11.348 46.4133 11.2564 46.3217C11.1649 46.2302 11.1134 46.106 11.1133 45.9766V30.043C11.1135 29.9135 11.165 29.7895 11.2565 29.6979C11.348 29.6064 11.4721 29.5549 11.6016 29.5547H16.2152C16.0195 30.1212 15.9688 30.7277 16.068 31.3187C16.1504 31.8028 16.3324 32.2645 16.6025 32.6746C16.8725 33.0847 17.2247 33.4343 17.6367 33.7013C18.0488 33.9684 18.5117 34.147 18.9964 34.226C19.481 34.3049 19.9767 34.2825 20.4522 34.16C20.9278 34.0376 21.3727 33.8178 21.7589 33.5146C22.1451 33.2115 22.4643 32.8314 22.6961 32.3986C22.928 31.9658 23.0675 31.4895 23.1059 31C23.1443 30.5105 23.0807 30.0184 22.9191 29.5547H28.0234V35.7578C28.0237 35.8862 28.0601 36.0119 28.1284 36.1206C28.1967 36.2293 28.2943 36.3166 28.4099 36.3725C28.5254 36.4284 28.6544 36.4507 28.7821 36.4367C28.9097 36.4228 29.0308 36.3733 29.1316 36.2937C29.5126 35.9903 29.9857 35.826 30.4727 35.8281C30.8207 35.827 31.1639 35.9092 31.4738 36.0678C31.7836 36.2263 32.051 36.4567 32.2536 36.7397C32.4563 37.0226 32.5883 37.35 32.6387 37.6943C32.689 38.0387 32.6563 38.3901 32.5432 38.7193C32.4301 39.0484 32.2399 39.3458 31.9884 39.5864C31.737 39.8271 31.4317 40.0041 31.0979 40.1027C30.7641 40.2014 30.4116 40.2187 30.0697 40.1533C29.7279 40.088 29.4066 39.9418 29.1328 39.7269C29.0321 39.647 28.911 39.597 28.7832 39.5828C28.6554 39.5685 28.5262 39.5906 28.4104 39.6464C28.2946 39.7022 28.1969 39.7896 28.1284 39.8984C28.06 40.0072 28.0236 40.1332 28.0234 40.2617V46.4648H24C23.8187 46.4648 23.6448 46.5369 23.5166 46.6651C23.3884 46.7933 23.3164 46.9671 23.3164 47.1484C23.3164 47.3297 23.3884 47.5036 23.5166 47.6318C23.6448 47.76 23.8187 47.832 24 47.832H32.9609C33.1422 47.832 33.3161 47.76 33.4443 47.6318C33.5725 47.5036 33.6445 47.3297 33.6445 47.1484C33.6445 46.9671 33.5725 46.7933 33.4443 46.6651C33.3161 46.5369 33.1422 46.4648 32.9609 46.4648H29.3906V41.3867C29.9496 41.5637 30.5431 41.6026 31.1203 41.5C31.5976 41.4119 32.0518 41.2268 32.4548 40.9563C32.8578 40.6857 33.201 40.3354 33.4633 39.927C33.7256 39.5186 33.9013 39.0607 33.9797 38.5817C34.058 38.1027 34.0373 37.6127 33.9189 37.142C33.8004 36.6713 33.5866 36.2298 33.2909 35.845C32.9951 35.4601 32.6235 35.14 32.1991 34.9044C31.7747 34.6689 31.3066 34.5228 30.8235 34.4753C30.3405 34.4277 29.8528 34.4798 29.3906 34.6281V29.5547H35.6016C35.7291 29.5546 35.8541 29.5189 35.9624 29.4515C36.0707 29.3841 36.158 29.2878 36.2144 29.1734C36.2708 29.059 36.2941 28.9311 36.2816 28.8041C36.2691 28.6772 36.2214 28.5563 36.1437 28.4551C35.818 28.0145 35.6661 27.4693 35.7172 26.9238C35.7522 26.5905 35.8637 26.2698 36.043 25.9866C36.2223 25.7035 36.4646 25.4656 36.7509 25.2914C37.0373 25.1172 37.3599 25.0115 37.6938 24.9825C38.0277 24.9535 38.3638 25.002 38.6759 25.1242C38.988 25.2464 39.2676 25.439 39.4931 25.687C39.7185 25.935 39.8836 26.2317 39.9756 26.5539C40.0676 26.8762 40.0839 27.2154 40.0233 27.545C39.9627 27.8746 39.8268 28.1858 39.6262 28.4543C39.5483 28.5555 39.5004 28.6764 39.4878 28.8035C39.4751 28.9305 39.4983 29.0585 39.5547 29.1731C39.6111 29.2876 39.6984 29.384 39.8068 29.4515C39.9152 29.5189 40.0403 29.5547 40.168 29.5547H46.2965V45.9766C46.2965 46.1061 46.245 46.2303 46.1535 46.3218C46.0619 46.4134 45.9377 46.4648 45.8082 46.4648H36.5195C36.3382 46.4648 36.1644 46.5369 36.0362 46.6651C35.908 46.7933 35.8359 46.9671 35.8359 47.1484C35.8359 47.3297 35.908 47.5036 36.0362 47.6318C36.1644 47.76 36.3382 47.832 36.5195 47.832H45.8082C46.3001 47.8315 46.7718 47.6359 47.1196 47.288C47.4675 46.9401 47.6632 46.4685 47.6637 45.9766V28.8937C47.6637 28.8859 47.666 28.8789 47.666 28.8711V11.7656C47.6654 11.2737 47.4697 10.8021 47.1219 10.4543C46.774 10.1065 46.3025 9.91078 45.8105 9.91016H29.877C29.385 9.91078 28.9135 10.1065 28.5656 10.4543C28.2178 10.8021 28.0221 11.2737 28.0215 11.7656V17.4805C28.0214 17.609 28.0576 17.7349 28.1259 17.8438C28.1942 17.9527 28.2918 18.0401 28.4075 18.0961C28.5232 18.152 28.6523 18.1742 28.78 18.1601C28.9078 18.1461 29.029 18.0962 29.1297 18.0164C29.5106 17.713 29.9837 17.5487 30.4707 17.5508C30.8188 17.5496 31.1622 17.6318 31.4721 17.7904C31.782 17.949 32.0495 18.1795 32.2521 18.4625C32.4548 18.7456 32.5868 19.073 32.6371 19.4175C32.6874 19.762 32.6545 20.1135 32.5413 20.4427C32.428 20.7719 32.2376 21.0692 31.986 21.3098C31.7344 21.5504 31.4289 21.7273 31.095 21.8258C30.761 21.9242 30.4084 21.9413 30.0665 21.8757C29.7246 21.81 29.4034 21.6635 29.1297 21.4484C29.029 21.3686 28.9078 21.3188 28.78 21.3047C28.6523 21.2906 28.5232 21.3128 28.4075 21.3688C28.2918 21.4247 28.1942 21.5122 28.1259 21.621C28.0576 21.7299 28.0214 21.8559 28.0215 21.9844V28.1875H21.7578C21.6278 28.1875 21.5005 28.2246 21.3908 28.2944C21.2811 28.3641 21.1936 28.4638 21.1386 28.5815C21.0835 28.6993 21.0632 28.8303 21.0799 28.9592C21.0967 29.0881 21.1499 29.2096 21.2332 29.3094C21.4499 29.5654 21.6047 29.8678 21.6856 30.1933C21.7665 30.5188 21.7712 30.8586 21.6996 31.1863C21.6279 31.5139 21.4816 31.8206 21.2722 32.0826C21.0628 32.3446 20.7958 32.5548 20.492 32.6969C20.1882 32.839 19.8558 32.9092 19.5204 32.902C19.1851 32.8948 18.856 32.8105 18.5585 32.6555C18.2611 32.5005 18.0034 32.2791 17.8054 32.0084C17.6073 31.7376 17.4744 31.4249 17.4168 31.0945C17.361 30.7803 17.3754 30.4577 17.459 30.1497C17.5426 29.8417 17.6933 29.5561 17.9004 29.3133C17.9847 29.2137 18.0388 29.0921 18.0563 28.9629C18.0738 28.8336 18.054 28.702 17.9992 28.5836ZM29.3887 23.1148C29.9504 23.2932 30.5476 23.3299 31.1269 23.2219C31.8219 23.0935 32.4623 22.7596 32.9654 22.2633C33.4685 21.7671 33.8112 21.1314 33.9492 20.4383C34.0532 19.9229 34.0414 19.3909 33.9148 18.8806C33.7882 18.3703 33.55 17.8945 33.2172 17.4875C32.8844 17.0804 32.4654 16.7523 31.9905 16.5269C31.5155 16.3014 30.9965 16.1841 30.4707 16.1836C30.1035 16.1828 29.7384 16.2393 29.3887 16.3512V11.7656C29.3889 11.6362 29.4404 11.5121 29.5319 11.4206C29.6234 11.3291 29.7475 11.2776 29.877 11.2773H45.8105C45.94 11.2774 46.0641 11.3289 46.1557 11.4205C46.2472 11.512 46.2987 11.6362 46.2988 11.7656V28.1875H41.2801C41.4239 27.7127 41.4665 27.213 41.4052 26.7207C41.3439 26.2284 41.1801 25.7544 40.9244 25.3293C40.6686 24.9043 40.3265 24.5375 39.9203 24.2528C39.514 23.9681 39.0526 23.7717 38.5657 23.6764C38.0789 23.581 37.5774 23.5888 37.0938 23.6992C36.6101 23.8096 36.155 24.0202 35.7577 24.3173C35.3605 24.6145 35.03 24.9917 34.7875 25.4245C34.545 25.8573 34.396 26.3361 34.35 26.8301C34.3148 27.2874 34.363 27.7474 34.4922 28.1875H29.3887V23.1148Z" fill="black"/>
<path d="M20.123 2.16797H4.18945C3.69751 2.16849 3.22587 2.36414 2.87801 2.71199C2.53015 3.05985 2.3345 3.5315 2.33398 4.02344V19.957C2.3345 20.449 2.53015 20.9206 2.87801 21.2685C3.22587 21.6163 3.69751 21.812 4.18945 21.8125H8.89297C8.71866 22.3304 8.67011 22.8824 8.75134 23.4227C8.83257 23.9631 9.04125 24.4764 9.36012 24.9202C9.67899 25.364 10.0989 25.7255 10.5851 25.9748C11.0714 26.2242 11.61 26.3542 12.1564 26.3542C12.7029 26.3542 13.2415 26.2242 13.7277 25.9748C14.214 25.7255 14.6339 25.364 14.9528 24.9202C15.2716 24.4764 15.4803 23.9631 15.5615 23.4227C15.6428 22.8824 15.5942 22.3304 15.4199 21.8125H20.123C20.615 21.8119 21.0865 21.6162 21.4344 21.2684C21.7822 20.9205 21.9779 20.4489 21.9785 19.957V15.2895C22.4925 15.443 23.0353 15.4744 23.5636 15.381C24.0919 15.2877 24.5911 15.0722 25.0213 14.7517C25.4515 14.4312 25.8009 14.0147 26.0417 13.5352C26.2824 13.0558 26.4077 12.5267 26.4077 11.9902C26.4077 11.4538 26.2824 10.9247 26.0417 10.4453C25.8009 9.96582 25.4515 9.54925 25.0213 9.22877C24.5911 8.9083 24.0919 8.69279 23.5636 8.59942C23.0353 8.50606 22.4925 8.53742 21.9785 8.69102V4.02344C21.9779 3.53153 21.7822 3.05994 21.4344 2.71211C21.0865 2.36427 20.615 2.16859 20.123 2.16797ZM22.9687 9.91406C23.5194 9.91406 24.0475 10.1328 24.4368 10.5222C24.8262 10.9115 25.0449 11.4396 25.0449 11.9902C25.0449 12.5409 24.8262 13.069 24.4368 13.4583C24.0475 13.8477 23.5194 14.0664 22.9687 14.0664C22.5147 14.068 22.0733 13.9174 21.7148 13.6387C21.6137 13.5605 21.4927 13.5123 21.3656 13.4995C21.2384 13.4866 21.1102 13.5097 20.9955 13.566C20.8808 13.6223 20.7842 13.7097 20.7166 13.8182C20.6491 13.9267 20.6133 14.0519 20.6133 14.1797V19.957C20.6131 20.0865 20.5616 20.2105 20.47 20.3021C20.3785 20.3936 20.2544 20.4451 20.125 20.4453H14.2598C14.1289 20.4452 14.0008 20.4827 13.8906 20.5533C13.7804 20.624 13.6928 20.7247 13.6383 20.8437C13.5837 20.9626 13.5645 21.0948 13.5828 21.2243C13.6012 21.3539 13.6563 21.4755 13.7418 21.5746C14.0601 21.9482 14.2341 22.4233 14.2324 22.9141C14.2324 23.4647 14.0137 23.9928 13.6243 24.3821C13.235 24.7715 12.7069 24.9902 12.1562 24.9902C11.6056 24.9902 11.0775 24.7715 10.6882 24.3821C10.2988 23.9928 10.0801 23.4647 10.0801 22.9141C10.0782 22.4234 10.2523 21.9483 10.5707 21.575C10.6561 21.4758 10.7112 21.3542 10.7296 21.2247C10.7479 21.0951 10.7287 20.963 10.6741 20.844C10.6196 20.725 10.532 20.6242 10.4219 20.5536C10.3117 20.4829 10.1836 20.4453 10.0527 20.4453H4.18945C4.05998 20.4452 3.93585 20.3937 3.8443 20.3022C3.75275 20.2106 3.70128 20.0865 3.70117 19.957V4.02344C3.70117 3.89394 3.75262 3.76974 3.84419 3.67817C3.93576 3.5866 4.05995 3.53516 4.18945 3.53516H20.123C20.2525 3.53526 20.3766 3.58674 20.4682 3.67828C20.5597 3.76983 20.6112 3.89397 20.6113 4.02344V9.80078C20.6113 9.92857 20.6471 10.0538 20.7147 10.1623C20.7822 10.2708 20.8789 10.3581 20.9936 10.4145C21.1083 10.4708 21.2365 10.4938 21.3636 10.481C21.4908 10.4682 21.6118 10.4199 21.7129 10.3418C22.0718 10.0627 22.5141 9.91206 22.9687 9.91406Z" fill="black"/>
</svg>
