<svg width="24" height="24" viewBox="0 0 24 24" fill="none" xmlns="http://www.w3.org/2000/svg">
<g clip-path="url(#clip0_70_407)">
<path d="M22.8735 21.734L17.9613 16.8219C17.7217 16.5822 17.4031 16.4503 17.0642 16.4503C16.8805 16.4503 16.7033 16.4903 16.5408 16.564L15.2795 15.3027C17.0606 13.706 18.1834 11.3889 18.1834 8.81427C18.1834 4.00927 14.2741 0.100128 9.46908 0.100128C4.66401 0.100128 0.754837 4.00927 0.754837 8.81427C0.754837 13.6194 4.66401 17.5285 9.46908 17.5285C11.4167 17.5285 13.2169 16.8862 14.6695 15.8025L15.9609 17.094C15.8537 17.2826 15.7956 17.4961 15.7956 17.7189C15.7956 18.0578 15.9275 18.3764 16.1672 18.616L21.0793 23.5283C21.3189 23.7679 21.6374 23.8999 21.9764 23.8999C22.3153 23.8999 22.6339 23.7678 22.8736 23.5282C23.1132 23.2886 23.2451 22.97 23.2451 22.631C23.2452 22.2922 23.1132 21.9736 22.8735 21.734ZM1.58061 8.81427C1.58061 4.46462 5.11934 0.925915 9.46906 0.925915C13.8188 0.925915 17.3576 4.46462 17.3576 8.81427C17.3576 13.164 13.8188 16.7028 9.46906 16.7028C5.11936 16.7028 1.58061 13.164 1.58061 8.81427ZM22.2896 22.9443C22.206 23.028 22.0947 23.0741 21.9764 23.0741C21.858 23.0741 21.7467 23.028 21.6632 22.9444L16.7511 18.0321C16.6675 17.9484 16.6214 17.8372 16.6214 17.7189C16.6214 17.6006 16.6675 17.4894 16.7511 17.4057C16.8347 17.3221 16.9459 17.276 17.0642 17.276C17.1825 17.276 17.2937 17.3221 17.3774 17.4058L22.2896 22.3179C22.3733 22.4015 22.4194 22.5128 22.4194 22.631C22.4194 22.7494 22.3733 22.8606 22.2896 22.9443Z" fill="black"/>
<path d="M9.78588 2.49494C11.7219 2.49494 15.4901 4.60993 15.4901 8.48689C15.4901 8.71494 15.6749 8.89978 15.903 8.89978C16.131 8.89978 16.3159 8.71494 16.3159 8.48689C16.3159 6.54225 15.4557 4.73865 13.8937 3.40833C12.6532 2.35178 11.0408 1.66914 9.7859 1.66914C9.55784 1.66914 9.373 1.854 9.373 2.08204C9.37299 2.31009 9.55784 2.49494 9.78588 2.49494Z" fill="black"/>
</g>
<defs>
<clipPath id="clip0_70_407">
<rect width="24" height="24" fill="white"/>
</clipPath>
</defs>
</svg>
