<svg width="38" height="44" viewBox="0 0 38 44" fill="none" xmlns="http://www.w3.org/2000/svg">
<path fill-rule="evenodd" clip-rule="evenodd" d="M18.75 0.75C10.47 0.75 3.75 7.47 3.75 15.75C3.75 19.68 5.265 23.265 7.755 25.935C9.6 21.705 13.83 18.75 18.75 18.75C23.67 18.75 27.9 21.705 29.745 25.935C32.3248 23.1717 33.7567 19.5304 33.75 15.75C33.75 7.47 27.03 0.75 18.75 0.75ZM18.75 15.75C16.26 15.75 14.25 13.74 14.25 11.25C14.25 8.76 16.26 6.75 18.75 6.75C21.24 6.75 23.25 8.76 23.25 11.25C23.25 13.74 21.24 15.75 18.75 15.75Z" fill="#FFC943"/>
<path fill-rule="evenodd" clip-rule="evenodd" d="M29.745 25.935C27.015 28.905 23.1 30.75 18.75 30.75C14.4 30.75 10.485 28.905 7.755 25.935C9.6 21.705 13.83 18.75 18.75 18.75C23.67 18.75 27.9 21.705 29.745 25.935Z" fill="#F2F2F2"/>
<path d="M18.75 15.75C21.2353 15.75 23.25 13.7353 23.25 11.25C23.25 8.76472 21.2353 6.75 18.75 6.75C16.2647 6.75 14.25 8.76472 14.25 11.25C14.25 13.7353 16.2647 15.75 18.75 15.75Z" fill="#F2F2F2"/>
<path fill-rule="evenodd" clip-rule="evenodd" d="M36.75 38.25C36.75 39.495 36.24 40.62 35.43 41.43C34.62 42.24 33.495 42.75 32.25 42.75H5.25004C4.35932 42.7521 3.48806 42.4894 2.7469 41.9954C2.00574 41.5014 1.42811 40.7982 1.08735 39.9753C0.746589 39.1523 0.658073 38.2466 0.83304 37.3732C1.00801 36.4999 1.43857 35.6982 2.07004 35.07C2.88004 34.26 4.00504 33.75 5.25004 33.75H32.25C34.74 33.75 36.75 35.76 36.75 38.25Z" fill="#F45151"/>
<path d="M18.75 31.5C27.435 31.5 34.5 24.435 34.5 15.75C34.5 7.065 27.435 0 18.75 0C10.065 0 3 7.065 3 15.75C3 24.435 10.065 31.5 18.75 31.5ZM18.75 30C16.876 30.0011 15.0202 29.6313 13.2897 28.912C11.5592 28.1928 9.98813 27.1382 8.667 25.809C10.542 21.969 14.436 19.5 18.75 19.5C23.064 19.5 26.958 21.969 28.833 25.809C27.5119 27.1382 25.9408 28.1928 24.2103 28.912C22.4798 29.6313 20.624 30.0011 18.75 30ZM4.5 15.75C4.5 7.893 10.893 1.5 18.75 1.5C26.607 1.5 33 7.893 33 15.75C33.0007 18.9704 31.9045 22.0949 29.892 24.609C28.7974 22.6101 27.1857 20.9421 25.2256 19.7794C23.2655 18.6167 21.029 18.0022 18.75 18C16.471 18.0022 14.2345 18.6167 12.2744 19.7794C10.3143 20.9421 8.7026 22.6101 7.608 24.609C5.59545 22.0949 4.49926 18.9704 4.5 15.75Z" fill="black"/>
<path d="M18.75 16.5C21.645 16.5 24 14.145 24 11.25C24 8.355 21.645 6 18.75 6C15.855 6 13.5 8.355 13.5 11.25C13.5 14.145 15.855 16.5 18.75 16.5ZM18.75 7.5C20.817 7.5 22.5 9.183 22.5 11.25C22.5 13.317 20.817 15 18.75 15C16.683 15 15 13.317 15 11.25C15 9.183 16.683 7.5 18.75 7.5ZM5.25002 43.5H15.75C15.9489 43.5 16.1397 43.421 16.2803 43.2803C16.421 43.1397 16.5 42.9489 16.5 42.75C16.5 42.5511 16.421 42.3603 16.2803 42.2197C16.1397 42.079 15.9489 42 15.75 42H5.25002C4.25582 41.9988 3.30268 41.6033 2.59968 40.9003C1.89668 40.1973 1.50121 39.2442 1.50002 38.25C1.50002 37.251 1.89002 36.3105 2.59952 35.5995C3.30902 34.8885 4.25102 34.5 5.25002 34.5H32.25C34.317 34.5 36 36.183 36 38.25C36 39.249 35.61 40.1895 34.9005 40.9005C34.191 41.6115 33.249 42 32.25 42H21.75C21.5511 42 21.3603 42.079 21.2197 42.2197C21.079 42.3603 21 42.5511 21 42.75C21 42.9489 21.079 43.1397 21.2197 43.2803C21.3603 43.421 21.5511 43.5 21.75 43.5H32.25C33.6495 43.5 34.968 42.954 35.961 41.961C36.4503 41.475 36.8382 40.8967 37.1024 40.2597C37.3666 39.6227 37.5017 38.9396 37.5 38.25C37.5 35.355 35.145 33 32.25 33H5.25002C3.85052 33 2.53202 33.546 1.53902 34.539C1.04976 35.025 0.661805 35.6033 0.397629 36.2403C0.133452 36.8773 -0.00169548 37.5604 1.60551e-05 38.25C1.60551e-05 41.145 2.35502 43.5 5.25002 43.5Z" fill="black"/>
<path d="M20.7 37.125C20.6509 37.0394 20.5854 36.9643 20.5071 36.9041C20.4289 36.8439 20.3395 36.7998 20.2441 36.7743C20.1488 36.7487 20.0493 36.7423 19.9515 36.7554C19.8536 36.7685 19.7593 36.8008 19.674 36.8505L19.5 36.951V36.75C19.5 36.5511 19.421 36.3603 19.2804 36.2197C19.1397 36.079 18.9489 36 18.75 36C18.5511 36 18.3603 36.079 18.2197 36.2197C18.079 36.3603 18 36.5511 18 36.75V36.951L17.826 36.8505C17.7407 36.8005 17.6463 36.7678 17.5483 36.7544C17.4503 36.741 17.3506 36.7471 17.255 36.7724C17.1594 36.7977 17.0697 36.8417 16.9911 36.9017C16.9126 36.9618 16.8467 37.0368 16.7972 37.1225C16.7477 37.2082 16.7157 37.3028 16.703 37.4008C16.6902 37.4989 16.697 37.5986 16.7229 37.694C16.7488 37.7895 16.7934 37.8789 16.854 37.957C16.9146 38.0352 16.99 38.1006 17.076 38.1495L17.25 38.25L17.076 38.3505C16.99 38.3994 16.9146 38.4648 16.854 38.543C16.7934 38.6211 16.7488 38.7105 16.7229 38.806C16.697 38.9014 16.6902 39.0011 16.703 39.0992C16.7157 39.1972 16.7477 39.2918 16.7972 39.3775C16.8467 39.4632 16.9126 39.5382 16.9911 39.5983C17.0697 39.6583 17.1594 39.7023 17.255 39.7276C17.3506 39.7529 17.4503 39.759 17.5483 39.7456C17.6463 39.7322 17.7407 39.6995 17.826 39.6495L18 39.549V39.75C18 39.9489 18.079 40.1397 18.2197 40.2803C18.3603 40.421 18.5511 40.5 18.75 40.5C18.9489 40.5 19.1397 40.421 19.2804 40.2803C19.421 40.1397 19.5 39.9489 19.5 39.75V39.549L19.674 39.6495C19.7592 39.6993 19.8534 39.7318 19.9511 39.745C20.0489 39.7581 20.1483 39.7518 20.2436 39.7262C20.3389 39.7007 20.4282 39.6565 20.5063 39.5962C20.5844 39.5359 20.6497 39.4607 20.6985 39.375C20.798 39.2027 20.8249 38.998 20.7734 38.8059C20.722 38.6138 20.5963 38.45 20.424 38.3505L20.25 38.25L20.424 38.1495C20.5963 38.05 20.722 37.8862 20.7734 37.6941C20.8249 37.502 20.7995 37.2973 20.7 37.125ZM11.7 37.125C11.6508 37.0395 11.5851 36.9646 11.5069 36.9045C11.4286 36.8444 11.3393 36.8004 11.244 36.7749C11.1487 36.7494 11.0493 36.7429 10.9515 36.7559C10.8537 36.7689 10.7594 36.801 10.674 36.8505L10.5 36.951V36.75C10.5 36.5511 10.421 36.3603 10.2804 36.2197C10.1397 36.079 9.94894 36 9.75002 36C9.55111 36 9.36035 36.079 9.21969 36.2197C9.07904 36.3603 9.00002 36.5511 9.00002 36.75V36.951L8.82602 36.8505C8.7407 36.8005 8.64632 36.7678 8.54832 36.7544C8.45032 36.741 8.35064 36.7471 8.25501 36.7724C8.15939 36.7977 8.06971 36.8417 7.99114 36.9017C7.91257 36.9618 7.84666 37.0368 7.7972 37.1225C7.74775 37.2082 7.71572 37.3028 7.70297 37.4008C7.69022 37.4989 7.697 37.5986 7.72292 37.694C7.74883 37.7895 7.79337 37.8789 7.85397 37.957C7.91458 38.0352 7.99004 38.1006 8.07602 38.1495L8.25002 38.25L8.07602 38.3505C7.99004 38.3994 7.91458 38.4648 7.85397 38.543C7.79337 38.6211 7.74883 38.7105 7.72292 38.806C7.697 38.9014 7.69022 39.0011 7.70297 39.0992C7.71572 39.1972 7.74775 39.2918 7.7972 39.3775C7.84666 39.4632 7.91257 39.5382 7.99114 39.5983C8.06971 39.6583 8.15939 39.7023 8.25501 39.7276C8.35064 39.7529 8.45032 39.759 8.54832 39.7456C8.64632 39.7322 8.7407 39.6995 8.82602 39.6495L9.00002 39.549V39.75C9.00002 39.9489 9.07904 40.1397 9.21969 40.2803C9.36035 40.421 9.55111 40.5 9.75002 40.5C9.94894 40.5 10.1397 40.421 10.2804 40.2803C10.421 40.1397 10.5 39.9489 10.5 39.75V39.549L10.674 39.6495C10.7592 39.6993 10.8534 39.7318 10.9511 39.745C11.0489 39.7581 11.1483 39.7518 11.2436 39.7262C11.3389 39.7007 11.4282 39.6565 11.5063 39.5962C11.5844 39.5359 11.6497 39.4607 11.6985 39.375C11.798 39.2027 11.8249 38.998 11.7734 38.8059C11.722 38.6138 11.5963 38.45 11.424 38.3505L11.25 38.25L11.424 38.1495C11.5963 38.05 11.722 37.8862 11.7734 37.6941C11.8249 37.502 11.798 37.2973 11.6985 37.125H11.7ZM25.8 39.375C25.8493 39.4605 25.9149 39.5354 25.9932 39.5955C26.0714 39.6556 26.1608 39.6996 26.2561 39.7251C26.3514 39.7506 26.4508 39.7571 26.5486 39.7441C26.6464 39.7311 26.7407 39.699 26.826 39.6495L27 39.549V39.75C27 39.9489 27.079 40.1397 27.2197 40.2803C27.3603 40.421 27.5511 40.5 27.75 40.5C27.9489 40.5 28.1397 40.421 28.2804 40.2803C28.421 40.1397 28.5 39.9489 28.5 39.75V39.549L28.674 39.6495C28.7592 39.6993 28.8533 39.7318 28.9511 39.745C29.0489 39.7581 29.1483 39.7518 29.2436 39.7262C29.3389 39.7007 29.4282 39.6565 29.5063 39.5962C29.5844 39.5359 29.6497 39.4607 29.6985 39.375C29.798 39.2027 29.8249 38.998 29.7734 38.8059C29.722 38.6138 29.5963 38.45 29.424 38.3505L29.25 38.25L29.424 38.1495C29.51 38.1006 29.5855 38.0352 29.6461 37.957C29.7067 37.8789 29.7512 37.7895 29.7771 37.694C29.803 37.5986 29.8098 37.4989 29.7971 37.4008C29.7843 37.3028 29.7523 37.2082 29.7028 37.1225C29.6534 37.0368 29.5875 36.9618 29.5089 36.9017C29.4303 36.8417 29.3407 36.7977 29.245 36.7724C29.1494 36.7471 29.0497 36.741 28.9517 36.7544C28.8537 36.7678 28.7593 36.8005 28.674 36.8505L28.5 36.951V36.75C28.5 36.5511 28.421 36.3603 28.2804 36.2197C28.1397 36.079 27.9489 36 27.75 36C27.5511 36 27.3603 36.079 27.2197 36.2197C27.079 36.3603 27 36.5511 27 36.75V36.951L26.826 36.8505C26.7407 36.8005 26.6463 36.7678 26.5483 36.7544C26.4503 36.741 26.3506 36.7471 26.255 36.7724C26.1594 36.7977 26.0697 36.8417 25.9911 36.9017C25.9126 36.9618 25.8467 37.0368 25.7972 37.1225C25.7477 37.2082 25.7157 37.3028 25.703 37.4008C25.6902 37.4989 25.697 37.5986 25.7229 37.694C25.7488 37.7895 25.7934 37.8789 25.854 37.957C25.9146 38.0352 25.99 38.1006 26.076 38.1495L26.25 38.25L26.076 38.3505C25.9038 38.45 25.7781 38.6138 25.7266 38.8059C25.6751 38.998 25.7006 39.2027 25.8 39.375Z" fill="black"/>
<path d="M18.75 43.5C19.1642 43.5 19.5 43.1642 19.5 42.75C19.5 42.3358 19.1642 42 18.75 42C18.3358 42 18 42.3358 18 42.75C18 43.1642 18.3358 43.5 18.75 43.5Z" fill="black"/>
</svg>
